<?xml version="1.0" encoding="UTF-8"?>
<svg viewBox="0 0 360 360" xmlns="http://www.w3.org/2000/svg">
<g>
<title>Layer 1</title>
<path d="m23 45c27.91-59.5 127.05-51.11 165.31-9.3s50.69 68.6 85.2 53 78.52-11.44 81.05 38.17-37.92 108.24-102.09 125.59-64.16 78.76-149.1 66.37c-46.31-6.76-47.37-56.86-40.83-98.3s-71.93-106.63-39.54-175.53z" fill="#FC472A"/>
<path d="m23 45c27.91-59.5 127.05-51.11 165.31-9.3s50.69 68.6 85.2 53 78.52-11.44 81.05 38.17-37.92 108.24-102.09 125.59-64.16 78.76-149.1 66.37c-46.31-6.76-47.37-56.86-40.83-98.3s-71.93-106.63-39.54-175.53z" fill="#fff" opacity=".9"/>
<path d="m288.85 186.28c-3.44-48.15-35.43-85.11-71.44-82.53-1.21 0.08-2.4 0.22-3.59 0.39h-0.08c-36 2.58-62.41 43.7-59 91.86s35.42 85.11 71.43 82.54c1.21-0.09 2.41-0.22 3.6-0.4h0.08c36.04-2.57 62.44-43.7 59-91.86zm-11.41 1.17c0.71 10.35-4.39 19.31-11.72 21.31-8-0.39-14.75-8.83-15.5-19.62-0.72-10.35 4.38-19.31 11.71-21.3 7.95 0.39 14.76 8.82 15.51 19.61zm-32.9-64.3c7.75 5.29 11.08 17.79 7.43 27.91-2.07 5.75-6 9.49-10.33 10.69a13 13 0 0 1 -6.64 -2.34c-7.75-5.29-11.07-17.78-7.43-27.9 2.07-5.75 5.95-9.5 10.34-10.69a12.92 12.92 0 0 1 6.63 2.33zm-28.2 82a4.77 4.77 0 0 1 0.1 -2.78 3.9 3.9 0 0 1 0.4 -0.79 4.57 4.57 0 0 1 0.88 4.56 3.23 3.23 0 0 1 -0.39 0.79 4 4 0 0 1 -0.99 -1.78zm3-13.9a6.2 6.2 0 0 1 2 -5.29 6.1 6.1 0 0 1 2.94 5.07 6.18 6.18 0 0 1 -2 5.29 6.09 6.09 0 0 1 -2.93 -5.07h-0.01zm7.92-14.12a4.69 4.69 0 0 1 -0.1 2.78 3.23 3.23 0 0 1 -0.39 0.79 4.57 4.57 0 0 1 -0.89 -4.56 3.9 3.9 0 0 1 0.4 -0.79 4 4 0 0 1 0.99 1.78h-0.01zm-61.09 17.7c-0.72-10.35 4.38-19.31 11.71-21.31 8 0.39 14.76 8.83 15.51 19.62 0.71 10.35-4.39 19.31-11.71 21.31-7.95-0.4-14.75-8.83-15.5-19.62h-0.01zm32.9 64.3c-7.75-5.29-11.08-17.79-7.43-27.91 2.07-5.75 6-9.49 10.33-10.69a13 13 0 0 1 6.63 2.34c7.75 5.29 11.08 17.78 7.43 27.91-2.07 5.75-6 9.49-10.33 10.68a12.92 12.92 0 0 1 -6.62 -2.33h-0.01zm16.63-82.13a4.65 4.65 0 0 1 0.48 2.74 4 4 0 0 1 -0.62 1.73 3.68 3.68 0 0 1 -0.63 -0.85 4.86 4.86 0 0 1 -0.48 -2.75 4 4 0 0 1 0.62 -1.73 3.3 3.3 0 0 1 0.63 0.86zm-4.06 14.92a4.34 4.34 0 0 1 -0.63 2.65 4.16 4.16 0 0 1 -1.14 -2.68 4.33 4.33 0 0 1 0.63 -2.64 4.14 4.14 0 0 1 1.14 2.65v0.02zm-3.76-58.92c5 9.53 3.43 22.36-3.52 28.64a13.1 13.1 0 0 1 -5.33 3c-4.83-0.25-9.6-3.48-12.65-9.27-5-9.54-3.43-22.36 3.52-28.65a13.08 13.08 0 0 1 5.33 -3c4.83 0.28 9.6 3.48 12.65 9.28zm20 72.32a4.62 4.62 0 0 1 0.15 -4.48 3.51 3.51 0 0 1 0.62 0.86 4.65 4.65 0 0 1 0.48 2.74 4 4 0 0 1 -0.62 1.73 4 4 0 0 1 -0.6 -0.86l-0.03 0.01zm4.12-14.94a4.3 4.3 0 0 1 0.64 -2.65 4.27 4.27 0 0 1 1.14 2.68 4.31 4.31 0 0 1 -0.64 2.65 4.27 4.27 0 0 1 -1.14 -2.68zm3.77 58.91c-5-9.53-3.44-22.36 3.51-28.64a13.09 13.09 0 0 1 5.33 -3c4.84 0.24 9.61 3.47 12.65 9.26 5 9.54 3.44 22.36-3.51 28.65a13.14 13.14 0 0 1 -5.33 3c-4.87-0.25-9.64-3.47-12.68-9.27h0.03z" fill="#FC472A"/>
<path d="m217.41 103.75c-36 2.57-62.41 43.7-59 91.85s35.43 85.11 71.44 82.54 62.41-43.7 59-91.86-35.43-85.11-71.44-82.53zm10.16 27.76c3.65-10.12 12.89-14 20.64-8.75s11.08 17.78 7.43 27.9-12.88 14-20.63 8.75-11.08-17.78-7.44-27.9zm9.85 58.5c0.14 2-1 3.72-2.46 3.83-1.5 0.1-2.84-1.45-3-3.46s1-3.72 2.47-3.83 2.85 1.45 2.99 3.45v0.01zm-11.53-13.87a2.71 2.71 0 0 1 2.22 -2 2.21 2.21 0 0 1 1.42 0.42 3.62 3.62 0 0 1 1.41 2.14 4.7 4.7 0 0 1 -0.09 2.78 2.7 2.7 0 0 1 -2.22 1.95 2.19 2.19 0 0 1 -1.43 -0.41 4.41 4.41 0 0 1 -1.31 -4.88zm-6.52 0.44a4.75 4.75 0 0 1 0.49 2.74 3.64 3.64 0 0 1 -1.11 2.31 2.16 2.16 0 0 1 -1.33 0.6 2.73 2.73 0 0 1 -2.49 -1.63 4.86 4.86 0 0 1 -0.48 -2.75 3.74 3.74 0 0 1 1.1 -2.31 2.27 2.27 0 0 1 1.34 -0.6 2.7 2.7 0 0 1 2.48 1.64zm-29.47-49.88c7-6.28 16.64-3.65 21.65 5.89s3.45 22.41-3.55 28.65-16.65 3.64-21.66-5.89-3.34-22.35 3.56-28.65zm25.42 64.81c0.14 2-1 3.72-2.47 3.82-1.51 0.11-2.84-1.45-3-3.46s1-3.72 2.46-3.82 2.87 1.45 3.01 3.46zm-49.14 3.32c-0.79-11.4 5.48-21.12 14-21.7s16.09 8.21 16.88 19.61-5.48 21.12-14 21.7-16.06-8.2-16.88-19.61zm53.54 55.55c-3.65 10.12-12.89 14-20.64 8.75s-11.08-17.79-7.43-27.91 12.88-14 20.63-8.75 11.08 17.79 7.44 27.91zm1.68-44.63a2.72 2.72 0 0 1 -2.22 1.95 2.2 2.2 0 0 1 -1.42 -0.41 3.68 3.68 0 0 1 -1.42 -2.14 4.77 4.77 0 0 1 0.1 -2.78 2.71 2.71 0 0 1 2.22 -2 2.31 2.31 0 0 1 1.43 0.41 4.42 4.42 0 0 1 1.31 4.97zm-2-14.5c-0.23-3.17 1.51-5.88 3.88-6.05s4.48 2.26 4.71 5.44-1.51 5.88-3.88 6.05-4.54-2.27-4.76-5.44h0.05zm8.56 14.06a4.42 4.42 0 0 1 0.62 -5.06 2.27 2.27 0 0 1 1.34 -0.6 2.72 2.72 0 0 1 2.49 1.64 4.82 4.82 0 0 1 0.48 2.74 3.69 3.69 0 0 1 -1.1 2.31 2.21 2.21 0 0 1 -1.34 0.6 2.73 2.73 0 0 1 -2.54 -1.63h0.05zm29.48 49.87c-6.95 6.29-16.64 3.65-21.65-5.89s-3.44-22.36 3.51-28.64 16.65-3.65 21.65 5.89 3.39 22.36-3.56 28.64h0.05zm9.71-46.43c-8.53 0.58-16.09-8.2-16.88-19.61s5.48-21.12 14-21.69 16.09 8.2 16.88 19.6-5.52 21.12-14.05 21.7h0.05z" opacity=".2"/>
<path d="m243.61 90.17c59.79 5.47 64 80.3 60.05 109l-31-9.66s-6-89.91-65.78-95.38c0 0-5.91-0.74-17.06 1.17a222.51 222.51 0 0 1 50.57 -5.3" fill="#fafafa" opacity=".2"/>
<path d="m243.61 90.17c59.79 5.47 64 80.3 60.05 109l-31-9.66s-6-89.91-65.78-95.38c0 0-5.91-0.74-17.06 1.17a222.51 222.51 0 0 1 50.57 -5.3" fill="#263238"/>
<path d="m240.39 90c-6.43-0.14-12.74 0.11-18.61 0.57a42.45 42.45 0 0 0 -4.81 2c-2.22 0.13-4.39 0.28-6.48 0.45 1.13-0.63 2.3-1.2 3.49-1.73a216.18 216.18 0 0 0 -24.16 4h0.06c-50.4 12.4-55 103.25-84 96.5l0.47 0.15s18 7 37.13 5.14l-0.6-0.15c30.24 3 34.95-109 97.58-107l-0.07 0.07zm-57.55 8c1.42-0.24 2.92-0.49 4.49-0.72a54.7 54.7 0 0 0 -5.3 3.58c-1.64 0.28-3.19 0.58-4.6 0.87a59.88 59.88 0 0 1 5.41 -3.73zm-7.18 5.14c1.37-0.25 2.84-0.49 4.39-0.73-1.28 1.06-2.54 2.17-3.74 3.33-1.64 0.29-3.16 0.57-4.55 0.85 1.24-1.18 2.55-2.34 3.9-3.44v-0.01zm-5.26 4.78c1.38-0.24 2.85-0.48 4.41-0.71-1 1-2 2.1-3 3.21-1.64 0.27-3.16 0.55-4.53 0.81q1.51-1.7 3.12-3.3v-0.01zm-4.28 4.61l4.42-0.69c-0.86 1-1.71 2-2.54 3.1-1.63 0.26-3.15 0.52-4.54 0.77 0.88-1.07 1.76-2.13 2.66-3.17v-0.01zm-3.68 4.51c1.39-0.22 2.87-0.43 4.45-0.65q-1.12 1.48-2.22 3c-1.62 0.23-3.14 0.47-4.53 0.7 0.74-1.01 1.51-2.03 2.3-3.04v-0.01zm-3.29 4.46c1.41-0.2 2.9-0.4 4.47-0.58-0.67 1-1.33 1.95-2 2.95-1.62 0.21-3.15 0.44-4.55 0.65 0.7-1.02 1.39-2.02 2.08-3.01v-0.01zm-3 4.42c1.41-0.17 2.91-0.34 4.49-0.5-0.62 0.95-1.22 1.92-1.81 2.9-1.61 0.17-3.13 0.37-4.54 0.55 0.63-0.98 1.25-1.96 1.88-2.94l-0.02-0.01zm-2.78 4.45c1.42-0.16 2.92-0.31 4.5-0.44-0.57 0.94-1.11 1.89-1.66 2.84-1.61 0.16-3.12 0.32-4.54 0.49l1.7-2.89zm-2.59 4.45c1.42-0.14 2.92-0.27 4.49-0.37-0.53 0.93-1 1.87-1.55 2.81-1.6 0.12-3.11 0.27-4.55 0.41 0.55-0.95 1.08-1.89 1.63-2.84l-0.02-0.01zm-27.58 55.72l-4.48-0.44a25.22 25.22 0 0 0 2.53 -2.45c1.4 0.15 2.89 0.29 4.44 0.42a28.91 28.91 0 0 1 -2.47 2.48l-0.02-0.01zm4.75-5.2l-4.44-0.35c0.62-0.81 1.25-1.66 1.87-2.56l4.42 0.34c-0.59 0.91-1.2 1.77-1.8 2.58l-0.05-0.01zm3.66-5.34c-1.56-0.09-3-0.19-4.46-0.26q0.79-1.26 1.59-2.61l4.45 0.27c-0.51 0.9-1.04 1.77-1.56 2.6h-0.02zm3.15-5.37l-4.47-0.19c0.48-0.85 1-1.73 1.45-2.63l4.45 0.19c-0.45 0.9-0.93 1.78-1.41 2.64l-0.02-0.01zm2.88-5.38l-4.49-0.11c0.45-0.87 0.91-1.75 1.36-2.66l4.48 0.12c-0.44 0.91-0.88 1.79-1.33 2.66l-0.02-0.01zm2.71-5.37h-4.5c0.44-0.89 0.89-1.77 1.33-2.68h4.49c-0.43 0.91-0.87 1.8-1.3 2.69l-0.02-0.01zm2.64-5.35c-1.6 0-3.1 0-4.53 0.05 0.45-0.89 0.89-1.8 1.34-2.7 1.43 0 2.92 0 4.5-0.06l-1.31 2.71zm2.6-5.34l-4.52 0.14c0.44-0.91 0.9-1.82 1.37-2.74l4.49-0.13-1.34 2.73zm2.63-5.33l-4.53 0.24 1.41-2.77c1.43-0.08 2.93-0.15 4.51-0.21-0.45 0.88-0.91 1.88-1.37 2.75l-0.02-0.01zm-1.85-5q0.74-1.41 1.5-2.82c1.43-0.1 2.93-0.2 4.5-0.29-0.49 0.93-1 1.85-1.46 2.78-1.58 0.14-3.09 0.24-4.52 0.37l-0.02-0.04zm3.36 49.64l-4.91-0.29a20.23 20.23 0 0 0 3.12 -2.5l4.78 0.26a19.78 19.78 0 0 1 -2.97 2.57l-0.02-0.04zm5.58-5.46l-4.71-0.26c0.64-0.8 1.29-1.67 1.92-2.59 1.52 0.1 3.09 0.18 4.69 0.26-0.61 0.96-1.21 1.82-1.88 2.63l-0.02-0.04zm3.8-5.57l-4.66-0.24q0.76-1.26 1.53-2.61l4.65 0.24c-0.49 0.94-0.99 1.81-1.5 2.65l-0.02-0.04zm3.14-5.6l-4.65-0.23c0.46-0.86 0.91-1.73 1.36-2.62l4.63 0.23c-0.42 0.93-0.87 1.81-1.32 2.66l-0.02-0.04zm2.79-5.61l-4.63-0.22c0.42-0.86 0.84-1.75 1.25-2.64 1.51 0.08 3.06 0.14 4.63 0.23-0.4 0.93-0.81 1.81-1.23 2.67l-0.02-0.04zm2.61-5.63l-4.62-0.2 1.2-2.64 4.62 0.21c-0.38 0.93-0.78 1.8-1.18 2.67l-0.02-0.04zm2.55-5.63l-4.63-0.18 1.17-2.65c1.51 0.06 3 0.12 4.62 0.2l-1.16 2.63zm2.48-5.63l-4.64-0.16c0.39-0.88 0.79-1.76 1.18-2.66l4.64 0.18-1.18 2.64zm2.51-5.62c-1.58 0-3.13-0.11-4.66-0.14 0.41-0.88 0.81-1.77 1.21-2.65l4.65 0.15c-0.39 0.89-0.81 1.8-1.2 2.68v-0.04zm2.57-5.61l-4.67-0.12c0.41-0.88 0.83-1.77 1.26-2.66 1.52 0 3.08 0.07 4.66 0.13-0.42 0.92-0.84 1.8-1.25 2.69v-0.04zm2.67-5.6c-1.59-0.05-3.16-0.08-4.7-0.09 0.44-0.9 0.88-1.79 1.33-2.68 1.54 0 3.1 0.06 4.69 0.11-0.45 0.92-0.89 1.81-1.32 2.7v-0.04zm2.47-4.92h-4.74c0.46-0.9 0.92-1.8 1.4-2.69q2.33 0 4.74 0c-0.47 0.95-0.94 1.85-1.4 2.73v-0.04zm2.61-4.87c-1.64 0-3.25 0-4.81 0.06 0.5-0.91 1-1.82 1.53-2.72h4.8c-0.52 0.91-1.03 1.81-1.52 2.7v-0.04zm2.79-4.75c-1.67 0-3.3 0.07-4.89 0.13 0.55-0.93 1.1-1.85 1.67-2.75 1.59-0.05 3.22-0.08 4.89-0.1-0.57 0.86-1.13 1.72-1.67 2.72zm3-4.83c-1.7 0.05-3.36 0.12-5 0.2 0.6-0.94 1.22-1.86 1.85-2.77 1.63-0.06 3.29-0.12 5-0.16-0.59 0.86-1.21 1.77-1.82 2.69l-0.03 0.04zm3.36-4.8c-1.74 0.07-3.43 0.16-5.09 0.26 0.69-1 1.4-1.9 2.12-2.81 1.66-0.1 3.37-0.17 5.11-0.22-0.7 0.86-1.41 1.78-2.11 2.73l-0.03 0.04zm3.82-4.83c-1.79 0.1-3.53 0.21-5.23 0.33 0.81-1 1.64-1.93 2.48-2.86 1.72-0.11 3.48-0.2 5.28-0.29-0.83 0.88-1.67 1.81-2.5 2.78l-0.03 0.04zm4.53-4.86c-1.87 0.11-3.69 0.24-5.44 0.38 1-1 2-2 3-2.91 1.79-0.14 3.63-0.24 5.52-0.34-1 0.88-2.04 1.84-3.09 2.83l0.01 0.04zm5.7-4.95c-2 0.11-3.91 0.26-5.78 0.43a49.24 49.24 0 0 1 4.08 -3c1.93-0.14 3.91-0.25 5.94-0.35a46.91 46.91 0 0 0 -4.21 2.88l-0.03 0.04z" fill="#263238"/>
<path d="m238.39 89.94h2c-0.66 0.06-1.33-0.01-2 0zm-21.39 2.62c-2.22 0.13-4.39 0.28-6.48 0.45 1.13-0.63 2.31-1.2 3.48-1.73-1.29 0.14-2.54 0.3-3.77 0.45-8 1-14.33 2.26-17.7 3-1.55 0.33-2.48 0.55-2.65 0.59-50.4 12.39-55 103.24-84 96.49l0.47 0.15s18 7 37.13 5.13l-0.6-0.14c29.91 3 34.83-106.56 95.56-107-5.74-0.05-11.36 0.19-16.61 0.6a44.36 44.36 0 0 0 -4.83 2.01zm-34.16 5.44c1.42-0.24 2.92-0.49 4.49-0.72a54.7 54.7 0 0 0 -5.3 3.58c-1.64 0.28-3.19 0.58-4.6 0.87a59.88 59.88 0 0 1 5.41 -3.73zm-7.18 5.14c1.37-0.25 2.84-0.49 4.39-0.73-1.28 1.06-2.54 2.17-3.74 3.33-1.64 0.29-3.16 0.57-4.55 0.85 1.24-1.18 2.55-2.34 3.9-3.44v-0.01zm-5.26 4.78c1.38-0.24 2.85-0.48 4.41-0.71-1 1-2 2.1-3 3.21-1.64 0.27-3.16 0.55-4.53 0.81q1.51-1.7 3.12-3.3v-0.01zm-4.28 4.61l4.42-0.69c-0.86 1-1.71 2-2.54 3.1-1.63 0.26-3.15 0.52-4.54 0.77 0.88-1.07 1.76-2.13 2.66-3.17v-0.01zm-3.68 4.51c1.39-0.22 2.87-0.43 4.45-0.65q-1.12 1.48-2.22 3c-1.62 0.23-3.14 0.47-4.53 0.7 0.74-1.01 1.51-2.03 2.3-3.04v-0.01zm-3.29 4.46c1.41-0.2 2.9-0.4 4.47-0.58-0.67 1-1.33 1.95-2 2.95-1.62 0.21-3.15 0.44-4.55 0.65 0.7-1.02 1.39-2.02 2.08-3.01v-0.01zm-3 4.42c1.41-0.17 2.91-0.34 4.49-0.5-0.62 0.95-1.22 1.92-1.81 2.9-1.61 0.17-3.13 0.37-4.54 0.55 0.63-0.98 1.25-1.96 1.88-2.94l-0.02-0.01zm-2.78 4.45c1.42-0.16 2.92-0.31 4.5-0.44-0.57 0.94-1.11 1.89-1.66 2.84-1.61 0.16-3.12 0.32-4.54 0.49l1.7-2.89zm-2.59 4.45c1.42-0.14 2.92-0.27 4.49-0.37-0.53 0.93-1 1.87-1.55 2.81-1.6 0.12-3.11 0.27-4.55 0.41 0.55-0.95 1.08-1.89 1.63-2.84l-0.02-0.01zm-2.91 5.25c1.43-0.1 2.93-0.2 4.5-0.29-0.49 0.93-1 1.85-1.46 2.78-1.6 0.1-3.11 0.2-4.54 0.33q0.76-1.4 1.52-2.81l-0.02-0.01zm-2.77 5.26c1.43-0.08 2.93-0.15 4.51-0.21-0.47 0.91-0.93 1.83-1.39 2.74l-4.53 0.24 1.41-2.77zm-2.66 5.26l4.49-0.13-1.34 2.73-4.52 0.14c0.46-0.9 0.93-1.81 1.39-2.73l-0.02-0.01zm-2.64 5.29c1.43 0 2.92 0 4.5-0.06l-1.3 2.72c-1.6 0-3.1 0-4.53 0.05 0.46-0.89 0.9-1.8 1.35-2.7l-0.02-0.01zm-2.62 5.29h4.49c-0.45 0.9-0.89 1.8-1.32 2.68h-4.5c0.46-0.85 0.91-1.76 1.35-2.67l-0.02-0.01zm-2.67 5.31l4.48 0.12c-0.46 0.9-0.9 1.78-1.35 2.65l-4.49-0.11c0.47-0.86 0.93-1.74 1.38-2.65l-0.02-0.01zm-2.77 5.33l4.45 0.19c-0.47 0.89-1 1.77-1.43 2.63l-4.47-0.19c0.5-0.84 0.98-1.72 1.47-2.62l-0.02-0.01zm-3 5.32l4.45 0.27c-0.53 0.89-1.06 1.76-1.58 2.6-1.56-0.09-3-0.19-4.46-0.26q0.85-1.25 1.61-2.6l-0.02-0.01zm-3.36 5.3l4.42 0.34c-0.61 0.9-1.22 1.76-1.85 2.57l-4.44-0.35c0.64-0.8 1.27-1.65 1.89-2.55l-0.02-0.01zm-4.13 5.22c1.4 0.15 2.89 0.29 4.44 0.42a28.91 28.91 0 0 1 -2.49 2.47l-4.48-0.44a25.22 25.22 0 0 0 2.55 -2.44l-0.02-0.01zm28.48 4.88l-4.91-0.29a20.23 20.23 0 0 0 3.12 -2.5l4.78 0.26a19.78 19.78 0 0 1 -2.97 2.54l-0.02-0.01zm5.58-5.46l-4.71-0.26c0.64-0.8 1.29-1.67 1.92-2.59 1.52 0.1 3.09 0.18 4.69 0.26-0.61 0.93-1.21 1.79-1.88 2.6l-0.02-0.01zm3.8-5.57l-4.66-0.24q0.76-1.26 1.53-2.61l4.65 0.24c-0.49 0.91-0.99 1.78-1.5 2.62l-0.02-0.01zm3.14-5.6l-4.65-0.23c0.46-0.86 0.91-1.73 1.36-2.62l4.63 0.23c-0.42 0.9-0.87 1.78-1.32 2.63l-0.02-0.01zm2.79-5.61l-4.63-0.22c0.42-0.86 0.84-1.75 1.25-2.64 1.51 0.08 3.06 0.14 4.63 0.23-0.4 0.9-0.81 1.78-1.23 2.64l-0.02-0.01zm2.61-5.63l-4.62-0.2 1.2-2.64 4.62 0.21c-0.38 0.9-0.78 1.77-1.18 2.64l-0.02-0.01zm2.55-5.66l-4.63-0.18 1.17-2.65c1.51 0.06 3 0.12 4.62 0.2l-1.16 2.63zm2.48-5.63l-4.64-0.16c0.39-0.88 0.79-1.76 1.18-2.66l4.64 0.18-1.18 2.64zm2.51-5.62c-1.58 0-3.13-0.11-4.66-0.14 0.41-0.88 0.81-1.77 1.21-2.65l4.65 0.15c-0.39 0.89-0.81 1.8-1.2 2.68v-0.04zm2.57-5.61l-4.67-0.12c0.41-0.88 0.83-1.77 1.26-2.66 1.52 0 3.08 0.07 4.66 0.13-0.42 0.92-0.84 1.8-1.25 2.69v-0.04zm2.67-5.6c-1.59-0.05-3.16-0.08-4.7-0.09 0.44-0.9 0.88-1.79 1.33-2.68 1.54 0 3.1 0.06 4.69 0.11-0.45 0.92-0.89 1.81-1.32 2.7v-0.04zm2.47-4.92h-4.74c0.46-0.9 0.92-1.8 1.4-2.69q2.33 0 4.74 0c-0.47 0.95-0.94 1.85-1.4 2.73v-0.04zm2.61-4.87c-1.64 0-3.25 0-4.81 0.06 0.5-0.91 1-1.82 1.53-2.72h4.8c-0.52 0.91-1.03 1.81-1.52 2.7v-0.04zm2.79-4.75c-1.67 0-3.3 0.07-4.89 0.13 0.55-0.93 1.1-1.85 1.67-2.75 1.59-0.05 3.22-0.08 4.89-0.1-0.57 0.86-1.13 1.72-1.67 2.72zm3-4.83c-1.7 0.05-3.36 0.12-5 0.2 0.6-0.94 1.22-1.86 1.85-2.77 1.63-0.06 3.29-0.12 5-0.16-0.59 0.86-1.21 1.77-1.82 2.69l-0.03 0.04zm3.36-4.8c-1.74 0.07-3.43 0.16-5.09 0.26 0.69-1 1.4-1.9 2.12-2.81 1.66-0.1 3.37-0.17 5.11-0.22-0.7 0.86-1.41 1.78-2.11 2.73l-0.03 0.04zm3.82-4.83c-1.79 0.1-3.53 0.21-5.23 0.33 0.81-1 1.64-1.93 2.48-2.86 1.72-0.11 3.48-0.2 5.28-0.29-0.83 0.88-1.67 1.81-2.5 2.78l-0.03 0.04zm4.53-4.86c-1.87 0.11-3.69 0.24-5.44 0.38 1-1 2-2 3-2.91 1.79-0.14 3.63-0.24 5.52-0.34-1 0.88-2.04 1.84-3.09 2.83l0.01 0.04zm5.7-4.95c-2 0.11-3.91 0.26-5.78 0.43a49.24 49.24 0 0 1 4.08 -3c1.93-0.14 3.91-0.25 5.94-0.35a46.91 46.91 0 0 0 -4.21 2.88l-0.03 0.04z" fill="#fafafa" opacity=".4"/>
<g opacity=".4">
<path d="m142.51 162.86c-1.16 2.41-2.29 4.64-3.38 6.71 6.66 0.4 13.13 0.61 19.06 0.71 1-2 2-4 3.05-6.06 1.4-2.79 2.89-6.1 4.51-9.75-6.91-0.12-13.38-0.16-19.11-0.15-1.44 2.94-2.82 5.8-4.13 8.54z"/>
<path d="m158 132.87c5.46-0.31 11.49-0.5 18-0.49 2.48-4.87 5.25-9.83 8.35-14.69-6.09 0.2-11.88 0.51-17.16 0.88-3.19 4.53-6.28 9.36-9.19 14.3z"/>
<path d="m125.86 189.42a165.92 165.92 0 0 0 18.44 0.86c4.73-3.9 8.42-9.68 12-16.45-6-0.12-12.47-0.36-19.11-0.79a88.51 88.51 0 0 1 -11.33 16.38z"/>
<path d="m148.42 150.74c5.73 0 12.11 0 18.9 0.17 2.05-4.63 4.32-9.7 6.9-14.95-6.66 0-12.82 0.27-18.31 0.62-2.66 4.73-5.16 9.51-7.49 14.16z"/>
<path d="m122.48 192.72a13.29 13.29 0 0 1 -2.32 1.67c7.52 1.82 13.38 1.45 18.22-0.53-5.95-0.14-11.27-0.57-15.9-1.14z"/>
<path d="m210.2 91.73a53.89 53.89 0 0 0 -9.14 6c-5.55 0.21-10.65 0.6-15.31 1.1a46.56 46.56 0 0 1 6.75 -4.14c3.37-0.69 9.7-1.93 17.7-2.96z"/>
<path d="m170 114.8c5.22-0.34 10.87-0.61 16.76-0.77 1.59-2.33 3.25-4.62 5-6.85a61.16 61.16 0 0 1 5 -5.63c-6 0.36-11.44 0.93-16.3 1.6a92.94 92.94 0 0 0 -10.46 11.65z"/>
</g>
<path d="m143.43 197a14.14 14.14 0 0 1 -4.59 -1.06c-21.71-8.8-32.66-46.71-18.21-102.92 9.09-35.36 26-47 26-47-21.66-8.07-35.5-4.91-35.5-4.91s-16.93 11.69-26 47.05c-14.44 56.21-3.5 94.12 18.21 102.91l1 0.38s3 1.13 7.79 2.4c7.57 2 19.6 4.41 31.29 3.28l0.01-0.13zm-30.72-34.84c-1.18-0.05-2.34-0.13-3.49-0.21-0.2-0.9-0.38-1.82-0.54-2.74l3.5 0.24c0.16 0.9 0.34 1.82 0.53 2.7v0.01zm-1.44-9c0.1 0.92 0.22 1.82 0.34 2.71l-3.52-0.29c-0.13-0.9-0.25-1.81-0.35-2.73 1.17 0.15 2.35 0.24 3.53 0.33v-0.02zm-0.27-25.16c-0.08 0.9-0.14 1.79-0.19 2.68l-3.55-0.46c0.05-0.88 0.11-1.78 0.19-2.68l3.55 0.46zm-3.23-4.08c0.08-0.89 0.17-1.77 0.28-2.67l3.55 0.48c-0.11 0.9-0.2 1.79-0.28 2.67l-3.55-0.48zm2.87 10.36c0 0.91-0.06 1.81-0.08 2.71-1.14-0.14-2.34-0.28-3.54-0.44 0-0.89 0-1.79 0.07-2.7 1.2 0.15 2.38 0.3 3.54 0.43h0.01zm-0.09 6.3c0 0.92 0 1.82 0.05 2.72-1.17-0.12-2.35-0.26-3.55-0.4 0-0.89 0-1.79-0.05-2.72 1.18 0.14 2.37 0.28 3.54 0.4h0.01zm0.2 6.3c0 0.92 0.11 1.83 0.18 2.72-1.17-0.11-2.35-0.22-3.54-0.35-0.07-0.9-0.13-1.81-0.19-2.73l3.55 0.36zm27.61-101c1 0.28 2 0.58 3.07 0.91-0.61 0.53-1.37 1.24-2.24 2.13-1.08-0.32-2.12-0.62-3.15-0.9 0.96-0.89 1.72-1.61 2.31-2.1l0.01-0.04zm-4.11 4c1 0.28 2.11 0.58 3.19 0.9-0.61 0.68-1.24 1.43-1.91 2.26-1.1-0.32-2.19-0.6-3.23-0.88 0.7-0.77 1.33-1.53 1.94-2.22l0.01-0.06zm-3.51 4.24c1.08 0.27 2.17 0.55 3.28 0.86-0.55 0.73-1.11 1.51-1.69 2.34q-1.68-0.45-3.3-0.84c0.58-0.78 1.15-1.56 1.7-2.3l0.01-0.06zm-3.06 4.37c1.08 0.26 2.19 0.54 3.32 0.84-0.5 0.76-1 1.55-1.5 2.39-1.14-0.29-2.26-0.57-3.35-0.82 0.5-0.78 1.01-1.59 1.52-2.35l0.01-0.06zm-2.75 4.51c1.1 0.25 2.22 0.52 3.36 0.82-0.44 0.78-0.89 1.59-1.33 2.44-1.15-0.3-2.28-0.56-3.38-0.82 0.42-0.81 0.9-1.62 1.35-2.44zm-2.44 4.55c1.12 0.24 2.24 0.51 3.4 0.79-0.4 0.81-0.79 1.63-1.19 2.49-1.16-0.29-2.3-0.56-3.41-0.81 0.4-0.82 0.8-1.65 1.2-2.44v-0.03zm-2.17 4.61c1.12 0.25 2.26 0.52 3.41 0.8-0.35 0.81-0.71 1.65-1.06 2.51-1.15-0.29-2.3-0.56-3.43-0.8 0.36-0.83 0.76-1.67 1.08-2.48v-0.03zm-2.4 5.83c1.16 0.24 2.31 0.49 3.47 0.75-0.32 0.83-0.62 1.67-0.93 2.55-1.15-0.26-2.31-0.51-3.46-0.74 0.3-0.84 0.62-1.69 0.92-2.55v-0.01zm-2.07 6c1.17 0.22 2.34 0.44 3.49 0.68-0.27 0.84-0.53 1.7-0.8 2.58-1.15-0.24-2.32-0.45-3.49-0.67 0.26-0.88 0.52-1.74 0.8-2.58v-0.01zm-2.32 8c0.17-0.67 0.34-1.32 0.52-2 1.2 0.21 2.37 0.41 3.52 0.63-0.17 0.61-0.34 1.22-0.49 1.85-0.07 0.25-0.14 0.51-0.2 0.76-1.15-0.21-2.32-0.42-3.51-0.62 0.04-0.15 0.1-0.37 0.16-0.61v-0.01zm-1 4.19l3.53 0.57c-0.22 0.88-0.42 1.76-0.61 2.63l-3.54-0.57c0.16-0.81 0.37-1.71 0.59-2.59l0.03-0.04zm-1.4 6.21c1.22 0.17 2.4 0.36 3.55 0.53-0.2 0.89-0.37 1.77-0.54 2.64l-3.55-0.52c0.14-0.85 0.32-1.73 0.51-2.61l0.03-0.04zm-1.22 6.25l3.55 0.52c-0.17 0.89-0.32 1.77-0.46 2.65l-3.54-0.51c0.11-0.85 0.26-1.73 0.42-2.62l0.03-0.04zm-1 6.3l3.55 0.49c-0.13 0.89-0.25 1.78-0.38 2.66l-3.55-0.49c0.06-0.84 0.19-1.73 0.32-2.6l0.06-0.06zm3.78-73.48c0.63 0 1.29 0 2 0.09a29.81 29.81 0 0 0 -3 2.61h-2a31.29 31.29 0 0 1 2.94 -2.66l0.06-0.04zm-4.69 4.42l1.95 0.07c-0.73 0.77-1.51 1.65-2.32 2.65h-2c0.81-1.04 1.6-1.92 2.37-2.72zm-3.69 4.39l1.91 0.08c-0.63 0.82-1.28 1.7-1.94 2.65h-1.93c0.65-1 1.29-1.89 1.92-2.73h0.04zm-3.1 4.39l1.88 0.09q-0.84 1.25-1.68 2.64l-1.88-0.06c0.52-0.94 1.09-1.83 1.64-2.67h0.04zm-2.71 4.4c0.58 0 1.19 0.07 1.84 0.13-0.48 0.83-1 1.69-1.44 2.59l-1.85-0.11c0.44-0.9 0.95-1.77 1.41-2.61h0.04zm-2.37 4.39l1.82 0.16c-0.43 0.83-0.86 1.7-1.27 2.59l-1.83-0.15c0.39-0.89 0.81-1.76 1.24-2.6h0.04zm-2.13 4.43l1.81 0.19c-0.37 0.83-0.75 1.69-1.12 2.58-0.63-0.07-1.23-0.12-1.8-0.17 0.32-0.89 0.71-1.76 1.11-2.6zm-2.58 6.12l1.8 0.19c-0.32 0.85-0.64 1.71-0.95 2.6l-1.8-0.19c0.31-0.86 0.64-1.73 0.95-2.6zm-2.15 6.15l1.79 0.2q-0.42 1.27-0.81 2.61l-1.79-0.19c0.26-0.88 0.54-1.77 0.81-2.6v-0.02zm-2.37 8.18c0.17-0.68 0.35-1.34 0.54-2l1.78 0.21c-0.18 0.67-0.37 1.36-0.55 2 0 0.19-0.1 0.39-0.14 0.58l-1.79-0.21c0.06-0.14 0.1-0.35 0.16-0.56v-0.02zm-1 4.2l1.77 0.22c-0.21 0.88-0.42 1.77-0.61 2.64l-1.78-0.22c0.16-0.85 0.36-1.74 0.59-2.62l0.03-0.02zm-1.41 6.22l1.79 0.23c-0.2 0.88-0.37 1.76-0.55 2.64l-1.78-0.22c0.14-0.86 0.33-1.74 0.51-2.63l0.03-0.02zm-1.25 6.25l1.78 0.24c-0.16 0.89-0.32 1.77-0.46 2.66l-1.77-0.25c0.14-0.85 0.3-1.74 0.45-2.65zm-1 6.27l1.78 0.25c-0.14 0.89-0.27 1.78-0.39 2.66l-1.77-0.25c0.14-0.85 0.22-1.74 0.36-2.64l0.02-0.02zm-0.81 6.2l1.78 0.25c-0.12 0.9-0.21 1.79-0.29 2.68l-1.78-0.26c0.07-0.86 0.16-1.76 0.27-2.65l0.02-0.02zm-0.59 6.21c0.56 0.1 1.16 0.18 1.77 0.27-0.08 0.9-0.14 1.8-0.19 2.69l-1.79-0.27c0.04-0.86 0.1-1.76 0.19-2.67l0.02-0.02zm-0.37 6.25l1.78 0.28c0 0.91-0.07 1.82-0.09 2.72-0.61-0.11-1.2-0.2-1.77-0.28 0-0.88 0.02-1.79 0.06-2.65l0.02-0.07zm-0.1 6.28l1.77 0.3v2.74l-1.78-0.3c0.01-0.89-0.01-1.8-0.01-2.72l0.02-0.02zm0.19 6.34l1.78 0.31c0.05 0.94 0.12 1.86 0.18 2.77l-1.77-0.32c-0.1-0.89-0.16-1.81-0.21-2.74l0.02-0.02zm0.54 6.41l1.78 0.33c0.11 1 0.23 1.89 0.36 2.81l-1.79-0.34c-0.15-0.9-0.27-1.83-0.37-2.76l0.02-0.04zm0.95 6.51l1.8 0.36c0.17 1 0.37 1.91 0.57 2.84l-1.8-0.34c-0.22-0.91-0.41-1.86-0.62-2.84l0.05-0.02zm1 4.7l1.82 0.42c0.24 1 0.5 2 0.77 2.92l-1.82-0.4c-0.3-0.95-0.56-1.92-0.82-2.92l0.05-0.02zm1.29 4.68c0.56 0.15 1.18 0.32 1.84 0.48 0.33 1 0.68 2.05 1 3l-1.86-0.47c-0.32-0.94-0.69-1.95-1.01-2.99l0.03-0.02zm1.66 4.75l1.89 0.54c0.45 1.09 0.9 2.15 1.4 3.17l-1.91-0.53c-0.51-1.03-0.97-2.08-1.38-3.18zm4.12 8.26c-0.67-1.08-1.32-2.21-1.92-3.41l2 0.61c0.61 1.18 1.27 2.32 2 3.4-0.82-0.21-1.48-0.4-2.11-0.6h0.03zm1.12 1.72c0.62 0.21 1.32 0.43 2.07 0.66a37 37 0 0 0 3 3.77l-2.14-0.65a39.6 39.6 0 0 1 -2.96 -3.78h0.03zm11.76 10.72a29 29 0 0 1 -6.93 -5c0.72 0.24 1.48 0.49 2.29 0.74a28.42 28.42 0 0 0 7.58 5l-2.94-0.74zm6.82-25.75c1.15 0.11 2.31 0.2 3.5 0.27 0.23 0.94 0.47 1.86 0.73 2.75-1.18-0.07-2.34-0.16-3.49-0.25-0.25-0.91-0.5-1.83-0.73-2.77h-0.01zm1.55 5.37c1.16 0.12 2.32 0.23 3.5 0.32 0.31 0.95 0.64 1.87 1 2.77-1.17-0.08-2.33-0.18-3.47-0.29-0.4-0.91-0.7-1.84-1.02-2.8h-0.01zm2.08 5.4c1.15 0.13 2.32 0.25 3.49 0.36 0.42 1 0.86 1.9 1.31 2.8-1.16-0.09-2.31-0.19-3.46-0.32-0.45-0.91-0.9-1.86-1.33-2.84h-0.01zm2.8 5.46c1.15 0.15 2.32 0.28 3.49 0.39 0.59 1 1.2 2 1.85 2.86-1.15-0.08-2.3-0.18-3.44-0.31-0.65-0.93-1.29-1.92-1.89-2.94h-0.01zm6.89 8.65a32.67 32.67 0 0 1 -2.93 -3.05c1.16 0.15 2.31 0.28 3.47 0.38a31.88 31.88 0 0 0 2.75 2.92c-1.08-0.06-2.19-0.14-3.28-0.25h-0.01zm9.73 5.87a10.27 10.27 0 0 1 -1.13 -0.36 26.71 26.71 0 0 1 -5 -2.65q1.6 0.15 3.18 0.24a27.07 27.07 0 0 0 5 2.74c-0.67 0.03-1.35 0.04-2.04 0.03h-0.01z" fill="#263238"/>
<path d="m143.43 197a14.14 14.14 0 0 1 -4.59 -1.06c-21.71-8.8-32.66-46.71-18.21-102.92 9.09-35.36 26-47 26-47-21.66-8.07-35.5-4.91-35.5-4.91s-16.93 11.69-26 47.05c-14.44 56.21-3.5 94.12 18.21 102.91l1 0.38s3 1.13 7.79 2.4c7.57 2 19.6 4.41 31.29 3.28l0.01-0.13zm-30.72-34.84c-1.18-0.05-2.34-0.13-3.49-0.21-0.2-0.9-0.38-1.82-0.54-2.74l3.5 0.24c0.16 0.9 0.34 1.82 0.53 2.7v0.01zm-1.44-9c0.1 0.92 0.22 1.82 0.34 2.71l-3.52-0.29c-0.13-0.9-0.25-1.81-0.35-2.73 1.17 0.15 2.35 0.24 3.53 0.33v-0.02zm-0.27-25.16c-0.08 0.9-0.14 1.79-0.19 2.68l-3.55-0.46c0.05-0.88 0.11-1.78 0.19-2.68l3.55 0.46zm-3.23-4.08c0.08-0.89 0.17-1.77 0.28-2.67l3.55 0.48c-0.11 0.9-0.2 1.79-0.28 2.67l-3.55-0.48zm2.87 10.36c0 0.91-0.06 1.81-0.08 2.71-1.14-0.14-2.34-0.28-3.54-0.44 0-0.89 0-1.79 0.07-2.7 1.2 0.15 2.38 0.3 3.54 0.43h0.01zm-0.09 6.3c0 0.92 0 1.82 0.05 2.72-1.17-0.12-2.35-0.26-3.55-0.4 0-0.89 0-1.79-0.05-2.72 1.18 0.14 2.37 0.28 3.54 0.4h0.01zm0.2 6.3c0 0.92 0.11 1.83 0.18 2.72-1.17-0.11-2.35-0.22-3.54-0.35-0.07-0.9-0.13-1.81-0.19-2.73l3.55 0.36zm27.61-101c1 0.28 2 0.58 3.07 0.91-0.61 0.53-1.37 1.24-2.24 2.13-1.08-0.32-2.12-0.62-3.15-0.9 0.96-0.89 1.72-1.61 2.31-2.1l0.01-0.04zm-4.11 4c1 0.28 2.11 0.58 3.19 0.9-0.61 0.68-1.24 1.43-1.91 2.26-1.1-0.32-2.19-0.6-3.23-0.88 0.7-0.77 1.33-1.53 1.94-2.22l0.01-0.06zm-3.51 4.24c1.08 0.27 2.17 0.55 3.28 0.86-0.55 0.73-1.11 1.51-1.69 2.34q-1.68-0.45-3.3-0.84c0.58-0.78 1.15-1.56 1.7-2.3l0.01-0.06zm-3.06 4.37c1.08 0.26 2.19 0.54 3.32 0.84-0.5 0.76-1 1.55-1.5 2.39-1.14-0.29-2.26-0.57-3.35-0.82 0.5-0.78 1.01-1.59 1.52-2.35l0.01-0.06zm-2.75 4.51c1.1 0.25 2.22 0.52 3.36 0.82-0.44 0.78-0.89 1.59-1.33 2.44-1.15-0.3-2.28-0.56-3.38-0.82 0.42-0.81 0.9-1.62 1.35-2.44zm-2.44 4.55c1.12 0.24 2.24 0.51 3.4 0.79-0.4 0.81-0.79 1.63-1.19 2.49-1.16-0.29-2.3-0.56-3.41-0.81 0.4-0.82 0.8-1.65 1.2-2.44v-0.03zm-2.17 4.61c1.12 0.25 2.26 0.52 3.41 0.8-0.35 0.81-0.71 1.65-1.06 2.51-1.15-0.29-2.3-0.56-3.43-0.8 0.36-0.83 0.76-1.67 1.08-2.48v-0.03zm-2.4 5.83c1.16 0.24 2.31 0.49 3.47 0.75-0.32 0.83-0.62 1.67-0.93 2.55-1.15-0.26-2.31-0.51-3.46-0.74 0.3-0.84 0.62-1.69 0.92-2.55v-0.01zm-2.07 6c1.17 0.22 2.34 0.44 3.49 0.68-0.27 0.84-0.53 1.7-0.8 2.58-1.15-0.24-2.32-0.45-3.49-0.67 0.26-0.88 0.52-1.74 0.8-2.58v-0.01zm-2.32 8c0.17-0.67 0.34-1.32 0.52-2 1.2 0.21 2.37 0.41 3.52 0.63-0.17 0.61-0.34 1.22-0.49 1.85-0.07 0.25-0.14 0.51-0.2 0.76-1.15-0.21-2.32-0.42-3.51-0.62 0.04-0.15 0.1-0.37 0.16-0.61v-0.01zm-1 4.19l3.53 0.57c-0.22 0.88-0.42 1.76-0.61 2.63l-3.54-0.57c0.16-0.81 0.37-1.71 0.59-2.59l0.03-0.04zm-1.4 6.21c1.22 0.17 2.4 0.36 3.55 0.53-0.2 0.89-0.37 1.77-0.54 2.64l-3.55-0.52c0.14-0.85 0.32-1.73 0.51-2.61l0.03-0.04zm-1.22 6.25l3.55 0.52c-0.17 0.89-0.32 1.77-0.46 2.65l-3.54-0.51c0.11-0.85 0.26-1.73 0.42-2.62l0.03-0.04zm-1 6.3l3.55 0.49c-0.13 0.89-0.25 1.78-0.38 2.66l-3.55-0.49c0.06-0.84 0.19-1.73 0.32-2.6l0.06-0.06zm3.78-73.48c0.63 0 1.29 0 2 0.09a29.81 29.81 0 0 0 -3 2.61h-2a31.29 31.29 0 0 1 2.94 -2.66l0.06-0.04zm-4.69 4.42l1.95 0.07c-0.73 0.77-1.51 1.65-2.32 2.65h-2c0.81-1.04 1.6-1.92 2.37-2.72zm-3.69 4.39l1.91 0.08c-0.63 0.82-1.28 1.7-1.94 2.65h-1.93c0.65-1 1.29-1.89 1.92-2.73h0.04zm-3.1 4.39l1.88 0.09q-0.84 1.25-1.68 2.64l-1.88-0.06c0.52-0.94 1.09-1.83 1.64-2.67h0.04zm-2.71 4.4c0.58 0 1.19 0.07 1.84 0.13-0.48 0.83-1 1.69-1.44 2.59l-1.85-0.11c0.44-0.9 0.95-1.77 1.41-2.61h0.04zm-2.37 4.39l1.82 0.16c-0.43 0.83-0.86 1.7-1.27 2.59l-1.83-0.15c0.39-0.89 0.81-1.76 1.24-2.6h0.04zm-2.13 4.43l1.81 0.19c-0.37 0.83-0.75 1.69-1.12 2.58-0.63-0.07-1.23-0.12-1.8-0.17 0.32-0.89 0.71-1.76 1.11-2.6zm-2.58 6.12l1.8 0.19c-0.32 0.85-0.64 1.71-0.95 2.6l-1.8-0.19c0.31-0.86 0.64-1.73 0.95-2.6zm-2.15 6.15l1.79 0.2q-0.42 1.27-0.81 2.61l-1.79-0.19c0.26-0.88 0.54-1.77 0.81-2.6v-0.02zm-2.37 8.18c0.17-0.68 0.35-1.34 0.54-2l1.78 0.21c-0.18 0.67-0.37 1.36-0.55 2 0 0.19-0.1 0.39-0.14 0.58l-1.79-0.21c0.06-0.14 0.1-0.35 0.16-0.56v-0.02zm-1 4.2l1.77 0.22c-0.21 0.88-0.42 1.77-0.61 2.64l-1.78-0.22c0.16-0.85 0.36-1.74 0.59-2.62l0.03-0.02zm-1.41 6.22l1.79 0.23c-0.2 0.88-0.37 1.76-0.55 2.64l-1.78-0.22c0.14-0.86 0.33-1.74 0.51-2.63l0.03-0.02zm-1.25 6.25l1.78 0.24c-0.16 0.89-0.32 1.77-0.46 2.66l-1.77-0.25c0.14-0.85 0.3-1.74 0.45-2.65zm-1 6.27l1.78 0.25c-0.14 0.89-0.27 1.78-0.39 2.66l-1.77-0.25c0.14-0.85 0.22-1.74 0.36-2.64l0.02-0.02zm-0.81 6.2l1.78 0.25c-0.12 0.9-0.21 1.79-0.29 2.68l-1.78-0.26c0.07-0.86 0.16-1.76 0.27-2.65l0.02-0.02zm-0.59 6.21c0.56 0.1 1.16 0.18 1.77 0.27-0.08 0.9-0.14 1.8-0.19 2.69l-1.79-0.27c0.04-0.86 0.1-1.76 0.19-2.67l0.02-0.02zm-0.37 6.25l1.78 0.28c0 0.91-0.07 1.82-0.09 2.72-0.61-0.11-1.2-0.2-1.77-0.28 0-0.88 0.02-1.79 0.06-2.65l0.02-0.07zm-0.1 6.28l1.77 0.3v2.74l-1.78-0.3c0.01-0.89-0.01-1.8-0.01-2.72l0.02-0.02zm0.19 6.34l1.78 0.31c0.05 0.94 0.12 1.86 0.18 2.77l-1.77-0.32c-0.1-0.89-0.16-1.81-0.21-2.74l0.02-0.02zm0.54 6.41l1.78 0.33c0.11 1 0.23 1.89 0.36 2.81l-1.79-0.34c-0.15-0.9-0.27-1.83-0.37-2.76l0.02-0.04zm0.95 6.51l1.8 0.36c0.17 1 0.37 1.91 0.57 2.84l-1.8-0.34c-0.22-0.91-0.41-1.86-0.62-2.84l0.05-0.02zm1 4.7l1.82 0.42c0.24 1 0.5 2 0.77 2.92l-1.82-0.4c-0.3-0.95-0.56-1.92-0.82-2.92l0.05-0.02zm1.29 4.68c0.56 0.15 1.18 0.32 1.84 0.48 0.33 1 0.68 2.05 1 3l-1.86-0.47c-0.32-0.94-0.69-1.95-1.01-2.99l0.03-0.02zm1.66 4.75l1.89 0.54c0.45 1.09 0.9 2.15 1.4 3.17l-1.91-0.53c-0.51-1.03-0.97-2.08-1.38-3.18zm4.12 8.26c-0.67-1.08-1.32-2.21-1.92-3.41l2 0.61c0.61 1.18 1.27 2.32 2 3.4-0.82-0.21-1.48-0.4-2.11-0.6h0.03zm1.12 1.72c0.62 0.21 1.32 0.43 2.07 0.66a37 37 0 0 0 3 3.77l-2.14-0.65a39.6 39.6 0 0 1 -2.96 -3.78h0.03zm11.76 10.72a29 29 0 0 1 -6.93 -5c0.72 0.24 1.48 0.49 2.29 0.74a28.42 28.42 0 0 0 7.58 5l-2.94-0.74zm6.82-25.75c1.15 0.11 2.31 0.2 3.5 0.27 0.23 0.94 0.47 1.86 0.73 2.75-1.18-0.07-2.34-0.16-3.49-0.25-0.25-0.91-0.5-1.83-0.73-2.77h-0.01zm1.55 5.37c1.16 0.12 2.32 0.23 3.5 0.32 0.31 0.95 0.64 1.87 1 2.77-1.17-0.08-2.33-0.18-3.47-0.29-0.4-0.91-0.7-1.84-1.02-2.8h-0.01zm2.08 5.4c1.15 0.13 2.32 0.25 3.49 0.36 0.42 1 0.86 1.9 1.31 2.8-1.16-0.09-2.31-0.19-3.46-0.32-0.45-0.91-0.9-1.86-1.33-2.84h-0.01zm2.8 5.46c1.15 0.15 2.32 0.28 3.49 0.39 0.59 1 1.2 2 1.85 2.86-1.15-0.08-2.3-0.18-3.44-0.31-0.65-0.93-1.29-1.92-1.89-2.94h-0.01zm6.89 8.65a32.67 32.67 0 0 1 -2.93 -3.05c1.16 0.15 2.31 0.28 3.47 0.38a31.88 31.88 0 0 0 2.75 2.92c-1.08-0.06-2.19-0.14-3.28-0.25h-0.01zm9.73 5.87a10.27 10.27 0 0 1 -1.13 -0.36 26.71 26.71 0 0 1 -5 -2.65q1.6 0.15 3.18 0.24a27.07 27.07 0 0 0 5 2.74c-0.67 0.03-1.35 0.04-2.04 0.03h-0.01z" fill="#fafafa" opacity=".2"/>
<path d="m114.46 82.41a129.23 129.23 0 0 1 7 -16.58 183.37 183.37 0 0 0 -20.54 -3.21 118 118 0 0 0 -7.24 16c5.57 0.73 12.41 1.89 20.78 3.79z" fill="#263238"/>
<path d="m92.47 82.13a157.56 157.56 0 0 0 -4.8 17.54c6 0.9 13.07 2.15 21.08 3.87a169.8 169.8 0 0 1 4.58 -17.7 211.12 211.12 0 0 0 -20.86 -3.71z" fill="#263238"/>
<path d="m106.13 119.57q0.81-6.57 1.93-12.51c-8-1.71-15.08-3-21.11-3.85-0.88 4.49-1.63 9.24-2.25 14.3-0.17 1.42-0.32 2.8-0.45 4.17 7.51 1.57 14.87 2.79 21.26 3.71 0.17-1.9 0.37-3.83 0.62-5.82z" fill="#263238"/>
<path d="m123.25 62.52a90.31 90.31 0 0 1 10.93 -15.72 188.2 188.2 0 0 0 -19.41 -3.13 82 82 0 0 0 -11.86 15.52 193.42 193.42 0 0 1 20.34 3.33z" fill="#263238"/>
<path d="m110.67 172c-6.93-1.1-14.62-2.51-22.26-4.29a46.75 46.75 0 0 0 14.2 20.16c7.12 1.44 14 2.57 20.06 3.42a59.83 59.83 0 0 1 -12 -19.29z" fill="#263238"/>
<path d="m109.3 168.17a87.25 87.25 0 0 1 -3.76 -18c-6.76-1.06-14.26-2.43-21.73-4.14a82.65 82.65 0 0 0 3.19 17.69c7.59 1.84 15.28 3.28 22.3 4.45z" fill="#263238"/>
<path d="m105.22 146.45a127.32 127.32 0 0 1 0 -17.48c-6.39-0.92-13.76-2.14-21.3-3.7a139.51 139.51 0 0 0 -0.35 17c7.43 1.73 14.88 3.1 21.65 4.18z" fill="#263238"/>
<path d="m303.76 185c-2.8-39.16-28.81-69.21-58.09-67.12-5.49 0.39-22 3.57-25.31 3.8-29.29 2.1-50.76 35.54-48 74.7s28.81 69.22 58.09 67.13c5.49-0.39 22-3.57 25.31-3.81 29.33-2.12 50.8-35.56 48-74.7z" fill="#263238"/>
<ellipse transform="rotate(-4.09 -90.12 -39.28)" cx="233.62" cy="212.48" rx="53.16" ry="71.09" fill="#fafafa" opacity=".2"/>
<path d="m251.55 253l-1.42-0.17a37.65 37.65 0 0 1 -12 -3.87 0.25 0.25 0 0 1 -0.11 -0.35 0.26 0.26 0 0 1 0.35 -0.12 36.93 36.93 0 0 0 11.84 3.82c0.47 0.06 0.93 0.12 1.4 0.16a0.27 0.27 0 0 1 0.24 0.29 0.26 0.26 0 0 1 -0.3 0.24zm20.22-4.3a0.26 0.26 0 0 1 -0.23 -0.13 0.26 0.26 0 0 1 0.1 -0.36c0.61-0.33 1.21-0.69 1.8-1.06a0.26 0.26 0 0 1 0.36 0.09 0.26 0.26 0 0 1 -0.08 0.36c-0.6 0.37-1.21 0.73-1.82 1.07a0.31 0.31 0 0 1 -0.13 0v0.03zm-38.06-2.39a0.25 0.25 0 0 1 -0.15 0c-0.58-0.39-1.16-0.8-1.72-1.23a0.25 0.25 0 0 1 0 -0.36 0.26 0.26 0 0 1 0.36 -0.06c0.56 0.42 1.13 0.83 1.7 1.22a0.26 0.26 0 0 1 0.07 0.36 0.25 0.25 0 0 1 -0.26 0.04v0.03zm44.13-1.73a0.26 0.26 0 0 1 -0.21 -0.1 0.27 0.27 0 0 1 0 -0.37 49 49 0 0 0 8.54 -9.11 0.27 0.27 0 0 1 0.43 0.31 50.14 50.14 0 0 1 -8.64 9.21 0.25 0.25 0 0 1 -0.12 0.03v0.03zm11.49-13.58a0.37 0.37 0 0 1 -0.14 0 0.26 0.26 0 0 1 -0.08 -0.36 73.74 73.74 0 0 0 9.71 -29.64 0.26 0.26 0 0 1 0.29 -0.23 0.25 0.25 0 0 1 0.23 0.29 74.16 74.16 0 0 1 -9.78 29.79 0.28 0.28 0 0 1 -0.23 0.15zm-71.33-1.4a0.26 0.26 0 0 1 -0.22 -0.12 80.54 80.54 0 0 1 -11.09 -29.37 0.25 0.25 0 0 1 0.21 -0.3 0.26 0.26 0 0 1 0.3 0.21 79.94 79.94 0 0 0 11 29.18 0.25 0.25 0 0 1 -0.08 0.36 0.23 0.23 0 0 1 -0.12 0.04zm-11.79-34.47a0.27 0.27 0 0 1 -0.26 -0.23c-0.12-1.13-0.23-2.28-0.31-3.42-0.15-2.14-0.23-4.31-0.23-6.44v-2.75a0.28 0.28 0 0 1 0.27 -0.26 0.27 0.27 0 0 1 0.26 0.27c0 0.91-0.05 1.82-0.05 2.74 0 2.12 0.08 4.27 0.23 6.4 0.09 1.14 0.19 2.28 0.31 3.4a0.25 0.25 0 0 1 -0.23 0.29h0.01zm92.79-14.75a0.26 0.26 0 0 1 -0.26 -0.23c-0.09-0.69-0.18-1.38-0.29-2.07a0.26 0.26 0 0 1 0.52 -0.08c0.1 0.69 0.2 1.39 0.29 2.09a0.27 0.27 0 0 1 -0.23 0.29h-0.03zm-93-3.06a0.27 0.27 0 0 1 -0.24 -0.28c0.07-0.71 0.14-1.41 0.22-2.1a0.27 0.27 0 0 1 0.29 -0.23 0.26 0.26 0 0 1 0.23 0.29c-0.08 0.69-0.15 1.39-0.21 2.08a0.27 0.27 0 0 1 -0.29 0.24zm91.73-4.18a0.28 0.28 0 0 1 -0.26 -0.21 83.39 83.39 0 0 0 -3.51 -12 0.26 0.26 0 1 1 0.49 -0.19 84.49 84.49 0 0 1 3.55 12.08 0.26 0.26 0 0 1 -0.2 0.31l-0.07 0.01zm-5.54-16.93a0.25 0.25 0 0 1 -0.23 -0.15c-4.69-10.32-11.26-18.8-19-24.53a0.26 0.26 0 1 1 0.31 -0.42c7.82 5.78 14.45 14.33 19.17 24.73a0.27 0.27 0 0 1 -0.13 0.35l-0.12 0.02zm-80.87-1.28h-0.1a0.27 0.27 0 0 1 -0.15 -0.35c4.36-10.75 10.88-19.35 18.86-24.86a0.26 0.26 0 0 1 0.36 0.07 0.27 0.27 0 0 1 -0.07 0.37c-7.89 5.45-14.34 14-18.66 24.62a0.26 0.26 0 0 1 -0.24 0.15zm23.26-27.43a0.27 0.27 0 0 1 -0.24 -0.14 0.26 0.26 0 0 1 0.12 -0.35 35.16 35.16 0 0 1 12.06 -3.67 0.26 0.26 0 1 1 0.06 0.52 34.9 34.9 0 0 0 -11.88 3.61 0.27 0.27 0 0 1 -0.12 0.03zm19.31-3.69c-0.69-0.07-1.39-0.12-2.08-0.14a0.27 0.27 0 0 1 0 -0.53c0.7 0 1.42 0.08 2.11 0.15a0.26 0.26 0 0 1 0.24 0.29 0.27 0.27 0 0 1 -0.27 0.23z" fill="#263238"/>
<path d="m254 246.84a28.42 28.42 0 0 1 -3.08 -0.25 32.51 32.51 0 0 1 -11.88 -4.22 0.27 0.27 0 0 1 -0.1 -0.36 0.26 0.26 0 0 1 0.36 -0.1 31.81 31.81 0 0 0 11.7 4.16 27.53 27.53 0 0 0 3 0.25 0.26 0.26 0 0 1 0.26 0.27 0.27 0.27 0 0 1 -0.26 0.25zm5.23-0.35a0.26 0.26 0 0 1 0 -0.52c9.07-1.47 17.49-7.62 23.71-17.31l0.54-0.86a0.25 0.25 0 0 1 0.36 -0.09 0.26 0.26 0 0 1 0.09 0.36c-0.18 0.3-0.37 0.59-0.55 0.88-6.3 9.81-14.85 16-24.07 17.54h-0.08zm-24.4-7a0.33 0.33 0 0 1 -0.16 -0.05c-0.55-0.43-1.1-0.88-1.63-1.34a0.26 0.26 0 0 1 0.34 -0.4c0.53 0.46 1.07 0.9 1.61 1.32a0.26 0.26 0 0 1 0.05 0.37 0.25 0.25 0 0 1 -0.17 0.06l-0.04 0.04zm-14.34-17.89a0.27 0.27 0 0 1 -0.23 -0.14 78.19 78.19 0 0 1 -8.39 -30.24 0.27 0.27 0 0 1 0.24 -0.28 0.27 0.27 0 0 1 0.28 0.24 77.74 77.74 0 0 0 8.34 30 0.27 0.27 0 0 1 -0.11 0.35 0.28 0.28 0 0 1 -0.13 0.07zm71-12.8h-0.06a0.25 0.25 0 0 1 -0.19 -0.32c0.15-0.67 0.3-1.36 0.43-2a0.26 0.26 0 1 1 0.52 0.1c-0.14 0.69-0.29 1.38-0.44 2.06a0.28 0.28 0 0 1 -0.28 0.16h0.02zm1.27-7.24a0.27 0.27 0 0 1 -0.23 -0.3 80.55 80.55 0 0 0 0.62 -10v-2.52a0.27 0.27 0 0 1 0.26 -0.27 0.28 0.28 0 0 1 0.27 0.26v2.53a79.88 79.88 0 0 1 -0.63 10.08 0.26 0.26 0 0 1 -0.31 0.22h0.02zm-80.83-15.34a0.25 0.25 0 0 1 -0.26 -0.26v-1a81.09 81.09 0 0 1 0.83 -11.62 0.26 0.26 0 1 1 0.52 0.08 80 80 0 0 0 -0.83 11.54v1a0.26 0.26 0 0 1 -0.26 0.26zm81.07-2.47a0.27 0.27 0 0 1 -0.26 -0.24 76.63 76.63 0 0 0 -8.93 -29.85 0.26 0.26 0 0 1 0.1 -0.36 0.27 0.27 0 0 1 0.36 0.11 77.27 77.27 0 0 1 9 30.05 0.27 0.27 0 0 1 -0.24 0.29h-0.03zm-79.33-15.25h-0.06a0.28 0.28 0 0 1 -0.2 -0.32c0.15-0.69 0.31-1.37 0.48-2.05a0.26 0.26 0 0 1 0.32 -0.19 0.27 0.27 0 0 1 0.19 0.32c-0.17 0.67-0.33 1.35-0.48 2a0.25 0.25 0 0 1 -0.25 0.24zm8.68-21.26a0.33 0.33 0 0 1 -0.14 0 0.26 0.26 0 0 1 -0.08 -0.37c6.62-10.11 15.62-16.25 25.34-17.29a0.27 0.27 0 0 1 0 0.53c-9.56 1-18.42 7.07-24.95 17.05a0.25 0.25 0 0 1 -0.17 0.08zm48.48-9.59a0.27 0.27 0 0 1 -0.17 -0.06c-0.55-0.43-1.1-0.86-1.66-1.26a0.26 0.26 0 0 1 -0.06 -0.36 0.26 0.26 0 0 1 0.37 -0.06c0.56 0.4 1.12 0.83 1.68 1.27a0.27 0.27 0 0 1 0 0.37 0.25 0.25 0 0 1 -0.16 0.1zm-6.12-4a0.31 0.31 0 0 1 -0.13 0 31.22 31.22 0 0 0 -10.34 -3.41c-0.51-0.07-1-0.12-1.53-0.17a0.26 0.26 0 0 1 -0.24 -0.28 0.27 0.27 0 0 1 0.29 -0.24c0.51 0 1 0.1 1.55 0.17a32 32 0 0 1 10.52 3.46 0.27 0.27 0 0 1 -0.12 0.5v-0.03z" fill="#263238"/>
<path d="m252.15 240.42h-0.3a26.72 26.72 0 0 1 -11.65 -4.77 0.27 0.27 0 0 1 -0.07 -0.37 0.25 0.25 0 0 1 0.36 -0.06 26.23 26.23 0 0 0 11.43 4.68h0.29a0.26 0.26 0 0 1 0.23 0.3 0.27 0.27 0 0 1 -0.29 0.22zm19.14-6.8a0.25 0.25 0 0 1 -0.19 -0.09 0.26 0.26 0 0 1 0 -0.37c0.5-0.45 1-0.94 1.49-1.45a0.27 0.27 0 0 1 0.37 0 0.28 0.28 0 0 1 0 0.38c-0.5 0.51-1 1-1.52 1.47a0.24 0.24 0 0 1 -0.15 0.06zm-35-1.28a0.25 0.25 0 0 1 -0.18 -0.08c-0.5-0.47-1-1-1.51-1.48a0.26 0.26 0 0 1 0.38 -0.36c0.49 0.51 1 1 1.49 1.46a0.27 0.27 0 0 1 0 0.37 0.25 0.25 0 0 1 -0.22 0.09h0.04zm39.93-4.19a0.33 0.33 0 0 1 -0.16 0 0.27 0.27 0 0 1 0 -0.37c0.57-0.78 1.14-1.61 1.69-2.45a53.71 53.71 0 0 0 4.39 -8.47 0.26 0.26 0 0 1 0.34 -0.15 0.27 0.27 0 0 1 0.14 0.35 53.88 53.88 0 0 1 -4.43 8.55c-0.55 0.86-1.13 1.69-1.71 2.48a0.26 0.26 0 0 1 -0.3 0.06h0.04zm-52.6-14.92a0.26 0.26 0 0 1 -0.25 -0.16 73.91 73.91 0 0 1 -5.22 -22.48c-0.13-1.87-0.2-3.77-0.2-5.63v-2.79c0-0.15 0.1-0.28 0.27-0.26a0.27 0.27 0 0 1 0.26 0.27c0 0.93-0.05 1.86-0.05 2.78 0 1.85 0.06 3.73 0.2 5.59a73.15 73.15 0 0 0 5.18 22.32 0.26 0.26 0 0 1 -0.14 0.34 0.2 0.2 0 0 1 -0.09 0.02h0.04zm60.49-1h-0.11a0.26 0.26 0 0 1 -0.17 -0.33 69.38 69.38 0 0 0 3 -20.62c0-1.85-0.07-3.72-0.2-5.58-0.12-1.61-0.29-3.25-0.51-4.85a0.26 0.26 0 0 1 0.52 -0.07c0.23 1.61 0.4 3.26 0.51 4.88 0.14 1.87 0.2 3.76 0.2 5.62a70.06 70.06 0 0 1 -3 20.77 0.26 0.26 0 0 1 -0.28 0.18h0.04zm-65.47-35a0.26 0.26 0 0 1 -0.23 -0.29 67.71 67.71 0 0 1 2.49 -12.38 0.24 0.24 0 0 1 0.32 -0.17 0.26 0.26 0 0 1 0.18 0.32 67.57 67.57 0 0 0 -2.54 12.29 0.26 0.26 0 0 1 -0.26 0.2l0.04 0.03zm62-16.23a0.25 0.25 0 0 1 -0.24 -0.15c-0.3-0.64-0.6-1.27-0.91-1.89a0.26 0.26 0 1 1 0.47 -0.23c0.31 0.62 0.62 1.26 0.91 1.9a0.26 0.26 0 0 1 -0.12 0.35l-0.11 0.02zm-57.76-1.05h-0.1a0.27 0.27 0 0 1 -0.15 -0.34c0.27-0.66 0.54-1.31 0.83-1.95a0.25 0.25 0 0 1 0.34 -0.13 0.27 0.27 0 0 1 0.13 0.35q-0.42 0.94-0.81 1.92a0.27 0.27 0 0 1 -0.3 0.12l0.06 0.03zm54.3-5.43a0.27 0.27 0 0 1 -0.23 -0.12 48.85 48.85 0 0 0 -7.79 -9.77 0.26 0.26 0 1 1 0.36 -0.38 49.17 49.17 0 0 1 7.88 9.87 0.26 0.26 0 0 1 -0.09 0.36 0.22 0.22 0 0 1 -0.19 0.01l0.06 0.03zm-41.05-13.16a0.25 0.25 0 0 1 -0.21 -0.1 0.26 0.26 0 0 1 0.05 -0.37 24.1 24.1 0 0 1 13 -5.15 22.51 22.51 0 0 1 4.56 0.16 27 27 0 0 1 11.95 5 0.27 0.27 0 0 1 0.06 0.37 0.28 0.28 0 0 1 -0.37 0.06 26.39 26.39 0 0 0 -11.71 -4.9 21.45 21.45 0 0 0 -4.45 -0.14 23.54 23.54 0 0 0 -12.7 5 0.25 0.25 0 0 1 -0.24 0.04l0.06 0.03z" fill="#263238"/>
<path d="m254.55 234.31a16.83 16.83 0 0 1 -1.87 -0.15 22.05 22.05 0 0 1 -11.29 -5.51 0.26 0.26 0 0 1 0 -0.37 0.27 0.27 0 0 1 0.37 0 21.55 21.55 0 0 0 11 5.39 15.75 15.75 0 0 0 1.81 0.14 0.25 0.25 0 0 1 0.25 0.27 0.26 0.26 0 0 1 -0.27 0.23zm5.16-0.81a0.27 0.27 0 0 1 -0.25 -0.18 0.26 0.26 0 0 1 0.17 -0.33c4.69-1.58 9.1-5.42 12.75-11.1a49.27 49.27 0 0 0 5.72 -12.74 0.26 0.26 0 0 1 0.32 -0.18 0.27 0.27 0 0 1 0.18 0.33 49.6 49.6 0 0 1 -5.78 12.87c-3.72 5.79-8.22 9.7-13 11.32l-0.11 0.01zm-21.86-8.5a0.25 0.25 0 0 1 -0.19 -0.09c-0.46-0.53-0.91-1.08-1.34-1.64a0.26 0.26 0 0 1 0 -0.36 0.27 0.27 0 0 1 0.37 0c0.43 0.56 0.88 1.1 1.32 1.61a0.26 0.26 0 0 1 0 0.37 0.24 0.24 0 0 1 -0.16 0.11zm-10.63-20.32a0.26 0.26 0 0 1 -0.25 -0.19 67.77 67.77 0 0 1 -2.6 -14.35c-0.12-1.74-0.19-3.49-0.19-5.2a67.47 67.47 0 0 1 1 -11.74 0.29 0.29 0 0 1 0.31 -0.21 0.27 0.27 0 0 1 0.21 0.31 66.24 66.24 0 0 0 -1 11.64c0 1.7 0.06 3.44 0.18 5.16a67.59 67.59 0 0 0 2.59 14.25 0.26 0.26 0 0 1 -0.18 0.32l-0.07 0.01zm53.55-16a0.28 0.28 0 0 1 -0.27 -0.26c0-0.69-0.06-1.39-0.11-2.09a0.27 0.27 0 0 1 0.24 -0.28 0.26 0.26 0 0 1 0.28 0.25q0.07 1.05 0.12 2.1a0.27 0.27 0 0 1 -0.25 0.28h-0.01zm-0.68-7.32a0.26 0.26 0 0 1 -0.26 -0.22 67.66 67.66 0 0 0 -3 -12.18 0.26 0.26 0 1 1 0.49 -0.17 67 67 0 0 1 3 12.27 0.27 0.27 0 0 1 -0.22 0.3h-0.01zm-53.5-13h-0.07a0.26 0.26 0 0 1 -0.18 -0.32 51.27 51.27 0 0 1 4.7 -11.72 0.26 0.26 0 0 1 0.35 -0.11 0.26 0.26 0 0 1 0.1 0.36 51.4 51.4 0 0 0 -4.65 11.61 0.26 0.26 0 0 1 -0.25 0.21v-0.03zm48.6-4.08a0.26 0.26 0 0 1 -0.24 -0.16c-5.18-11.67-13.15-19.65-21.31-21.36a0.26 0.26 0 1 1 0.11 -0.51c8.32 1.74 16.43 9.83 21.68 21.66a0.25 0.25 0 0 1 -0.13 0.34l-0.11 0.03zm-41.09-12a0.3 0.3 0 0 1 -0.16 -0.05 0.27 0.27 0 0 1 -0.06 -0.37c0.43-0.58 0.87-1.14 1.31-1.66a0.27 0.27 0 0 1 0.37 0 0.26 0.26 0 0 1 0 0.37c-0.43 0.52-0.86 1.07-1.28 1.64a0.26 0.26 0 0 1 -0.18 0.1v-0.03z" fill="#263238"/>
<path d="m253.57 228c-3.42-0.47-7.19-2.83-10.63-6.64a0.26 0.26 0 1 1 0.39 -0.35c3.36 3.71 7 6 10.31 6.47a0.26 0.26 0 0 1 0.22 0.29 0.27 0.27 0 0 1 -0.29 0.23zm-13.69-10.69a0.26 0.26 0 0 1 -0.22 -0.12c-0.38-0.57-0.77-1.17-1.14-1.78a0.26 0.26 0 1 1 0.45 -0.27c0.37 0.6 0.74 1.19 1.13 1.76a0.26 0.26 0 0 1 -0.07 0.36 0.3 0.3 0 0 1 -0.15 0v0.05zm28.84-0.72h-0.12a0.27 0.27 0 0 1 -0.11 -0.36c0.33-0.6 0.65-1.22 0.95-1.85a0.27 0.27 0 0 1 0.35 -0.13 0.28 0.28 0 0 1 0.13 0.36c-0.31 0.64-0.64 1.27-1 1.87a0.27 0.27 0 0 1 -0.2 0.06v0.05zm2.95-6.72h-0.09a0.26 0.26 0 0 1 -0.16 -0.34 53.83 53.83 0 0 0 2.58 -12.29 0.26 0.26 0 0 1 0.28 -0.24 0.27 0.27 0 0 1 0.24 0.29 54.34 54.34 0 0 1 -2.61 12.35 0.27 0.27 0 0 1 -0.24 0.18v0.05zm-40.07-13.99a0.27 0.27 0 0 1 -0.26 -0.22c-0.33-2-0.57-4-0.71-6-0.12-1.59-0.18-3.2-0.18-4.77a56.13 56.13 0 0 1 3.64 -20.4 0.27 0.27 0 0 1 0.34 -0.15 0.26 0.26 0 0 1 0.15 0.34 55.56 55.56 0 0 0 -3.6 20.21c0 1.56 0.06 3.15 0.17 4.74 0.14 2 0.38 4 0.71 5.91a0.25 0.25 0 0 1 -0.21 0.3l-0.05 0.04zm42.95-3.59a0.27 0.27 0 0 1 -0.26 -0.27v-0.71c0-1.55-0.06-3.14-0.17-4.73a58 58 0 0 0 -7.34 -24.58 0.26 0.26 0 0 1 0.1 -0.36 0.25 0.25 0 0 1 0.35 0.1 58.6 58.6 0 0 1 7.41 24.85c0.11 1.59 0.17 3.2 0.17 4.76v0.65a0.26 0.26 0 0 1 -0.26 0.29zm-38-32.17h-0.12a0.26 0.26 0 0 1 -0.11 -0.35c0.35-0.64 0.72-1.27 1.09-1.88a24.74 24.74 0 0 1 7.09 -7.71 0.27 0.27 0 0 1 0.37 0.08 0.26 0.26 0 0 1 -0.08 0.36 24 24 0 0 0 -6.93 7.55c-0.37 0.59-0.73 1.22-1.08 1.85a0.25 0.25 0 0 1 -0.23 0.1zm15.05-11.32a8.44 8.44 0 0 0 -1.74 -0.05h-0.29a0.27 0.27 0 1 1 0 -0.53h0.3a8.81 8.81 0 0 1 1.85 0.05 0.26 0.26 0 0 1 0 0.52l-0.12 0.01z" fill="#263238"/>
<path d="m324.29 183c-3.44-48.16-35.42-85.11-71.43-82.53-1.21 0.08-2.41 0.22-3.6 0.39h-0.08c-36 2.58-62.41 43.7-59 91.86s35.43 85.11 71.44 82.54c1.21-0.09 2.41-0.22 3.59-0.4h0.08c36.04-2.59 62.45-43.72 59-91.86zm-11.41 1.17c0.72 10.35-4.38 19.31-11.71 21.31-7.95-0.39-14.76-8.83-15.51-19.62-0.71-10.35 4.39-19.31 11.72-21.3 7.95 0.37 14.75 8.8 15.5 19.59v0.02zm-32.88-64.32c7.75 5.29 11.08 17.79 7.44 27.91-2.08 5.75-5.95 9.49-10.34 10.69a13 13 0 0 1 -6.63 -2.34c-7.75-5.29-11.08-17.78-7.43-27.9 2.07-5.75 6-9.5 10.33-10.69a12.86 12.86 0 0 1 6.63 2.33zm-28.19 82a4.69 4.69 0 0 1 0.1 -2.78 3.63 3.63 0 0 1 0.39 -0.79 4.55 4.55 0 0 1 0.89 4.56 4.15 4.15 0 0 1 -0.39 0.79 3.92 3.92 0 0 1 -1.01 -1.78h0.02zm3-13.9a6.18 6.18 0 0 1 2 -5.29 6.07 6.07 0 0 1 2.93 5.07 6.2 6.2 0 0 1 -2 5.29 6.1 6.1 0 0 1 -2.95 -5.02l0.02-0.05zm7.93-14.12a4.77 4.77 0 0 1 -0.1 2.78 4.15 4.15 0 0 1 -0.39 0.79 4.55 4.55 0 0 1 -0.89 -4.56 3.87 3.87 0 0 1 0.39 -0.79 4 4 0 0 1 0.97 1.78h0.02zm-61.1 17.7c-0.71-10.35 4.39-19.31 11.72-21.31 8 0.39 14.75 8.83 15.5 19.62 0.72 10.35-4.38 19.31-11.71 21.3-7.97-0.39-14.78-8.82-15.53-19.61h0.02zm32.9 64.3c-7.75-5.29-11.08-17.79-7.43-27.91 2.07-5.75 6-9.49 10.34-10.69a13 13 0 0 1 6.63 2.34c7.75 5.29 11.08 17.78 7.43 27.9-2.07 5.76-5.95 9.5-10.34 10.69a12.92 12.92 0 0 1 -6.65 -2.33h0.02zm16.63-82.15a4.81 4.81 0 0 1 0.48 2.74 4 4 0 0 1 -0.62 1.73 3.3 3.3 0 0 1 -0.63 -0.86 4.65 4.65 0 0 1 -0.48 -2.74 4 4 0 0 1 0.62 -1.73 3.54 3.54 0 0 1 0.61 0.86h0.02zm-4.06 14.92a4.28 4.28 0 0 1 -0.64 2.65 4.47 4.47 0 0 1 -0.5 -5.32 4.22 4.22 0 0 1 1.12 2.67h0.02zm-3.77-58.91c5 9.53 3.44 22.36-3.51 28.64a13 13 0 0 1 -5.33 3c-4.84-0.24-9.61-3.47-12.65-9.26-5-9.54-3.44-22.36 3.51-28.65a13.2 13.2 0 0 1 5.33 -3c4.82 0.25 9.59 3.47 12.63 9.27h0.02zm20 72.32a4.62 4.62 0 0 1 0.14 -4.48 3.54 3.54 0 0 1 0.63 0.86 4.65 4.65 0 0 1 0.48 2.74 4 4 0 0 1 -0.62 1.73 3.68 3.68 0 0 1 -0.61 -0.86l-0.02 0.01zm4.06-14.93a4.36 4.36 0 0 1 0.63 -2.65 4.16 4.16 0 0 1 1.14 2.68 4.38 4.38 0 0 1 -0.63 2.65 4.16 4.16 0 0 1 -1.12 -2.68h-0.02zm3.78 58.92c-5-9.53-3.43-22.36 3.52-28.64a13 13 0 0 1 5.33 -3c4.83 0.24 9.6 3.47 12.65 9.26 5 9.54 3.43 22.36-3.52 28.65a13.08 13.08 0 0 1 -5.33 3c-4.83-0.27-9.6-3.48-12.65-9.27z" fill="#FC472A"/>
<path d="m252.86 100.45c-36 2.57-62.42 43.7-59 91.85s35.42 85.11 71.43 82.54 62.42-43.7 59-91.86-35.42-85.11-71.43-82.53zm10.14 27.76c3.64-10.13 12.88-14 20.64-8.75s11.08 17.78 7.43 27.9-12.89 14-20.64 8.75-11.06-17.78-7.43-27.9zm9.85 58.5c0.14 2-1 3.72-2.47 3.83-1.5 0.1-2.83-1.45-3-3.46s1-3.72 2.46-3.83 2.89 1.45 3.03 3.46h-0.02zm-11.53-13.87a2.71 2.71 0 0 1 2.22 -2 2.28 2.28 0 0 1 1.42 0.41 3.77 3.77 0 0 1 1.41 2.15 4.7 4.7 0 0 1 -0.1 2.78 2.7 2.7 0 0 1 -2.22 1.95 2.16 2.16 0 0 1 -1.42 -0.41 4.4 4.4 0 0 1 -1.29 -4.88h-0.02zm-6.52 0.44a4.66 4.66 0 0 1 0.48 2.74 3.69 3.69 0 0 1 -1.1 2.31 2.19 2.19 0 0 1 -1.34 0.6 2.72 2.72 0 0 1 -2.48 -1.64 4.65 4.65 0 0 1 -0.48 -2.74 3.69 3.69 0 0 1 1.1 -2.31 2.22 2.22 0 0 1 1.33 -0.6 2.72 2.72 0 0 1 2.51 1.64h-0.02zm-29.46-49.88c7-6.28 16.65-3.65 21.66 5.89s3.43 22.36-3.52 28.64-16.64 3.65-21.65-5.88-3.44-22.36 3.51-28.65zm25.42 64.81c0.14 2-1 3.72-2.46 3.82-1.5 0.11-2.84-1.45-3-3.46s1-3.72 2.47-3.82 2.85 1.45 2.99 3.46zm-49.13 3.32c-0.8-11.41 5.48-21.12 14-21.7s16.08 8.2 16.88 19.61-5.49 21.12-14 21.7-16.09-8.2-16.88-19.61zm53.53 55.55c-3.64 10.12-12.88 14-20.64 8.75s-11.08-17.79-7.43-27.91 12.89-14 20.64-8.75 11.08 17.83 7.43 27.91zm1.68-44.63a2.72 2.72 0 0 1 -2.22 1.95 2.23 2.23 0 0 1 -1.42 -0.41 3.71 3.71 0 0 1 -1.41 -2.14 4.69 4.69 0 0 1 0.1 -2.78 2.71 2.71 0 0 1 2.22 -2 2.28 2.28 0 0 1 1.42 0.41 4.41 4.41 0 0 1 1.31 4.97zm-2-14.5c-0.22-3.17 1.52-5.88 3.89-6s4.48 2.26 4.71 5.44-1.52 5.88-3.89 6-4.55-2.27-4.76-5.39l0.05-0.05zm8.52 14.05a4.42 4.42 0 0 1 0.64 -5 2.25 2.25 0 0 1 1.34 -0.6 2.72 2.72 0 0 1 2.46 1.6 4.66 4.66 0 0 1 0.48 2.74 3.64 3.64 0 0 1 -1.1 2.31 2.19 2.19 0 0 1 -1.33 0.6 2.73 2.73 0 0 1 -2.49 -1.65zm29.48 49.87c-6.95 6.29-16.65 3.65-21.66-5.89s-3.43-22.36 3.52-28.64 16.64-3.65 21.65 5.89 3.44 22.37-3.51 28.65v-0.01zm9.7-46.43c-8.53 0.58-16.08-8.2-16.88-19.61s5.49-21.12 14-21.69 16.08 8.2 16.87 19.6-5.46 21.13-13.99 21.71v-0.01z" fill="#fafafa" opacity=".2"/>
<path d="m32.22 139.7l-1.91 1.57c-0.66 0.54-1.31 1.1-1.94 1.66-1.26 1.11-2.49 2.25-3.56 3.4a17.89 17.89 0 0 0 -2.5 3.21 5.57 5.57 0 0 0 -0.3 0.55c-0.05 0.09 0 0.12-0.08 0.18v-0.06a0.43 0.43 0 0 0 0 -0.16 0.65 0.65 0 0 0 0 -0.21c-0.11-0.38 0 0.16 0.22 0.67a22 22 0 0 0 2.57 3.81c1.06 1.33 2.25 2.65 3.45 4 2.43 2.63 5 5.26 7.6 7.84l-3.15 4.25a80 80 0 0 1 -9.68 -6.41 57.25 57.25 0 0 1 -4.53 -3.84 27.8 27.8 0 0 1 -4.31 -5 13.44 13.44 0 0 1 -1 -1.83 9.16 9.16 0 0 1 -0.74 -2.69 8.76 8.76 0 0 1 -0.05 -0.91v-0.51-0.25-0.15c0.06-0.4 0.11-0.83 0.2-1.19a14.63 14.63 0 0 1 0.63 -2.08 23.88 23.88 0 0 1 3.66 -6.06 43.49 43.49 0 0 1 4.36 -4.49c0.75-0.69 1.51-1.36 2.29-2s1.54-1.23 2.49-1.89l6.28 8.59z" fill="#ffc3bd"/>
<path d="m45.57 128.2c0.31 6.33-13.48 15.51-13.48 15.51l-12.48-9.37a27.1 27.1 0 0 1 9.94 -9.64c7.38-4.29 15.7-2.98 16.02 3.5z" fill="#FC472A"/>
<path d="m45.57 128.2c0.13 2.66-2.23 5.83-5 8.61a62.64 62.64 0 0 1 -6.68 5.65c-1.08 0.78-1.78 1.26-1.78 1.26l-9.39-7.06-3.08-2.32s0.09-0.17 0.27-0.47a28 28 0 0 1 9.66 -9.17c7.37-4.3 15.68-2.97 16 3.5z" fill="#fafafa" opacity=".6"/>
<polygon points="19.61 132.82 33.78 143.71 31.43 146.25 18.28 135.03" fill="#FC472A"/>
<path d="m40.55 136.81a62.64 62.64 0 0 1 -6.68 5.65c-0.4-4.45 2.22-9.64 2.22-9.64a19.51 19.51 0 0 1 4.46 3.99z" opacity=".2"/>
<path d="m35.74 166.15s3.92 5.56 3.33 7.83a34.89 34.89 0 0 1 -2.59 5.93l-6.37 0.76 2.12-5.56 0.36-5.44 3.15-3.52z" fill="#ffc3bd"/>
<polygon points="5.49 344.55 11.94 345.94 18.41 331.72 11.96 330.33" fill="#ffc3bd"/>
<polygon points="53.88 347.6 60.47 347.6 61.13 332.33 54.54 332.33" fill="#ffc3bd"/>
<polygon points="61.13 332.34 60.79 340.2 54.19 340.2 54.53 332.34" opacity=".2"/>
<polygon points="11.96 330.33 18.41 331.73 15.07 339.06 8.62 337.66" opacity=".2"/>
<path d="m58.6 179.91s0 0.29-0.12 0.82-0.23 1.48-0.39 2.63c-1.26 8.29-4.58 30-7.62 47.54-1.25 7.17-2.45 13.66-3.46 18.26-4.5 20.68-28.62 89-28.62 89l-11.8-2.55s16.87-55.67 20.64-84.61c2.44-18.65 6.86-56.18 8.21-67.68 0.13-1.15 0.23-2 0.3-2.63s0.1-0.82 0.1-0.82l22.76 0.04z" fill="#263238"/>
<path d="m58.6 179.91s0 0.29-0.12 0.82-0.23 1.48-0.39 2.63c-1.26 8.29-4.58 30-7.62 47.54-1.25 7.17-2.45 13.66-3.46 18.26-4.5 20.68-28.62 89-28.62 89l-11.8-2.55s16.87-55.67 20.64-84.61c2.44-18.65 6.86-56.18 8.21-67.68 0.13-1.15 0.23-2 0.3-2.63s0.1-0.82 0.1-0.82l22.76 0.04z" fill="#fafafa" opacity=".2"/>
<path d="m53.87 197.86c-8.65 1.7-7.74 34-6.7 50.55 2.5-11.73 6.15-34.3 8.65-50.32a3 3 0 0 0 -1.95 -0.23z" opacity=".3"/>
<path d="m71.3 249.3c-0.75 20.91-8.05 89.38-8.05 89.38h-11.17s-0.41-67.25-0.91-87.79c-0.12-5.45-0.39-12.48-0.7-20-0.79-18.29-1.91-39.41-2.36-47.54 0-1.15-0.1-2-0.13-2.63s0-0.82 0-0.82h23.18s0 0.29 0 0.82 0 1.48 0 2.63c0.2 11.53 0.74 49.05 0.14 65.95z" fill="#263238"/>
<path d="m71.3 249.3c-0.75 20.91-8.05 89.38-8.05 89.38h-11.17s-0.41-67.25-0.91-87.79c-0.12-5.45-0.39-12.48-0.7-20-0.79-18.29-1.91-39.41-2.36-47.54 0-1.15-0.1-2-0.13-2.63s0-0.82 0-0.82h23.18s0 0.29 0 0.82 0 1.48 0 2.63c0.2 11.53 0.74 49.05 0.14 65.95z" fill="#fafafa" opacity=".2"/>
<path d="m61.91 96.89c0.11 0.52 0.47 0.89 0.81 0.82s0.53-0.55 0.43-1.07-0.47-0.89-0.81-0.82-0.53 0.55-0.43 1.07z" fill="#263238"/>
<path d="m62.33 97.79a19.22 19.22 0 0 0 3.4 4 3 3 0 0 1 -2.39 1l-1.01-5z" fill="#ed847e"/>
<path d="m59.42 94.39a0.29 0.29 0 0 1 -0.21 -0.09 0.3 0.3 0 0 1 0 -0.44 3.08 3.08 0 0 1 2.66 -1 0.31 0.31 0 0 1 -0.11 0.61 2.49 2.49 0 0 0 -2.09 0.85 0.34 0.34 0 0 1 -0.25 0.07z" fill="#263238"/>
<path d="m47.07 104.22c1 4.82 1.89 13.66-1.48 16.88 0 0 1.31 4.89 10.28 4.89 9.85 0 4.7-4.89 4.7-4.89-5.37-1.28-5.23-5.27-4.3-9l-9.2-7.88z" fill="#ffc3bd"/>
<path d="m43.64 122c-0.72-1.34-1.51-2.87 0.13-3.35 1.8-0.53 13.4-1.51 16.81-0.52-1.05 1.87 0.72 4.15 0.72 4.15l-17.66-0.28z" fill="#FC472A"/>
<path d="m14.45 346.83a2.14 2.14 0 0 0 1.64 -0.09 0.63 0.63 0 0 0 0.15 -0.72 0.71 0.71 0 0 0 -0.4 -0.46c-0.89-0.43-2.94 0.4-3 0.44a0.15 0.15 0 0 0 -0.1 0.14 0.16 0.16 0 0 0 0.09 0.15 8 8 0 0 0 1.62 0.54zm1.07-1.05a0.48 0.48 0 0 1 0.18 0.06 0.39 0.39 0 0 1 0.24 0.26c0.08 0.29 0 0.37 0 0.4-0.36 0.3-1.67 0-2.6-0.34a5 5 0 0 1 2.18 -0.38z" fill="#FC472A"/>
<path d="m12.84 346.3h0.08c0.74-0.21 2.34-1.35 2.36-2.09a0.53 0.53 0 0 0 -0.4 -0.51 0.84 0.84 0 0 0 -0.69 0.06c-0.88 0.45-1.44 2.27-1.46 2.35a0.14 0.14 0 0 0 0 0.15 0.18 0.18 0 0 0 0.11 0.04zm1.87-2.3h0.07c0.19 0.06 0.19 0.16 0.19 0.2 0 0.44-1.07 1.33-1.84 1.69a3.72 3.72 0 0 1 1.2 -1.86 0.57 0.57 0 0 1 0.38 -0.03z" fill="#FC472A"/>
<path d="m63.12 347.94c0.85 0 1.66-0.12 1.94-0.5a0.59 0.59 0 0 0 0 -0.68 0.78 0.78 0 0 0 -0.49 -0.37c-1.1-0.3-3.4 1-3.5 1.07a0.16 0.16 0 0 0 -0.08 0.16 0.16 0.16 0 0 0 0.13 0.13 10.87 10.87 0 0 0 2 0.19zm1-1.28a1.39 1.39 0 0 1 0.3 0 0.46 0.46 0 0 1 0.3 0.22c0.11 0.2 0.07 0.29 0 0.35-0.3 0.42-2 0.43-3.2 0.26a7.23 7.23 0 0 1 2.65 -0.83h-0.05z" fill="#FC472A"/>
<path d="m61.13 347.75h0.06c0.8-0.36 2.37-1.78 2.25-2.53 0-0.17-0.15-0.39-0.58-0.43a1.09 1.09 0 0 0 -0.86 0.26 4.51 4.51 0 0 0 -1 2.54 0.18 0.18 0 0 0 0.07 0.15l0.06 0.01zm1.61-2.67h0.09c0.28 0 0.3 0.14 0.31 0.17 0.07 0.45-1 1.57-1.81 2.06a3.55 3.55 0 0 1 0.87 -2 0.8 0.8 0 0 1 0.54 -0.23z" fill="#FC472A"/>
<path d="m12.56 345.29l-7.24-1.56a0.57 0.57 0 0 0 -0.65 0.32l-2.51 5.45a1 1 0 0 0 0.7 1.35c2.53 0.5 3.79 0.62 7 1.31 2 0.42 6.38 1.5 9.08 2.09s3.64-2 2.58-2.5c-4.73-2.16-6.7-4.06-8-5.83a1.65 1.65 0 0 0 -0.96 -0.63z" fill="#263238"/>
<path d="m60.43 346.84h-7.2a0.57 0.57 0 0 0 -0.56 0.45l-1.3 5.86a1 1 0 0 0 0.94 1.17c2.6-0.05 6.35-0.2 9.62-0.2 3.81 0 7.11 0.21 11.59 0.21 2.7 0 3.45-2.74 2.32-3-5.16-1.13-9.37-1.25-13.82-4a3.06 3.06 0 0 0 -1.59 -0.49z" fill="#263238"/>
<path d="m70.71 122.93s7 7.92 0.4 57h-35.27c-0.24-5.41 3.16-31.82-2.06-57.32a92.69 92.69 0 0 1 11.81 -1.49 129 129 0 0 1 15 0 66.39 66.39 0 0 1 10.12 1.81z" fill="#FC472A"/>
<path d="m73.94 146.25a282.59 282.59 0 0 1 -2.83 33.66h-35.27c-0.24-5.41 3.17-31.81-2.06-57.32a92.39 92.39 0 0 1 11.81 -1.49 129.16 129.16 0 0 1 15 0 65.29 65.29 0 0 1 10.14 1.83s1.32 1.49 2.28 7.22a92.94 92.94 0 0 1 0.93 16.1z" fill="#fafafa" opacity=".6"/>
<path d="m73.94 146.25c-2.95-3.1-8.08-9.3-7.64-14.5l6.7-1.6a92.94 92.94 0 0 1 0.94 16.1z" opacity=".2"/>
<path d="m44.31 99.32c1.69 6.32 2.36 10.1 6.26 12.73 5.87 4 13.17-0.58 13.4-7.28 0.21-6-2.6-15.35-9.38-16.62a8.92 8.92 0 0 0 -10.28 11.17z" fill="#ffc3bd"/>
<path d="m47.21 109.63c2.69 1.53 12.49-3.61 10.47-11.4 0 0 3.74-4.48 3.31-9.44s-3.82-6.84-7.43-5.77c-3.19 0.93-3.1 2.68-3.1 2.68s-15.06 1.77-11.85 7.9c-6.13 6.68 5.25 14.11 8.6 16.03z" fill="#263238"/>
<path d="m55.06 99.59a7.43 7.43 0 0 0 2.66 3.93c1.72 1.28 3 0 2.88-1.92-0.11-1.75-1.14-4.52-3-5s-3.03 1.09-2.54 2.99z" fill="#ffc3bd"/>
<path d="m21.22 334.28s-2.2 4.26-2.2 4.26l-13.28-2.87 1.12-4 14.36 2.61z" fill="#FC472A"/>
<path d="m65.4 334.23s-0.63 4.64-0.63 4.64h-13.59l-0.37-4.14 14.59-0.5z" fill="#FC472A"/>
<path d="m68.25 126.35c1.87-0.59 3.95-1.23 5.9-1.92s4-1.39 5.91-2.13a92.61 92.61 0 0 0 11.19 -5 44.62 44.62 0 0 0 9.39 -7.11 116.53 116.53 0 0 0 8.58 -9.16l4.54 2.71a61.34 61.34 0 0 1 -7.06 11.84 49.3 49.3 0 0 1 -4.66 5.32c-0.85 0.86-1.77 1.67-2.71 2.47s-2 1.58-3 2.2a59.84 59.84 0 0 1 -6.06 3.59c-2.05 1.1-4.14 2.05-6.24 3s-4.22 1.73-6.36 2.48-4.25 1.45-6.59 2l-2.83-10.29z" fill="#ffc3bd"/>
<path d="m67.81 137.64c6.33 6.51 22.21-2.37 22.21-2.37l-4.72-15.27a85.8 85.8 0 0 0 -16.51 2.1c-9.79 2.39-5.79 10.58-0.98 15.54z" fill="#FC472A"/>
<path d="m67.81 137.64c6.33 6.51 22.21-2.37 22.21-2.37l-4.72-15.27a85.8 85.8 0 0 0 -16.51 2.1c-9.79 2.39-5.79 10.58-0.98 15.54z" fill="#fafafa" opacity=".6"/>
<path d="m108.76 101.82l4.12-7.14 5.59 4.55s-2.18 5.4-7 5.34l-2.71-2.75z" fill="#ffc3bd"/>
<polygon points="115.86 93.12 121.18 95.96 118.42 99.34 112.88 94.68" fill="#ffc3bd"/>
<path d="m21.22 334.28s-2.2 4.26-2.2 4.26l-13.28-2.87 1.12-4 14.36 2.61z" fill="#fafafa" opacity=".6"/>
<path d="m65.4 334.23s-0.63 4.64-0.63 4.64h-13.59l-0.37-4.14 14.59-0.5z" fill="#fafafa" opacity=".6"/>
<polygon points="83.71 119.6 88.19 138.2 91.19 135.69 85.97 119.05" fill="#FC472A"/>
<rect x="40.09" y="180.73" width="12.32" height="2.63" fill="#263238"/>
<rect x="54.03" y="180.73" width="11.44" height="2.63" fill="#263238"/>
<path d="m39 180.73v2.63h-3.57c0.13-1.15 0.23-2 0.3-2.63h3.27z" fill="#263238"/>
<path d="m71.17 183.36h-4.59v-2.63h4.54c0.02 0.59 0.03 1.48 0.05 2.63z" fill="#263238"/>
<path d="m60.61 83.73c-5.66-5.74-11.09 2.1-11.09 2.1l9.59-0.93c4.42 2.23 2.36 7.65 2.36 7.65s3.76-4.13-0.86-8.82z" fill="#263238"/>
</g>
</svg>
