<?xml version="1.0" encoding="UTF-8"?>
<svg viewBox="0 0 380 320" xmlns="http://www.w3.org/2000/svg">
<g>
<title>Layer 1</title>
<path d="m373 168.32c10.09 46-18.09 75.72-57.11 74.34-18.71-0.66-41.05-21.23-59.42-25.81-24-6-44.76 1.77-67.69 2.91-57.05 2.82-56.3-20.46-94.74-50.48-27-21.1-70.57-18.79-85-55.74-17.68-45.17 33-67 71.5-60.3 44.24 7.68 56.49-47.4 124.06-41.3 66.4 6 154.19 87.06 168.4 156.38z" fill="#FF725E"/>
<path d="m373 168.32c10.09 46-18.09 75.72-57.11 74.34-18.71-0.66-41.05-21.23-59.42-25.81-24-6-44.76 1.77-67.69 2.91-57.05 2.82-56.3-20.46-94.74-50.48-27-21.1-70.57-18.79-85-55.74-17.68-45.17 33-67 71.5-60.3 44.24 7.68 56.49-47.4 124.06-41.3 66.4 6 154.19 87.06 168.4 156.38z" fill="#fff" opacity=".9"/>
<path d="m209.41 268.5h-127.57a8.13 8.13 0 0 1-8-7.64l-11.44-221.55a7.17 7.17 0 0 1 7.24-7.63h127.57a8.12 8.12 0 0 1 8 7.63l11.42 221.55a7.18 7.18 0 0 1-7.22 7.64z" fill="#FF725E"/>
<path d="m209.41 268.5h-127.57a8.13 8.13 0 0 1-8-7.64l-11.44-221.55a7.17 7.17 0 0 1 7.24-7.63h127.57a8.12 8.12 0 0 1 8 7.63l11.42 221.55a7.18 7.18 0 0 1-7.22 7.64z" fill="#fff" opacity=".8"/>
<rect x="170.51" y="24.46" width="14.11" height="1" fill="#FF725E"/>
<rect x="160.45" y="24.46" width="5.17" height="1" fill="#FF725E"/>
<path d="m214.9 254.44h-122a7.77 7.77 0 0 1-7.68-7.29l-10.92-211.9a6.86 6.86 0 0 1 6.93-7.3h122a7.77 7.77 0 0 1 7.67 7.3l10.92 211.9a6.85 6.85 0 0 1-6.92 7.29z" fill="#FF725E"/>
<path d="m214.9 249.57h-122a2.92 2.92 0 0 1-2.81-2.68l-10.93-211.89a2 2 0 0 1 0.54-1.55 2 2 0 0 1 1.52-0.62h122a2.92 2.92 0 0 1 2.8 2.68l10.98 211.89a2 2 0 0 1-2.05 2.17h-0.05zm-133.68-216.49a1.79 1.79 0 0 0-1.34 0.54 1.84 1.84 0 0 0-0.47 1.37l10.92 211.89a2.67 2.67 0 0 0 2.56 2.44h122a1.74 1.74 0 0 0 1.33-0.54 1.76 1.76 0 0 0 0.47-1.37l-10.91-211.89a2.66 2.66 0 0 0-2.55-2.44h-122.01z" fill="#fff"/>
<ellipse transform="rotate(-45.74 -121.12 97.99)" cx="74.97" cy="278.6" rx="36" ry="37.9" fill="#fff" opacity=".3"/>
<path d="m175 83.61a28.71 28.71 0 0 1-2.87 14.24 28.07 28.07 0 0 1-25.47 15.65 31.75 31.75 0 0 1-27.08-15.65 30.78 30.78 0 0 1-4.34-14.24 28.09 28.09 0 0 1 28.34-29.88 31.81 31.81 0 0 1 31.42 29.88z" fill="#fff"/>
<path d="m172.1 97.85a28.07 28.07 0 0 1-25.47 15.65 31.75 31.75 0 0 1-27.08-15.65 45.16 45.16 0 0 1 25.86-8 49.14 49.14 0 0 1 26.69 8z" fill="#FF725E"/>
<ellipse transform="rotate(-45.74 -113.95 94.52)" cx="81.61" cy="264.91" rx="12.97" ry="13.66" fill="#FF725E"/>
<path d="m197.41 172h-95.53a3.29 3.29 0 0 1-3.25-3.09l-0.72-14a2.9 2.9 0 0 1 2.93-3.08h95.53a3.29 3.29 0 0 1 3.25 3.08l0.72 14a2.9 2.9 0 0 1-2.93 3.09z" fill="#fff"/>
<path d="m168.16 144.1h-39.9a3.29 3.29 0 0 1-3.26-3.1l-0.15-3a2.9 2.9 0 0 1 2.93-3.09h39.89a3.29 3.29 0 0 1 3.25 3.09l0.16 3a2.92 2.92 0 0 1-2.92 3.1z" opacity=".3"/>
<path d="m183 239.31h-59.77a5.61 5.61 0 0 1-5.53-5.26l-0.35-6.9a5 5 0 0 1 5-5.26h59.75a5.61 5.61 0 0 1 5.53 5.26l0.35 6.9a5 5 0 0 1-4.98 5.26z" opacity=".3"/>
<path d="m199.16 205.86h-95.54a3.3 3.3 0 0 1-3.25-3.09l-0.72-14a2.91 2.91 0 0 1 2.93-3.09h95.53a3.29 3.29 0 0 1 3.25 3.09l0.73 14a2.92 2.92 0 0 1-2.93 3.09z" fill="#fff"/>
<path d="m114 161.91a3.22 3.22 0 0 1-3.25 3.42 3.64 3.64 0 0 1-3.59-3.42 3.21 3.21 0 0 1 3.24-3.42 3.65 3.65 0 0 1 3.6 3.42z" fill="#263238"/>
<path d="m124.53 161.91a3.21 3.21 0 0 1-3.24 3.42 3.63 3.63 0 0 1-3.59-3.42 3.21 3.21 0 0 1 3.24-3.42 3.63 3.63 0 0 1 3.59 3.42z" fill="#263238"/>
<path d="m135 161.91a3.21 3.21 0 0 1-3.24 3.42 3.65 3.65 0 0 1-3.6-3.42 3.22 3.22 0 0 1 3.25-3.42 3.64 3.64 0 0 1 3.59 3.42z" fill="#263238"/>
<path d="m145.55 161.91a3.22 3.22 0 0 1-3.24 3.42 3.65 3.65 0 0 1-3.6-3.42 3.22 3.22 0 0 1 3.24-3.42 3.65 3.65 0 0 1 3.6 3.42z" fill="#263238"/>
<path d="m115.77 195.75a3.21 3.21 0 0 1-3.24 3.42 3.65 3.65 0 0 1-3.6-3.42 3.22 3.22 0 0 1 3.25-3.42 3.64 3.64 0 0 1 3.59 3.42z" fill="#263238"/>
<path d="m126.28 195.75a3.22 3.22 0 0 1-3.24 3.42 3.65 3.65 0 0 1-3.6-3.42 3.21 3.21 0 0 1 3.24-3.42 3.65 3.65 0 0 1 3.6 3.42z" fill="#263238"/>
<path d="m136.79 195.75a3.22 3.22 0 0 1-3.25 3.42 3.63 3.63 0 0 1-3.59-3.42 3.21 3.21 0 0 1 3.24-3.42 3.65 3.65 0 0 1 3.6 3.42z" fill="#263238"/>
<path d="m147.29 195.75a3.21 3.21 0 0 1-3.24 3.42 3.65 3.65 0 0 1-3.6-3.42 3.22 3.22 0 0 1 3.25-3.42 3.63 3.63 0 0 1 3.59 3.42z" fill="#263238"/>
<path d="m157.8 195.75a3.21 3.21 0 0 1-3.24 3.42 3.65 3.65 0 0 1-3.6-3.42 3.22 3.22 0 0 1 3.24-3.42 3.65 3.65 0 0 1 3.6 3.42z" fill="#263238"/>
<path d="m168.31 195.75a3.22 3.22 0 0 1-3.25 3.42 3.64 3.64 0 0 1-3.59-3.42 3.21 3.21 0 0 1 3.24-3.42 3.65 3.65 0 0 1 3.6 3.42z" fill="#263238"/>
<path d="m282 79.62c0.25 0.38 0.38 0.58 0.54 0.85l0.45 0.74c0.29 0.5 0.55 1 0.8 1.49 0.5 1 1 2 1.4 3a55.2 55.2 0 0 1 2.16 6.09 63.77 63.77 0 0 1 2.38 12.54l0.07 0.79a4.59 4.59 0 0 1 0 0.48v0.53a12.79 12.79 0 0 1-0.12 2.08 17.14 17.14 0 0 1-1 3.73 25.81 25.81 0 0 1-3.46 6 42.89 42.89 0 0 1-9.31 8.81l-2.76-3.23a57.35 57.35 0 0 0 6.64-9.19 21 21 0 0 0 2-4.72 9.53 9.53 0 0 0 0.33-2.14 4.69 4.69 0 0 0 0-0.93v-0.21a1.3 1.3 0 0 0 0-0.28l-0.12-0.7a79.26 79.26 0 0 0-2.72-11c-0.58-1.79-1.29-3.52-2-5.21-0.35-0.85-0.75-1.68-1.15-2.48l-0.62-1.18-0.31-0.55-0.26-0.44 7.06-4.87z" fill="#803e3c"/>
<path d="m272.7 126.77 3.62 7.65 2.87-6.47s-2.55-5.6-6-5.08l-0.49 3.9z" fill="#7f3e3b"/>
<polygon points="278.91 134.8 281.79 130.08 279.19 127.95 276.32 134.42" fill="#7f3e3b"/>
<path d="m262.63 311.22a10.27 10.27 0 0 0 2.22-0.3 0.22 0.22 0 0 0 0.15-0.16 0.2 0.2 0 0 0-0.09-0.2c-0.29-0.19-2.83-1.83-3.81-1.39a0.68 0.68 0 0 0-0.39 0.56 1.13 1.13 0 0 0 0.33 1 2.37 2.37 0 0 0 1.59 0.49zm1.65-0.59c-1.45 0.3-2.55 0.25-3-0.14a0.77 0.77 0 0 1-0.21-0.71c0-0.17 0.1-0.22 0.17-0.25 0.54-0.24 2.01 0.47 3.04 1.1z" fill="#FF725E"/>
<path d="m264.8 310.92h0.1a0.22 0.22 0 0 0 0.1-0.18c0-0.1 0-2.51-0.92-3.32a1.05 1.05 0 0 0-0.84-0.26 0.69 0.69 0 0 0-0.67 0.55c-0.19 0.95 1.33 2.75 2.13 3.21h0.1zm-1.43-3.39a0.61 0.61 0 0 1 0.44 0.17 4.53 4.53 0 0 1 0.78 2.64c-0.8-0.64-1.75-2-1.63-2.57 0-0.09 0.07-0.21 0.32-0.24h0.09z" fill="#FF725E"/>
<path d="m253.19 307.14a0.21 0.21 0 0 0-0.14-0.34c-0.41 0-4-0.17-4.82 0.71v0.06a0.63 0.63 0 0 0-0.09 0.62 1.11 1.11 0 0 0 0.73 0.73c1.16 0.36 3.21-0.95 4.33-1.76l-0.01-0.02zm-4.66 0.63c0.45-0.48 2.43-0.61 3.91-0.59-1.55 1.06-2.84 1.56-3.49 1.36a0.72 0.72 0 0 1-0.48-0.48 0.27 0.27 0 0 1 0-0.25l0.06-0.04z" fill="#FF725E"/>
<path d="m253.19 307.14a0.23 0.23 0 0 0 0-0.2c-0.05-0.08-1.17-2-2.49-2.4a1.45 1.45 0 0 0-1.14 0.14c-0.48 0.28-0.51 0.61-0.45 0.82 0.26 0.93 2.81 1.75 3.91 1.74a0.2 0.2 0 0 0 0.17-0.1zm-3.59-2a0.84 0.84 0 0 1 0.19-0.14 1 1 0 0 1 0.84-0.11c0.87 0.23 1.68 1.35 2.05 1.9-1.19-0.13-3-0.86-3.15-1.42a0.23 0.23 0 0 1 0.07-0.24v0.01z" fill="#FF725E"/>
<path d="m264.2 50.33c-1 5-3.16 15.81 0.31 19.13 0 0-1.36 5-10.59 5-10.16 0-4.85-5-4.85-5 5.54-1.32 5.4-5.44 4.43-9.3l10.7-9.83z" fill="#7f3e3b"/>
<path d="m247.28 38.61a0.53 0.53 0 0 0 0.17 0 0.4 0.4 0 0 0 0.18-0.54 3.94 3.94 0 0 0-2.88-2.2 0.41 0.41 0 0 0-0.44 0.35 0.4 0.4 0 0 0 0.35 0.44 3.14 3.14 0 0 1 2.26 1.77 0.4 0.4 0 0 0 0.36 0.18z" fill="#263238"/>
<path d="m244.25 43a18.26 18.26 0 0 1-2.92 4 2.91 2.91 0 0 0 2.33 0.74l0.59-4.74z" fill="#630f0f"/>
<path d="m245 41.87c-0.08 0.67-0.51 1.17-0.94 1.12s-0.73-0.64-0.65-1.31 0.51-1.17 1-1.12 0.66 0.64 0.59 1.31z" fill="#263238"/>
<path d="m244.54 40.62-1.54-0.62s0.65 1.32 1.54 0.62z" fill="#263238"/>
<polygon points="262.02 305.24 253.86 307.14 248.9 288.38 257.06 286.48" fill="#7f3e3b"/>
<polygon points="274.54 310.72 266.17 310.72 266.82 291.33 275.2 291.33" fill="#7f3e3b"/>
<path d="m265.5 309.75h9.41a0.67 0.67 0 0 1 0.67 0.58l1.07 7.44a1.34 1.34 0 0 1-1.34 1.49c-3.28-0.05-4.86-0.25-9-0.25-2.55 0-6.27 0.27-9.78 0.27s-3.71-3.48-2.24-3.79c6.56-1.42 7.6-3.36 9.81-5.22a2.17 2.17 0 0 1 1.4-0.52z" fill="#263238"/>
<path d="m253.14 305.89 8.55-3.93a0.66 0.66 0 0 1 0.84 0.24l4.09 6.32a1.35 1.35 0 0 1-0.6 1.91c-3 1.32-4.52 1.81-8.28 3.54-2.31 1.06-7 3.5-10.18 5s-4.82-1.61-3.62-2.51c5.37-4 6.91-6.87 8.14-9.48a2.14 2.14 0 0 1 1.06-1.09z" fill="#263238"/>
<polygon points="248.9 288.38 251.56 298.44 259.62 296.15 257.07 286.48" opacity=".2"/>
<polygon points="275.2 291.33 266.82 291.33 266.49 301.33 274.87 301.33" opacity=".2"/>
<path d="m279 71.36c3.48 0.77 7.2 13.28 7.2 13.28l-9.84 10.47s-8.17-11.76-6.5-16.08c1.69-4.51 4.99-8.57 9.14-7.67z" fill="#263238"/>
<path d="m273.44 79.33c-1.76-1.61-2.95-1.13-3.76 0.15-0.8 3.72 3.94 11.51 5.85 14.46 0.88-3.52 1.89-10.94-2.09-14.61z" opacity=".4"/>
<path d="m234.91 71.61s-4 1.4 4 50.55h34c-0.57-13.84-0.59-22.38 6-50.8a100.28 100.28 0 0 0-14.45-1.9 107.4 107.4 0 0 0-15.44 0c-6.59 0.61-14.11 2.15-14.11 2.15z" fill="#263238"/>
<path d="m234.6 90.47c0.22 2.39 0.51 5.08 0.89 8.12 2.79-2.51 5.07-9.65 4.23-13.81a24.59 24.59 0 0 0-5.12 5.69z" opacity=".4"/>
<path d="m238.24 83a148.06 148.06 0 0 1-6.19 13.55 83.26 83.26 0 0 1-8 13l-0.64 0.79-0.32 0.39c-0.11 0.13-0.2 0.25-0.37 0.43a12.44 12.44 0 0 1-2 1.76 16.3 16.3 0 0 1-4.18 2.08 30.53 30.53 0 0 1-8 1.42 59.36 59.36 0 0 1-15.16-1.35l0.55-4.2c2.3 0 4.71 0 7-0.19a56.44 56.44 0 0 0 6.86-0.76 27 27 0 0 0 6.14-1.72 9.17 9.17 0 0 0 2.21-1.34 4.57 4.57 0 0 0 0.69-0.72s0.12-0.16 0.2-0.27l0.23-0.33 0.47-0.66a99.14 99.14 0 0 0 6.69-12.11c2-4.25 4-8.66 5.83-13l7.99 3.23z" fill="#803e3c"/>
<path d="m234.91 71.61c-4.17 1-9.29 12.44-9.29 12.44l8.64 12.7s11.51-14.49 10.14-18.91c-1.4-4.61-4.4-7.47-9.49-6.23z" fill="#263238"/>
<path d="m196.33 111.51-7.21-3.33-0.72 7.17s6 1.77 9 0l-1.07-3.84z" fill="#7f3e3b"/>
<polygon points="184.81 107.46 184.12 112.92 188.4 115.35 189.12 108.18" fill="#7f3e3b"/>
<path d="m267.82 42.36c-1.53 8.17-2 11.67-6.68 15.38-7 5.58-16.75 1.92-17.69-6.54-0.86-7.62 1.78-19.7 10.25-22a11.33 11.33 0 0 1 14.12 13.16z" fill="#7f3e3b"/>
<path d="m249.87 44.08c-0.47 4.17-0.65 15 8.51 15.34 11.21 0.41 14.57-9.17 13.57-13 5.84-4.75 6.68-12.92 0.12-19.17s-21-2.76-25 3.33c-5.07 7.55 2.8 13.5 2.8 13.5z" fill="#263238"/>
<path d="m261.1 29.68c-0.54-4.4-0.12-7.43 4-7.43s9.74 1.49 11.8 5.7 2.23 10.8-3.52 10.13-11.63-3.14-12.28-8.4z" fill="#FF725E"/>
<path d="m267.48 28.62c-1-5.24 3.69-20 15.08-21 5.28-0.45 7.72 5.23 5 6.17 5-0.06 8.2 6.55 3.54 7.54 3.68 2.36 2.77 7.2-2.48 9.58-3.91 1.8-19.79 4.97-21.14-2.29z" fill="#263238"/>
<path d="m279.65 34.25c-3.67 0-7.5-0.54-9.88-2.13a4.89 4.89 0 0 1-2.35-3.8 0.26 0.26 0 0 1 0.23-0.27 0.24 0.24 0 0 1 0.27 0.23 4.46 4.46 0 0 0 2.13 3.43c4.53 3 15 2 18.26 1 2.82-0.92 4.73-2.71 5.11-4.77a4.14 4.14 0 0 0-1.67-4 0.24 0.24 0 0 1 0-0.35 0.25 0.25 0 0 1 0.35 0 4.66 4.66 0 0 1 1.85 4.53c-0.41 2.25-2.44 4.17-5.44 5.15a32.69 32.69 0 0 1-8.86 0.98z" fill="#263238"/>
<path d="m247.32 43a6.15 6.15 0 0 0-1.07 4.51c0.33 2.1 2.37 2.24 3.85 0.9s2.77-3.76 1.68-5.5a2.62 2.62 0 0 0-4.46 0.09z" fill="#7f3e3b"/>
<path d="m247.89 122.16s4.86 57.49 9.91 89.89c4.07 26.17 7.29 87.34 7.29 87.34h11.42s4.06-59.34 2-85.22c-5.23-65.5 6.44-70.84-5.57-92l-25.05-0.01z" fill="#FF725E"/>
<path d="m262.27 143.89a55.8 55.8 0 0 0-10.79 16.28c1.33 12.92 2.91 27.26 4.59 39.82a110.38 110.38 0 0 0 6.2-56.1z" opacity=".4"/>
<path d="m239.9 121.8s-10.55 62.79-12.21 91.09c4.14 26.17 21.08 81.49 21.08 81.49l10.39-3.77s-5.75-60.32-12-76.83c14.07-47.37 24.41-59.35 21.4-91.62-7.21 0-28.66-0.36-28.66-0.36z" fill="#FF725E"/>
<polygon points="247.38 297.14 261.42 293.33 260.62 287.73 245.59 291.8" fill="#263238"/>
<polygon points="263.52 299.62 278.07 299.62 278.83 294.52 263.44 294" fill="#263238"/>
<path d="m273.44 120.16 1.53 3.05c0.12 0.24-0.16 0.48-0.55 0.48h-35.68c-0.3 0-0.56-0.15-0.58-0.35l-0.31-3c0-0.21 0.25-0.39 0.58-0.39h34.45a0.63 0.63 0 0 1 0.56 0.21z" fill="#FF725E"/>
<path d="m273.44 120.16 1.53 3.05c0.12 0.24-0.16 0.48-0.55 0.48h-35.68c-0.3 0-0.56-0.15-0.58-0.35l-0.31-3c0-0.21 0.25-0.39 0.58-0.39h34.45a0.63 0.63 0 0 1 0.56 0.21z" opacity=".5"/>
<path d="m268.81 124h0.92c0.19 0 0.33-0.1 0.32-0.21l-0.44-4c0-0.12-0.17-0.21-0.35-0.21h-0.93c-0.18 0-0.32 0.09-0.31 0.21l0.43 4c0.02 0.13 0.18 0.21 0.36 0.21z" fill="#FF725E"/>
<path d="m256.43 94.88a0.52 0.52 0 0 1-0.49-0.37c-3.26-12.06-10-22-13.27-23.5a1.14 1.14 0 0 0-0.85-0.14 0.5 0.5 0 1 1-0.41-0.91 2 2 0 0 1 1.68 0.14c3.46 1.64 10.3 11.44 13.72 23.77 2.45 0 6.23-0.33 7.15-0.41 1.14-1.36 9.52-11.84 6.39-23.31a0.49 0.49 0 0 1 0.35-0.61 0.5 0.5 0 0 1 0.61 0.35c3.49 12.76-6.63 24.27-6.74 24.38a0.46 0.46 0 0 1-0.32 0.17c-0.05 0-5.04 0.44-7.82 0.44z" fill="#FF725E"/>
<path d="m273 101.94c-5.45-10.21-7.68-10.93-8.65-14.21a17 17 0 0 1 3.1-5c-0.66-0.19-2.08-0.47-3-0.64 0.1-0.45 0.21-0.89 0.31-1.32a9.54 9.54 0 0 0-3 0.14v-1a13 13 0 0 0-3.87-0.25q0.17 0.71 0.33 1.44c-1 0.19-2.52 0.5-3.25 0.71a14.4 14.4 0 0 1 3.05 5.57c-2.94 5.05-14.36 37.51 4.22 40s16.2-15.22 10.76-25.44z" fill="#FF725E"/>
<path d="m273 101.94c-5.45-10.21-7.68-10.93-8.65-14.21a17 17 0 0 1 3.1-5c-0.66-0.19-2.08-0.47-3-0.64 0.1-0.45 0.21-0.89 0.31-1.32a9.54 9.54 0 0 0-3 0.14v-1a13 13 0 0 0-3.87-0.25q0.17 0.71 0.33 1.44c-1 0.19-2.52 0.5-3.25 0.71a14.4 14.4 0 0 1 3.05 5.57c-2.94 5.05-14.36 37.51 4.22 40s16.2-15.22 10.76-25.44z" fill="#fff" opacity=".4"/>
<path d="m257.26 86.41a6.29 6.29 0 0 0-0.15 1.57c0 0.37 1 0.62 2.11 0.73s5.77 0.29 5.62-0.23 0.23-1.23 0.25-1.67-1.85-0.46-3.42-0.4-4.1-0.56-4.41 0z" fill="#FF725E"/>
<path d="m246.45 124h0.92c0.18 0 0.32-0.1 0.31-0.21l-0.43-4c0-0.12-0.17-0.21-0.36-0.21h-0.89c-0.18 0-0.32 0.09-0.31 0.21l0.43 4c-0.02 0.13 0.14 0.21 0.33 0.21z" fill="#FF725E"/>
</g>
</svg>
