<?xml version="1.0" encoding="UTF-8"?>
<svg class="" width="512" height="512" enable-background="new 0 0 512 512" version="1.1" viewBox="0 0 511 511.99953" xml:space="preserve" xmlns="http://www.w3.org/2000/svg"><path d="m499.39 229c0 126.49-102.54 229.02-229.02 229.02-126.47 0-229.01-102.53-229.01-229.02 0-126.48 102.54-229 229.01-229 31.027 0 60.605 6.1641 87.586 17.352 0.48047 0.19531 0.95703 0.39063 1.4258 0.59766 73.008 30.816 126.7 98.422 137.85 179.58 0 0.035156 0.011718 0.066406 0.011718 0.10156 1.4102 10.25 2.1406 20.727 2.1406 31.371z" fill="#f8a28b" data-original="#f8a28b" xmlns="http://www.w3.org/2000/svg"/><path d="m497.25 197.63c0-0.03125-0.011718-0.0625-0.011718-0.097656-11.156-81.16-64.844-148.77-137.85-179.59-0.46875-0.20703-0.94531-0.39844-1.4258-0.59766-26.98-11.184-56.559-17.348-87.586-17.348-13.145 0-26.027 1.125-38.57 3.25 17.039 2.8945 33.438 7.6562 48.977 14.098 0.47656 0.19922 0.95703 0.39062 1.4219 0.59766 73.008 30.82 126.7 98.426 137.85 179.59 0 0.035156 0.011718 0.066406 0.011718 0.097656 1.4141 10.254 2.1406 20.73 2.1406 31.375 0 113.34-82.316 207.42-190.42 225.77 12.551 2.1289 25.438 3.2539 38.59 3.2539 126.48 0 229.02-102.54 229.02-229.02 0-10.645-0.73047-21.121-2.1406-31.375z" fill="#f58c79" data-original="#f58c79" xmlns="http://www.w3.org/2000/svg"/><path d="m13.715 249.07 130.1-87.234c9.2656-6.2188 20.492-8.6836 31.469-6.9102 11 1.7734 22.258-0.65625 31.547-6.8867l17.414-11.684 97.504 145.54-23.922 104.64c-1.8594 8.1484-2.7773 16.406-2.7773 24.629 0 21.277 6.1445 42.281 17.93 60.305 2.8984 4.4375 4.2852 9.4492 4.2852 14.402 0 8.4648-4.0586 16.766-11.551 21.789-10.102 6.7812-23.488 5.5195-32.184-3.0195l-15.5-15.199c-17.723-17.414-31.395-38.613-39.98-62.059l-8.4023-22.906-86.543 57.895c-13.82 9.2656-32.52 5.2109-41.344-9.1211-8.5117-13.809-4.1406-32.055 9.2695-41.043 0.16016-0.10938 0.17188-0.28516 0.11719-0.41797-0.074219-0.14062-0.23828-0.24219-0.42188-0.16406-3.418 1.3359-6.9961 1.9844-10.543 1.9844-5.668 0-11.281-1.6562-16.082-4.7969-3.3086-2.168-6.2383-5.0469-8.5547-8.5859-4.4648-6.832-5.7969-14.848-4.3359-22.293 2.293-11.742 10.719-17.785 12.371-18.926 0.28125-0.19531 0.35938-0.58984 0.16406-0.88672 0-0.011719-0.011719-0.019531-0.023438-0.019531-0.18359-0.26562-0.5625-0.33984-0.83203-0.16406-2.3594 0.57812-4.7578 0.85156-7.1602 0.85156-5.8633 0-11.691-1.6836-16.645-4.8828-3.3516-2.168-6.3164-5.0391-8.6094-8.5508-8.9961-13.754-5.2773-32.293 8.3164-41.406 0.33594-0.23047 0.67188-0.46094 1.0078-0.67969 0.19531-0.15234 0.25-0.40234 0.15234-0.57812-0.023437-0.042969-0.066406-0.089844-0.10938-0.10938-0.15234-0.12109-0.39062-0.13281-0.58594 0.019531-8.4453 2.9141-17.637 1.5898-25.035-3.2617-3.4062-2.2109-6.4219-5.1914-8.8125-8.8477-9-13.77-5.2812-32.309 8.3047-41.418z" fill="#fdd7bd" data-original="#fdd7bd" xmlns="http://www.w3.org/2000/svg"/><path class="" d="m497.25 197.63-93.523 64.336-55.984 37.535c-6.4453 4.3281-15.129 2.5312-19.402-4l-109.3-167.09c-4.2695-6.5469-2.5-15.34 3.957-19.676l54.887-36.797 81.5-53.984c73.008 30.816 126.7 98.422 137.85 179.58 0 0.035156 0.011718 0.066406 0.011718 0.097656z" fill="#87dbff" data-original="#87dbff" xmlns="http://www.w3.org/2000/svg"/><path class="" d="m223 108.73 54.883-36.805 125.84 190.04-55.98 37.539c-6.4453 4.3242-15.141 2.5312-19.41-4.0078l-109.3-167.09c-4.2695-6.5391-2.4961-15.332 3.9609-19.668z" fill="#6fc7ff" data-original="#6fc7ff" xmlns="http://www.w3.org/2000/svg"/><g fill="#fac5aa" xmlns="http://www.w3.org/2000/svg"><path d="m64.102 408.8 43.289-23.457c6.1445-3.3203 13.758-1.5898 17.891 4.0742l-34.133 22.359c-0.078126-0.14062-0.23828-0.24219-0.42188-0.16406-3.418 1.3359-6.9961 1.9844-10.543 1.9844-5.668-0.003906-11.281-1.6562-16.082-4.7969z" data-original="#fac5aa"/><path d="m39.086 353.89 42.352-22.93c6.1406-3.3281 13.754-1.5977 17.887 4.0625l-34.133 22.363-1.4688 0.69922c-0.18359-0.26172-0.5625-0.33984-0.83594-0.16406-2.3555 0.58203-4.7578 0.85547-7.1562 0.85547-5.8633 0-11.691-1.6875-16.645-4.8867z" data-original="#fac5aa"/><path d="m14.223 299.33 37.301-20.203c6.1328-3.3164 13.746-1.5898 17.887 4.0742l-29.566 19.371c-0.15234-0.12109-0.39062-0.12891-0.58594 0.023438-8.4453 2.9102-17.637 1.5859-25.035-3.2656z" data-original="#fac5aa"/></g></svg>
