<?xml version="1.0" encoding="UTF-8"?>
<svg class="" width="512" height="512" enable-background="new 0 0 512 512" version="1.1" viewBox="0 0 511 511.99986" xml:space="preserve" xmlns="http://www.w3.org/2000/svg"><path class="" d="m463.09 280.71c0 127.74-103.56 231.29-231.3 231.29-31.336 0-61.207-6.2305-88.453-17.523-74.469-30.848-129.32-99.477-140.66-181.98-1.4414-10.391-2.1758-21.004-2.1758-31.789 0-127.75 103.55-231.3 231.29-231.3 127.73 0 231.3 103.55 231.3 231.3z" fill="#937de2" data-original="#937de2" xmlns="http://www.w3.org/2000/svg"/><path d="m231.79 49.414c-12.23 0-24.234 0.95703-35.949 2.7852 110.67 17.27 195.35 112.99 195.35 228.51 0 115.5-84.676 211.22-195.34 228.5 11.711 1.8281 23.707 2.7891 35.93 2.7891 127.74 0 231.3-103.55 231.3-231.29 0-127.75-103.56-231.3-231.3-231.3z" fill="#7570d6" data-original="#7570d6" xmlns="http://www.w3.org/2000/svg"/><path class="" d="m491.96 263.61-132.07 87.457c-9.4102 6.2344-20.809 8.707-31.949 6.9258-11.168-1.7773-22.594 0.66016-32.027 6.9062l-17.676 11.715-98.984-145.91 24.285-104.91c1.8867-8.168 2.8203-16.445 2.8203-24.691 0-21.332-6.2383-42.387-18.203-60.461-2.9414-4.4453-4.3477-9.4727-4.3477-14.438 0-8.4844 4.1172-16.809 11.727-21.848 10.254-6.793 23.844-5.5312 32.672 3.0312l15.734 15.238c17.992 17.457 31.871 38.711 40.586 62.219l8.5312 22.969 87.855-58.047c14.031-9.2891 33.012-5.2266 41.973 9.1445 8.6406 13.844 4.2031 32.137-9.4102 41.148-0.16406 0.10938-0.17578 0.28516-0.12109 0.41797 0.078126 0.14453 0.24219 0.24219 0.42578 0.16406 3.4727-1.3359 7.1055-1.9844 10.707-1.9844 5.75 0 11.449 1.6562 16.324 4.8086 3.3594 2.1719 6.3359 5.0586 8.6836 8.6055 4.5352 6.8516 5.8867 14.887 4.4023 22.355-2.3281 11.766-10.879 17.828-12.559 18.969-0.28516 0.19922-0.36328 0.59375-0.16406 0.89062 0 0.007813 0.011719 0.019532 0.019531 0.019532 0.1875 0.26562 0.57031 0.33984 0.84375 0.16797 2.3945-0.58203 4.832-0.85938 7.2695-0.85938 5.9492 0 11.867 1.6914 16.898 4.8984 3.4023 2.1758 6.4102 5.0508 8.7383 8.5742 9.1328 13.789 5.3594 32.375-8.4453 41.512-0.33984 0.23047-0.67969 0.46094-1.0195 0.67969-0.19531 0.15625-0.25391 0.40625-0.15234 0.58203 0.019531 0.042969 0.066406 0.089844 0.10938 0.10938 0.15234 0.12109 0.39453 0.13281 0.59375-0.019531 8.5742-2.9219 17.906-1.5938 25.414 3.2695 3.457 2.2188 6.5234 5.207 8.9492 8.8711 9.1367 13.801 5.3594 32.387-8.4297 41.523z" fill="#fdd7bd" data-original="#fdd7bd" xmlns="http://www.w3.org/2000/svg"/><path d="m279.5 404.31-55.719 36.898-80.441 53.27c-74.469-30.852-129.32-99.469-140.66-181.98l93.352-61.82 56.828-37.637c6.543-4.3359 15.371-2.5352 19.707 4.0195l110.95 167.53c4.3359 6.5547 2.5352 15.367-4.0195 19.719z" fill="#87dbff" data-original="#87dbff" xmlns="http://www.w3.org/2000/svg"/><path d="m279.5 404.31-55.719 36.898-127.75-190.53 56.828-37.637c6.543-4.3359 15.371-2.5352 19.707 4.0195l110.95 167.52c4.3359 6.5586 2.5352 15.371-4.0195 19.723z" fill="#6fc7ff" data-original="#6fc7ff" xmlns="http://www.w3.org/2000/svg"/><g fill="#fac5aa" xmlns="http://www.w3.org/2000/svg"><path d="m440.81 103.46-43.949 23.52c-6.2344 3.3281-13.965 1.5898-18.156-4.0859l34.648-22.418c0.078126 0.14453 0.24219 0.24219 0.42578 0.16406 3.4727-1.3359 7.1055-1.9844 10.707-1.9844 5.7539 0 11.449 1.6562 16.324 4.8047z" data-original="#fac5aa"/><path d="m466.2 158.51-42.992 22.988c-6.2344 3.3398-13.965 1.6055-18.16-4.0703l34.648-22.422 1.4961-0.70312c0.1875 0.26562 0.57031 0.33984 0.84375 0.16797 2.3945-0.58203 4.832-0.85938 7.2695-0.85938 5.9492 0 11.867 1.6914 16.895 4.8984z" data-original="#fac5aa"/><path d="m491.45 213.22-37.867 20.258c-6.2266 3.3242-13.953 1.5898-18.16-4.0859l30.016-19.422c0.15625 0.12109 0.39844 0.13281 0.59375-0.023438 8.5742-2.918 17.906-1.5898 25.418 3.2734z" data-original="#fac5aa"/></g></svg>
