<?xml version="1.0" encoding="UTF-8"?>
<svg viewBox="0 0 390 350" xmlns="http://www.w3.org/2000/svg">
<g>
<title>Layer 1</title>
<path d="m35.2 44.08c27.91-59.45 127.05-51.08 165.31-9.25s50.7 68.6 85.21 53 78.52-11.44 81 38.16-37.87 108.25-102.05 125.6-64.16 78.76-149.1 66.41c-46.31-6.76-47.36-56.86-40.82-98.3s-71.93-106.7-39.55-175.62z" fill="#FC6B54"/>
<path d="m35.2 44.08c27.91-59.45 127.05-51.08 165.31-9.25s50.7 68.6 85.21 53 78.52-11.44 81 38.16-37.87 108.25-102.05 125.6-64.16 78.76-149.1 66.41c-46.31-6.76-47.36-56.86-40.82-98.3s-71.93-106.7-39.55-175.62z" fill="#fff" opacity=".9"/>
<ellipse cx="194" cy="338.24" rx="193.89" ry="11.32" fill="#f5f5f5"/>
<path d="m41.68 163.3c0-1.19-0.79-3.43 0.92-4.35s2.24-1.06 2.64 0 0.92 0.26 1.32-0.14 0.79-0.39 0.66-1.45-1.27-2 0-2.24 1.43-1.19 3.28-1.84 2.24-1.72 2.76-0.66-0.39 2.37 0.8 2a30.65 30.65 0 0 0 4.22 -2.42s1-2.72 2.37-2.32 2-0.74 2.9 0a8.87 8.87 0 0 1 1.8 2.81s-1.14 1 2.16 0 4.35-2 4.35-3.05-0.93-3 1.18-3 3.57-1.05 4.36-0.66 2.11 1.71 2.11 2.11 4.05 1.71 4.05 1.71a3.84 3.84 0 0 1 1.22 -2.24c1.06-0.92 0.13-1.58 2.9-2.24s4.09-2.37 4.75-1 3.45 1.68 3.57 2.68 1.23 1.31 1.21 1.45 0.37 0.13 1.43-0.53a13 13 0 0 0 2.5 -2.77s3.17 0.66 3.43 1.05 1.22 1.59 1.6 2.25 0.25 2 2.49 2 4 1.06 4.88-0.39l0.92-1.45s2.13-1.85 3-0.79 1.71 0.39 2.1 1.32a2.93 2.93 0 0 1 0 2s2.64 1.72 3 1.45 1.3-0.13 2.17-1.18-0.46-2.64 1.52-1.32 2.64 1.05 2.9 1.71 0.92 1.57 0.53 2.17-0.53 2 0.92 2 1.85 0.32 3.43 0 3.07-0.87 3.52 0 1.34 1.13 1.08 1.52 1.33 0.93 1.86 0.53 0.53-0.79 1.45 0 2 1.39 2 2.08-0.13 1.09 0.66 1.22 1.58 1.32 2 2.11 0.48 0.57 0.75 3.29-2.34 11.48-2.34 12.27-100.85 8.19-100.85 8.19l-2.48-23.88z" fill="#FC6B54"/>
<path d="m41.68 163.3c0-1.19-0.79-3.43 0.92-4.35s2.24-1.06 2.64 0 0.92 0.26 1.32-0.14 0.79-0.39 0.66-1.45-1.27-2 0-2.24 1.43-1.19 3.28-1.84 2.24-1.72 2.76-0.66-0.39 2.37 0.8 2a30.65 30.65 0 0 0 4.22 -2.42s1-2.72 2.37-2.32 2-0.74 2.9 0a8.87 8.87 0 0 1 1.8 2.81s-1.14 1 2.16 0 4.35-2 4.35-3.05-0.93-3 1.18-3 3.57-1.05 4.36-0.66 2.11 1.71 2.11 2.11 4.05 1.71 4.05 1.71a3.84 3.84 0 0 1 1.22 -2.24c1.06-0.92 0.13-1.58 2.9-2.24s4.09-2.37 4.75-1 3.45 1.68 3.57 2.68 1.23 1.31 1.21 1.45 0.37 0.13 1.43-0.53a13 13 0 0 0 2.5 -2.77s3.17 0.66 3.43 1.05 1.22 1.59 1.6 2.25 0.25 2 2.49 2 4 1.06 4.88-0.39l0.92-1.45s2.13-1.85 3-0.79 1.71 0.39 2.1 1.32a2.93 2.93 0 0 1 0 2s2.64 1.72 3 1.45 1.3-0.13 2.17-1.18-0.46-2.64 1.52-1.32 2.64 1.05 2.9 1.71 0.92 1.57 0.53 2.17-0.53 2 0.92 2 1.85 0.32 3.43 0 3.07-0.87 3.52 0 1.34 1.13 1.08 1.52 1.33 0.93 1.86 0.53 0.53-0.79 1.45 0 2 1.39 2 2.08-0.13 1.09 0.66 1.22 1.58 1.32 2 2.11 0.48 0.57 0.75 3.29-2.34 11.48-2.34 12.27-100.85 8.19-100.85 8.19l-2.48-23.88z" fill="#fff" opacity=".7"/>
<path d="m145.92 169.76s-2.11-10.07-4.49-10.11a9.43 9.43 0 0 0 -4.48 1.22 13.37 13.37 0 0 0 -3.43 -1.22c-1.05-0.05-1-1.81-2.21 0s-2.39 0.84-2.27 2.51-3.7 1.76-2.9 0 2.11-2.44 1.58-3.81l-0.53-1.38s-3.37-1.76-4.06-1.28-0.33 1.06-0.9 1.83 3.74 3 0 2.13-4.8 2.45-4.8-1.3v-3.76h-3.43a2.17 2.17 0 0 1 0 1.88c-0.48 1-0.48-1.35-0.48 1s4.48 2.9 0 2.37-9.5 1.17-8.18-1.52l1.32-2.7a2.54 2.54 0 0 0 -1.53 -0.14c-1.11 0.14-1.62 1.24-2.29 2s1.46 1.38 0 2.13-3 1.36-3.57 0-0.26 0-1.31-2.13 0.79-5-2.64-2.93-6.11 2.23-4.9 3.76 2.79 3.33 2.79 3.33 0.26 0.54-1.58 1.08 1.32 2.12-1.85 0.54-3.43-0.85-3.43-2.67v-1.82c-1.58-0.26-3.16 0.09-3.43 0.84s0.25 5.34-1.59 4-1.57 0.48-1.84-1.37-1.31-3.77 0-4.65 2.91-0.09 1.32-0.89a17.7 17.7 0 0 0 -3.16 -1.19l-2.9 2v2.13s-1.35 1.89-2.26 0-0.64-0.31-0.91-1.89l-0.26-1.58s3.16-1.42 0-1.63l-3.17-0.22s-2.11 0.46-2.11 1.42-1.84 2.92 0 2.6 1.85-1.65 1.85-0.33-1.38 1.41-2.67 1.63-1.93 1.62-2.4 0-0.47-0.05-0.47-1.63v-1.58l-2.11-1.05-2.37 1.45a1 1 0 0 0 0 1.51l0.79 0.73s4.31 2.31-1.14 1.55-7.17 0.38-7.1-1l0.06-1.36s0-0.68-1.57 0.06a5.57 5.57 0 0 0 -2.38 2.28l-4.81 2.13-1.26 0.33s0.28 3.86 0 4.37a5.2 5.2 0 0 0 0.74 4.57c1.33 2.12 3.44 7.39 11.88 9.11s10.29 6.1 26.11 5.89 17.14 0.93 29.28-1.75 17.72-1.38 22.84-4.14 11.39-8.53 12.07-8.42 2.54-2.93 2.54-2.93z" fill="#FC6B54"/>
<path d="m145.92 169.76s-2.11-10.07-4.49-10.11a9.43 9.43 0 0 0 -4.48 1.22 13.37 13.37 0 0 0 -3.43 -1.22c-1.05-0.05-1-1.81-2.21 0s-2.39 0.84-2.27 2.51-3.7 1.76-2.9 0 2.11-2.44 1.58-3.81l-0.53-1.38s-3.37-1.76-4.06-1.28-0.33 1.06-0.9 1.83 3.74 3 0 2.13-4.8 2.45-4.8-1.3v-3.76h-3.43a2.17 2.17 0 0 1 0 1.88c-0.48 1-0.48-1.35-0.48 1s4.48 2.9 0 2.37-9.5 1.17-8.18-1.52l1.32-2.7a2.54 2.54 0 0 0 -1.53 -0.14c-1.11 0.14-1.62 1.24-2.29 2s1.46 1.38 0 2.13-3 1.36-3.57 0-0.26 0-1.31-2.13 0.79-5-2.64-2.93-6.11 2.23-4.9 3.76 2.79 3.33 2.79 3.33 0.26 0.54-1.58 1.08 1.32 2.12-1.85 0.54-3.43-0.85-3.43-2.67v-1.82c-1.58-0.26-3.16 0.09-3.43 0.84s0.25 5.34-1.59 4-1.57 0.48-1.84-1.37-1.31-3.77 0-4.65 2.91-0.09 1.32-0.89a17.7 17.7 0 0 0 -3.16 -1.19l-2.9 2v2.13s-1.35 1.89-2.26 0-0.64-0.31-0.91-1.89l-0.26-1.58s3.16-1.42 0-1.63l-3.17-0.22s-2.11 0.46-2.11 1.42-1.84 2.92 0 2.6 1.85-1.65 1.85-0.33-1.38 1.41-2.67 1.63-1.93 1.62-2.4 0-0.47-0.05-0.47-1.63v-1.58l-2.11-1.05-2.37 1.45a1 1 0 0 0 0 1.51l0.79 0.73s4.31 2.31-1.14 1.55-7.17 0.38-7.1-1l0.06-1.36s0-0.68-1.57 0.06a5.57 5.57 0 0 0 -2.38 2.28l-4.81 2.13-1.26 0.33s0.28 3.86 0 4.37a5.2 5.2 0 0 0 0.74 4.57c1.33 2.12 3.44 7.39 11.88 9.11s10.29 6.1 26.11 5.89 17.14 0.93 29.28-1.75 17.72-1.38 22.84-4.14 11.39-8.53 12.07-8.42 2.54-2.93 2.54-2.93z" fill="#fff" opacity=".5"/>
<path d="m41.68 171.74s2.11-10.07 4.48-10.11a9.44 9.44 0 0 1 4.49 1.22 13.37 13.37 0 0 1 3.43 -1.22c1 0 1-1.81 2.21 0s2.39 0.84 2.27 2.51 3.69 1.76 2.9 0-2.11-2.44-1.58-3.82l0.53-1.37s3.36-1.76 4-1.28 0.33 1.06 0.91 1.83-3.74 3 0 2.13 4.79 2.45 4.79-1.31v-3.75h3.48a2.17 2.17 0 0 0 0 1.88c0.48 1 0.48-1.35 0.48 1s-4.48 2.9 0 2.38 9.49 1.17 8.18-1.53l-1.25-2.67a2.54 2.54 0 0 1 1.53 -0.14c1.1 0.14 1.62 1.24 2.29 2s-1.46 1.38 0 2.13 3 1.36 3.56 0 0.27 0 1.32-2.13-0.79-5 2.64-2.93 6.11 2.23 4.9 3.75-2.79 3.34-2.79 3.34-0.27 0.54 1.58 1.08-1.32 2.12 1.85 0.54 3.42-0.85 3.42-2.67v-1.82c1.59-0.26 3.17 0.09 3.43 0.84s-0.25 5.33 1.59 4 1.58 0.48 1.84-1.37 1.32-3.77 0-4.65-2.9-0.1-1.32-0.89a18 18 0 0 1 3.17 -1.19l2.9 2v2.13s1.34 1.89 2.25 0 0.65-0.31 0.91-1.89l0.27-1.59s-3.17-1.41 0-1.63l3.16-0.21s2.11 0.46 2.11 1.41 1.85 2.93 0 2.6-1.84-1.64-1.84-0.32 1.37 1.41 2.66 1.63 1.94 1.62 2.41 0 0.46 0 0.46-1.63v-1.58l2.11-1.06 2.38 1.45a1 1 0 0 1 0 1.51l-0.79 0.74s-4.31 2.31 1.14 1.55 7.17 0.38 7.1-1l-0.07-1.37s0-0.67 1.57 0.06a5.61 5.61 0 0 1 2.39 2.29l4.81 2.13 1.25 0.32s-0.27 3.87 0 4.37a5.17 5.17 0 0 1 -0.77 4.54c-1.34 2.12-3.45 7.39-11.88 9.11s-10.29 6.1-26.11 5.89-17.15 0.93-29.28-1.76-17.72-1.37-22.84-4.13-11.39-8.54-12.08-8.42-2.55-2.92-2.55-2.92z" fill="#FC6B54"/>
<path d="m41.68 171.74s2.11-10.07 4.48-10.11a9.44 9.44 0 0 1 4.49 1.22 13.37 13.37 0 0 1 3.43 -1.22c1 0 1-1.81 2.21 0s2.39 0.84 2.27 2.51 3.69 1.76 2.9 0-2.11-2.44-1.58-3.82l0.53-1.37s3.36-1.76 4-1.28 0.33 1.06 0.91 1.83-3.74 3 0 2.13 4.79 2.45 4.79-1.31v-3.75h3.48a2.17 2.17 0 0 0 0 1.88c0.48 1 0.48-1.35 0.48 1s-4.48 2.9 0 2.38 9.49 1.17 8.18-1.53l-1.25-2.67a2.54 2.54 0 0 1 1.53 -0.14c1.1 0.14 1.62 1.24 2.29 2s-1.46 1.38 0 2.13 3 1.36 3.56 0 0.27 0 1.32-2.13-0.79-5 2.64-2.93 6.11 2.23 4.9 3.75-2.79 3.34-2.79 3.34-0.27 0.54 1.58 1.08-1.32 2.12 1.85 0.54 3.42-0.85 3.42-2.67v-1.82c1.59-0.26 3.17 0.09 3.43 0.84s-0.25 5.33 1.59 4 1.58 0.48 1.84-1.37 1.32-3.77 0-4.65-2.9-0.1-1.32-0.89a18 18 0 0 1 3.17 -1.19l2.9 2v2.13s1.34 1.89 2.25 0 0.65-0.31 0.91-1.89l0.27-1.59s-3.17-1.41 0-1.63l3.16-0.21s2.11 0.46 2.11 1.41 1.85 2.93 0 2.6-1.84-1.64-1.84-0.32 1.37 1.41 2.66 1.63 1.94 1.62 2.41 0 0.46 0 0.46-1.63v-1.58l2.11-1.06 2.38 1.45a1 1 0 0 1 0 1.51l-0.79 0.74s-4.31 2.31 1.14 1.55 7.17 0.38 7.1-1l-0.07-1.37s0-0.67 1.57 0.06a5.61 5.61 0 0 1 2.39 2.29l4.81 2.13 1.25 0.32s-0.27 3.87 0 4.37a5.17 5.17 0 0 1 -0.77 4.54c-1.34 2.12-3.45 7.39-11.88 9.11s-10.29 6.1-26.11 5.89-17.15 0.93-29.28-1.76-17.72-1.37-22.84-4.13-11.39-8.54-12.08-8.42-2.55-2.92-2.55-2.92z" fill="#fff" opacity=".7"/>
<path d="m48 172.87s-1.85-4.3-0.79-5.35 2.24-0.66 2.5 0-1.12 1.63 0 1.84 2.18 1.13 2.38-0.26 0.39-2.24 0-2.64-0.34 0 0.23-0.87 0.34-1.77 1.48-0.71 2.72 1.71 2.48 2.37-2 0.66 0 1.39 3 0.79 4.25 0 1.5-0.63 2 0 2 1.43 1.94 2.16-0.21 6.19 0.91 3.17 2.71-3.13 1.84-4.33 0.58-0.54-0.87-1.2-2.17-0.53-1.88-1.85-0.33-1.86 0.91-2.18 1.1-1.77 2.09-0.85 1 0.4 1.52 1.32a5.58 5.58 0 0 0 0.52 0.92c0.55 0.82 1.74 0 2.8-0.11s-0.09 1 1.06-0.1 1.95-1.37 2.34-0.84 2.21 0.76 2 1.58-1.21 0.87 0 1.58 2.62 1.78 3.41 1.16 1.32 3.72 0.79-0.63 2.36-4.09 2.9-3.82 1.3-0.73 1.06 1 1.12 1.95 1.68 0.49 0.16-2 0.56-2.12 1.18-1.14 1.58-0.7 2.26-0.44 2.11 1.09-1.16 1.1-0.15 1.54a21.22 21.22 0 0 1 2.9 1.84s-0.41 0.31 0-1-1.21-1.44 0.41-1.32 1.77 0.52 2.27 1.05-1.16 1.58 0 1.85 3.69 1.5 3.61 0.22 0-2.94 0-2.94-1.53-1.93-1-2.44 0.53-1.3 1.45-1.17 1.32-1.48 1.85 0-1.85 3.63 0.66 3.63 2.39-3 2.39-3a1.48 1.48 0 0 1 1.43 -0.66c1 0.09 1.72 0.39 2 1.19s0.4 1.31 0 1.84 2.9 2.11 2.9 2.11 1.59 1.19 1.32-0.66-1.52-2.37 0-2.37 2.74 0.26 3 0.92-0.13 2.11-0.52 2.24-2.07 1.66 0.61 1.82 6.35 2.07 5.51 0.06a6.16 6.16 0 0 1 -0.45 -3.54s-1.45-0.05-1.72-1.11-1.34-0.57 0.4-1.71 1.29-3.75 2.72-2.45 1.36 0.08 1.43 2.05 1.92 3.3 2.18 2.11 0 0 0.26-1.18-0.79-2 0-1.85 2.39-0.82 2.9 0.13 0.4 1.19 0 1.85-0.37 2.08 0.35 2.16 3.08 1.11 3.08 0 0.4-1.63 0-1.9a2.91 2.91 0 0 1 -0.67 -1.34s0.67-0.9 1.46-0.9 3.14-0.44 2.84 0.18 2.21 1.6 0.42 2.85-0.16 0.17-1.32 1.61-2.2 2.48-0.88 2.75 2.22 0.87 3.28 0.92 2.9 0 1.52-1.13-2.19-0.45-1.52-2.17 1.25-2.24 2-2.24 1.56-0.26 1.82 0.13 2.79 0.64 1.53 1.77-0.37 3.38 0.35 2.58 1.48 0.28 1.48-1.84v-3.43s-0.47-1.06 0-1.06 3.23-0.79 3.5 0.14 1 2.46 0.52 3.08a7.06 7.06 0 0 1 -0.49 0.63c-0.45 0.53 0.56 2.09 0.66 2.88s1.74 0.87 0 3.33 0.29 2.21-2.71 5.11-5.76 5.27-12.88 8.44-76.62 9-83.74 9.49-13.06-3.82-13.06-7.12 4.75-15.75 4-15.92-3.16-3.07-3.3-3.59a22.66 22.66 0 0 1 -0.13 -3.25 4.29 4.29 0 0 1 3.43 -3.48c2-0.26 2.3-0.25 2.53 1.59s-1.61 2-1.74 2.63a2.58 2.58 0 0 0 0.4 2.64 19.43 19.43 0 0 0 1.34 2.1s4.13 2.71 3.77 1.8z" fill="#FC6B54"/>
<path d="m48 172.87s-1.85-4.3-0.79-5.35 2.24-0.66 2.5 0-1.12 1.63 0 1.84 2.18 1.13 2.38-0.26 0.39-2.24 0-2.64-0.34 0 0.23-0.87 0.34-1.77 1.48-0.71 2.72 1.71 2.48 2.37-2 0.66 0 1.39 3 0.79 4.25 0 1.5-0.63 2 0 2 1.43 1.94 2.16-0.21 6.19 0.91 3.17 2.71-3.13 1.84-4.33 0.58-0.54-0.87-1.2-2.17-0.53-1.88-1.85-0.33-1.86 0.91-2.18 1.1-1.77 2.09-0.85 1 0.4 1.52 1.32a5.58 5.58 0 0 0 0.52 0.92c0.55 0.82 1.74 0 2.8-0.11s-0.09 1 1.06-0.1 1.95-1.37 2.34-0.84 2.21 0.76 2 1.58-1.21 0.87 0 1.58 2.62 1.78 3.41 1.16 1.32 3.72 0.79-0.63 2.36-4.09 2.9-3.82 1.3-0.73 1.06 1 1.12 1.95 1.68 0.49 0.16-2 0.56-2.12 1.18-1.14 1.58-0.7 2.26-0.44 2.11 1.09-1.16 1.1-0.15 1.54a21.22 21.22 0 0 1 2.9 1.84s-0.41 0.31 0-1-1.21-1.44 0.41-1.32 1.77 0.52 2.27 1.05-1.16 1.58 0 1.85 3.69 1.5 3.61 0.22 0-2.94 0-2.94-1.53-1.93-1-2.44 0.53-1.3 1.45-1.17 1.32-1.48 1.85 0-1.85 3.63 0.66 3.63 2.39-3 2.39-3a1.48 1.48 0 0 1 1.43 -0.66c1 0.09 1.72 0.39 2 1.19s0.4 1.31 0 1.84 2.9 2.11 2.9 2.11 1.59 1.19 1.32-0.66-1.52-2.37 0-2.37 2.74 0.26 3 0.92-0.13 2.11-0.52 2.24-2.07 1.66 0.61 1.82 6.35 2.07 5.51 0.06a6.16 6.16 0 0 1 -0.45 -3.54s-1.45-0.05-1.72-1.11-1.34-0.57 0.4-1.71 1.29-3.75 2.72-2.45 1.36 0.08 1.43 2.05 1.92 3.3 2.18 2.11 0 0 0.26-1.18-0.79-2 0-1.85 2.39-0.82 2.9 0.13 0.4 1.19 0 1.85-0.37 2.08 0.35 2.16 3.08 1.11 3.08 0 0.4-1.63 0-1.9a2.91 2.91 0 0 1 -0.67 -1.34s0.67-0.9 1.46-0.9 3.14-0.44 2.84 0.18 2.21 1.6 0.42 2.85-0.16 0.17-1.32 1.61-2.2 2.48-0.88 2.75 2.22 0.87 3.28 0.92 2.9 0 1.52-1.13-2.19-0.45-1.52-2.17 1.25-2.24 2-2.24 1.56-0.26 1.82 0.13 2.79 0.64 1.53 1.77-0.37 3.38 0.35 2.58 1.48 0.28 1.48-1.84v-3.43s-0.47-1.06 0-1.06 3.23-0.79 3.5 0.14 1 2.46 0.52 3.08a7.06 7.06 0 0 1 -0.49 0.63c-0.45 0.53 0.56 2.09 0.66 2.88s1.74 0.87 0 3.33 0.29 2.21-2.71 5.11-5.76 5.27-12.88 8.44-76.62 9-83.74 9.49-13.06-3.82-13.06-7.12 4.75-15.75 4-15.92-3.16-3.07-3.3-3.59a22.66 22.66 0 0 1 -0.13 -3.25 4.29 4.29 0 0 1 3.43 -3.48c2-0.26 2.3-0.25 2.53 1.59s-1.61 2-1.74 2.63a2.58 2.58 0 0 0 0.4 2.64 19.43 19.43 0 0 0 1.34 2.1s4.13 2.71 3.77 1.8z" fill="#fff" opacity=".5"/>
<path d="m115.14 180.37l-3.5 155.21h-69.76l-9.7-155.21c-0.5-8.11 3.19-14.78 8.25-14.78 3.62 0 6.9 3.44 8.6 8.38 1.27-4.94 4.24-8.38 7.86-8.38s6.85 3.44 8.48 8.38c1.34-4.94 4.37-8.38 8-8.38s6.8 3.44 8.34 8.38c1.42-4.94 4.51-8.38 8.14-8.38s6.72 3.41 8.15 8.41c1.52-4.94 4.66-8.38 8.28-8.38 5.08-0.03 9.04 6.64 8.86 14.75z" fill="#FC6B54"/>
<path d="m115.14 180.37l-3.5 155.21h-69.76l-9.7-155.21c-0.5-8.11 3.19-14.78 8.25-14.78 3.62 0 6.9 3.44 8.6 8.38 1.27-4.94 4.24-8.38 7.86-8.38s6.85 3.44 8.48 8.38c1.34-4.94 4.37-8.38 8-8.38s6.8 3.44 8.34 8.38c1.42-4.94 4.51-8.38 8.14-8.38s6.72 3.41 8.15 8.41c1.52-4.94 4.66-8.38 8.28-8.38 5.08-0.03 9.04 6.64 8.86 14.75z" fill="#fff" opacity=".6"/>
<path d="m49 174l7.26 161.61h-14.38l-9.7-155.21c-0.5-8.11 3.19-14.78 8.25-14.78 3.62-0.03 6.9 3.38 8.57 8.38z" fill="#FC6B54"/>
<path d="m81.7 174l1.88 161.61h-13.64l-4.57-161.61c1.34-4.94 4.37-8.38 8-8.38s6.79 3.38 8.33 8.38z" fill="#FC6B54"/>
<path d="m115.14 180.37l-3.5 155.21h-14.42l0.78-161.58c1.52-4.94 4.66-8.38 8.28-8.38 5.08-0.03 9.04 6.64 8.86 14.75z" fill="#FC6B54"/>
<path d="m115.14 180.37l-3.5 155.21h32.76l9.7-155.21c0.51-8.11-1-14.78-3.38-14.78-1.7 0-3.36 3.44-4.32 8.38-0.43-4.94-1.72-8.38-3.42-8.38s-3.33 3.44-4.26 8.38c-0.46-4.94-1.77-8.38-3.47-8.38s-3.31 3.44-4.19 8.38c-0.51-4.94-1.85-8.38-3.55-8.38s-3.28 3.44-4.12 8.38c-0.55-4.94-1.91-8.38-3.61-8.38-2.38 0-4.46 6.67-4.64 14.78z" fill="#FC6B54"/>
<path d="m115.14 180.37l-3.5 155.21h32.76l9.7-155.21c0.51-8.11-1-14.78-3.38-14.78-1.7 0-3.36 3.44-4.32 8.38-0.43-4.94-1.72-8.38-3.42-8.38s-3.33 3.44-4.26 8.38c-0.46-4.94-1.77-8.38-3.47-8.38s-3.31 3.44-4.19 8.38c-0.51-4.94-1.85-8.38-3.55-8.38s-3.28 3.44-4.12 8.38c-0.55-4.94-1.91-8.38-3.61-8.38-2.38 0-4.46 6.67-4.64 14.78z" fill="#fff" opacity=".6"/>
<path d="m146.4 174l-8.76 161.61h6.76l9.7-155.21c0.51-8.11-1-14.78-3.38-14.78-1.72-0.03-3.36 3.38-4.32 8.38z" fill="#FC6B54"/>
<path d="m131.06 174l-6.24 161.61h6.4l7.5-161.61c-0.46-4.94-1.77-8.38-3.47-8.38s-3.31 3.38-4.19 8.38z" fill="#FC6B54"/>
<path d="m115.14 180.37l-3.5 155.21h6.77l5-161.61c-0.55-4.94-1.91-8.38-3.61-8.38-2.4 0-4.48 6.67-4.66 14.78z" fill="#FC6B54"/>
<path d="m115.14 180.37l-3.5 155.21h32.76l9.7-155.21c0.51-8.11-1-14.78-3.38-14.78-1.7 0-3.36 3.44-4.32 8.38-0.43-4.94-1.72-8.38-3.42-8.38s-3.33 3.44-4.26 8.38c-0.46-4.94-1.77-8.38-3.47-8.38s-3.31 3.44-4.19 8.38c-0.51-4.94-1.85-8.38-3.55-8.38s-3.28 3.44-4.12 8.38c-0.55-4.94-1.91-8.38-3.61-8.38-2.38 0-4.46 6.67-4.64 14.78z" opacity=".2"/>
<path d="m81.21 148.13c2.21-1.24 4.88-1.18 4.09 0s0 1.45 1.19 2.11 4.09-0.66 1.32 1.45-2.91 2.38-3.3 2.64-0.9-1.05-1 0-2.05 0.73-2.32 0 0.53-1.23 0-1.62-0.05-2.9-0.05-2.9-1.23-0.94 0.07-1.68z" fill="#FC6B54"/>
<path d="m81.21 148.13c2.21-1.24 4.88-1.18 4.09 0s0 1.45 1.19 2.11 4.09-0.66 1.32 1.45-2.91 2.38-3.3 2.64-0.9-1.05-1 0-2.05 0.73-2.32 0 0.53-1.23 0-1.62-0.05-2.9-0.05-2.9-1.23-0.94 0.07-1.68z" fill="#fff" opacity=".8"/>
<path d="m84.8 148.79c-0.79-0.66-1.52-0.46-1.52 0s-0.33 0.2 0 0.83 0.53 0.23 0.33 0.62-1.08 0.56-0.47 0.87 1.2-0.64 1.2 0-0.08 1.18 0.46 0.91 0.4 0.79 0.53-0.26 0.13-0.92 0.53-1-1.06-1.97-1.06-1.97z" opacity=".1"/>
<path d="m51.89 153.33c2.21-1.24 4.87-1.19 4.08 0s0 1.45 1.19 2.11 4.09-0.66 1.32 1.45-2.91 2.38-3.3 2.64-0.9-1.06-1 0-2.06 0.73-2.32 0 0.53-1.22 0-1.61-0.06-2.9-0.06-2.9-1.21-0.96 0.09-1.69z" fill="#FC6B54"/>
<path d="m51.89 153.33c2.21-1.24 4.87-1.19 4.08 0s0 1.45 1.19 2.11 4.09-0.66 1.32 1.45-2.91 2.38-3.3 2.64-0.9-1.06-1 0-2.06 0.73-2.32 0 0.53-1.22 0-1.61-0.06-2.9-0.06-2.9-1.21-0.96 0.09-1.69z" fill="#fff" opacity=".8"/>
<path d="m55.47 154c-0.79-0.66-1.51-0.46-1.51 0s-0.33 0.2 0 0.83 0.53 0.23 0.33 0.62-1.09 0.56-0.48 0.87 1.2-0.64 1.2 0-0.07 1.18 0.46 0.91 0.4 0.79 0.53-0.26 0.13-0.93 0.53-1-1.06-1.97-1.06-1.97z" opacity=".1"/>
<path d="m93.75 158.49c1 2.34 0.61 5-0.48 4.06s-1.44-0.17-2.23 0.93 0.17 4.14-1.6 1.14-2-3.17-2.23-3.59 1.15-0.77 0.11-1-0.48-2.13 0.24-2.31 1.15 0.67 1.61 0.19 2.88 0.29 2.88 0.29 1.12-1.09 1.7 0.29z" fill="#FC6B54"/>
<path d="m93.75 158.49c1 2.34 0.61 5-0.48 4.06s-1.44-0.17-2.23 0.93 0.17 4.14-1.6 1.14-2-3.17-2.23-3.59 1.15-0.77 0.11-1-0.48-2.13 0.24-2.31 1.15 0.67 1.61 0.19 2.88 0.29 2.88 0.29 1.12-1.09 1.7 0.29z" fill="#fff" opacity=".8"/>
<path d="m92.67 162c0.75-0.7 0.64-1.45 0.18-1.5s-0.16-0.35-0.82-0.1-0.29 0.5-0.66 0.26-0.42-1.14-0.81-0.58 0.5 1.27-0.14 1.2-1.15-0.22-0.95 0.34-0.84 0.31 0.2 0.56 0.9 0.24 0.92 0.64 2.08-0.82 2.08-0.82z" opacity=".1"/>
<path d="m114.15 154.57c-1.83 1.75-4.43 2.36-4 1s-0.36-1.4-1.67-1.75-3.8 1.65-1.64-1.08 2.24-3 2.55-3.37 1.13 0.8 0.95-0.24 1.8-1.22 2.23-0.61-0.21 1.32 0.4 1.57 0.77 2.8 0.77 2.8 1.49 0.65 0.41 1.68z" fill="#FC6B54"/>
<path d="m114.15 154.57c-1.83 1.75-4.43 2.36-4 1s-0.36-1.4-1.67-1.75-3.8 1.65-1.64-1.08 2.24-3 2.55-3.37 1.13 0.8 0.95-0.24 1.8-1.22 2.23-0.61-0.21 1.32 0.4 1.57 0.77 2.8 0.77 2.8 1.49 0.65 0.41 1.68z" fill="#fff" opacity=".8"/>
<path d="m110.52 154.82c0.92 0.44 1.58 0.07 1.46-0.38s0.27-0.27-0.2-0.8-0.57-0.09-0.47-0.52 0.91-0.81 0.24-1-1 0.92-1.16 0.29-0.22-1.15-0.67-0.76-0.58-0.67-0.45 0.38 0.1 0.93-0.27 1.09 1.52 1.7 1.52 1.7z" opacity=".1"/>
<path d="m96.93 146c2.17-1.3 2.95-0.88 2.9 0s1.19 0.81 1.65 1.26 1.26 0.79 1.45 1.15 0.93 0 0.33 0.88-1 1-1.32 1.59-0.33 0.59-0.92 0.85 0.3 1.78-0.81 1.32-1.3 0.59-2.16-0.2-0.79-1.22-1.64-1.7-1.26 0.24-1.26-0.81-0.59-1.18 0-1.64a2.05 2.05 0 0 0 0.73 -1.12 3.4 3.4 0 0 1 1.05 -1.58z" fill="#FC6B54"/>
<path d="m96.93 146c2.17-1.3 2.95-0.88 2.9 0s1.19 0.81 1.65 1.26 1.26 0.79 1.45 1.15 0.93 0 0.33 0.88-1 1-1.32 1.59-0.33 0.59-0.92 0.85 0.3 1.78-0.81 1.32-1.3 0.59-2.16-0.2-0.79-1.22-1.64-1.7-1.26 0.24-1.26-0.81-0.59-1.18 0-1.64a2.05 2.05 0 0 0 0.73 -1.12 3.4 3.4 0 0 1 1.05 -1.58z" fill="#fff" opacity=".8"/>
<path d="m97 149.13c-0.27-1.15-0.2-1.66 0.59-1.2s0.73 1.1 1.12 0.52a3.09 3.09 0 0 0 0.48 -1.23 1.6 1.6 0 0 1 0.78 0c0.26 0.12 0.85 0.55 0.39 0.93s-1-0.15-0.46 0.38 0.86 0 1 0.6 0.79 1.3 0 1.17-0.33 0.27-0.79-0.12-1.16-0.6-0.91-0.14 0.46 0.93-0.14 0.73-1 0-1-0.47 0.66-0.39 0.14-0.72-1.08 0.06-1.2-0.45z" opacity=".1"/>
<path d="m12.77 338.17h145s-5.37-3.43-6.69-3.64-1.24 1-2.93 0-0.85 0.83-1.68-1-0.83-1-0.83-1.86-1.08-0.62-0.74-1.85 1.16-2.69-1.32-2.89-2.68 0.62-3.3 0-0.15-0.12-1.73 1 0.14 3.05-2.57 2.9a16 16 0 0 0 -4.36 0.25c-1.45-1.85 0-2.82-2.07-3a35.26 35.26 0 0 0 -4.28 -0.19c-1.7 1.71-1.29 2.44-2.32 2.9s-2.23 1.15-1.94 2.25 3.53 1.81 0.29 1.1 0.14 1.62-3.24-0.72-2-2.37-3.61-1.55-0.78-0.41-1.61 0.82a9.51 9.51 0 0 1 -3 2.34 2.43 2.43 0 0 1 -1.86 0.17c-1.35-0.24-3.62-0.76-3.62-0.76s0.41 2.65-0.82-1.4 0.2-3.23-1.24-4.06-2.32-2-4.36-2.33-0.15-0.56-2-0.35-3.2 0.7-3.76 1.59a7.43 7.43 0 0 1 -1.54 1.92 49.4 49.4 0 0 1 -5.35 3.15s-1.17 0.77-3.93-1.09-2.13-2.48-4-2.27-3.09 2.06-3.71 2.27a32.51 32.51 0 0 1 -3.71 0.41s3.66 0.28-1.57 0.76l-5.24 0.48s-1.26 1.47-1.31 0.28-2.61-2.86-3.64-3-2.48-1.4-3.3-1.4a3.27 3.27 0 0 0 -2.36 1.4c-0.74 0.87 1.94-1.19-0.74 0.87s-2.68 3-2.89 4.16-3.78 0-6-1.38-0.64-3.29-3.94-3.65-4 0.87-4 1.08 1.36-0.22-1.63 0.51-5.26 1.26-5.67 0.58 0.83-0.83-1.65-0.76a21.94 21.94 0 0 0 -6.19 1.71l-0.2 2.07s-5.81 0.67-6.84 2.18z" fill="#FC6B54"/>
<path d="m157.76 338.17h-145c0.5-0.73 2.11-1.27 3.63-1.63s3.17-0.58 3.17-0.58l0.21-2.07a21.59 21.59 0 0 1 6.19 -1.7c2.48-0.08 1.24 0.07 1.65 0.76s2.69 0.14 5.67-0.59 1.55-0.31 1.62-0.51 0.76-1.45 4.06-1.09 1.76 2.33 3.94 3.66 5.76 2.59 6 1.38 0.21-2.09 2.89-4.16 0 0 0.74-0.88a3.32 3.32 0 0 1 2.36 -1.39c0.82 0 2.26 1.24 3.3 1.39s3.59 1.83 3.64 3 1.31-0.28 1.31-0.28l5.23-0.48c5.24-0.49 1.57-0.76 1.57-0.76a35.12 35.12 0 0 0 3.72 -0.41c0.62-0.2 1.85-2.06 3.72-2.27s1.23 0.41 4 2.27a10.37 10.37 0 0 0 1.21 0.71c1.89 0.92 2.71 0.39 2.71 0.39s0.86-0.45 1.89-1l0.15-0.09a25.85 25.85 0 0 0 3.23 -2 7.43 7.43 0 0 0 1.54 -1.92c0.56-0.88 1.87-1.38 3.76-1.59s0 0 2 0.35 2.91 1.51 4.36 2.33 0 0 1.24 4.06c0.09 0.31 0.17 0.59 0.25 0.83 0.92 2.83 0.57 0.57 0.57 0.57s2.27 0.52 3.62 0.76 1.85-0.17 1.85-0.17a9.63 9.63 0 0 0 3 -2.34c0.82-1.23 0 0 1.61-0.82s0.24-0.78 3.61 1.55 0 0 3.24 0.72h0.06l1 0.21a0.86 0.86 0 0 0 0.18 0c0.25 0 0.19 0 0-0.11-0.41-0.2-1.39-0.68-1.54-1.26a1.26 1.26 0 0 1 0.05 -0.82 3.78 3.78 0 0 1 1.89 -1.44 1.49 1.49 0 0 0 0.58 -0.43 10.55 10.55 0 0 1 1.74 -2.46 36.41 36.41 0 0 1 4.28 0.2c2.07 0.13 0.62 1.1 2.07 2.95a15.13 15.13 0 0 1 3.56 -0.29h0.05 0.75c2.72 0.16 1-1.8 2.57-2.89s1.12-1.59 1.73-1 0.82-0.21 3.3 0 1.66 1.65 1.32 2.89 0.74 1 0.74 1.85 0 0 0.83 1.86 0 0 1.68 1a2.45 2.45 0 0 0 0.93 0.4c0.79 0.14 1-0.56 2-0.4 1.4 0.31 6.77 3.74 6.77 3.74z" fill="#fff" opacity=".7"/>
<path d="m30.13 335.7c0 1.28-0.58 2.19-0.21 2.47h-17.15c0.5-0.73 2.11-1.27 3.63-1.63 0.7 0.26 0.91 1.2 2.35 1a5.16 5.16 0 0 0 2.68 -1.52l1.07-0.85 1.61 0.58 2.27 1.25s-0.2-2.15 1-1.79 2.75-0.79 2.75 0.49z" opacity=".1"/>
<path d="m40.37 337.2l0.52 1h-2.09l-1.68-1.8-0.9-0.9 0.43-1.05a2.29 2.29 0 0 1 1.8 -0.53c1.26 0.07 2.32 1.69 2.32 1.69l-0.4 1.59z" opacity=".1"/>
<path d="m87.29 331.85h-0.1l0.15-0.09s-0.04 0.08-0.05 0.09z" opacity=".1"/>
<path d="m103.55 333c0.09 0.31 0.17 0.59 0.25 0.83-0.04 0.06-0.05 0-0.25-0.83z" opacity=".1"/>
<path d="m157.76 338.17h-110.33a8.76 8.76 0 0 0 3.09 -2.21c0.83-1.22 2.07-2.72 3.3-2.18s1 0.06 1.86 1.23l0.83 1.18s-0.62 0.58 2.88-0.12a47.87 47.87 0 0 1 5.57 -0.85l1.86 0.85s1.19 1.95 1.52 0a7.12 7.12 0 0 0 0 -3.05l2.61 0.76s2.59-0.28 1.6 0.75l-1 1 2.68 2 1.27-0.58a2.88 2.88 0 0 1 0 -1.83c0.38-0.65 2.23-0.63 2.23-0.63v1.52s0.83 1.16 1.45 0.94 2.27 1 2.68 0 1.55-0.9 1.4-2-0.29 0-0.16-1.1a2.73 2.73 0 0 0 -0.57 -1.35c1.89 0.92 2.71 0.39 2.71 0.39a7.29 7.29 0 0 1 0 2.85s1.6 1.43 2.41 1.21 0.82 1 0.82-0.21-2.34-2.52 0-2.25a10.24 10.24 0 0 1 4.6 2.22l0.77-1.59 0.11-2.78 0.51-1s1-2.27 1.12-0.65 0.63 0.14 0.16 1.64l-0.46 1.49s2.11 0.79 1.85 0.1a3.25 3.25 0 0 1 0.18 -1.8s-1.87-3.33 0-1.43 2.09 0.47 1.88 1.91-0.82-0.2-0.2 1.45-1.24 0.82 0.62 1.65 2.48 2.28 2.68 1.24 2.89-1.18 2.06-2.59c0 0 2.27 0.52 3.62 0.76l0.95 0.62 5.82 1.21s-1.07-0.87 0-1.37 0 1.59 1.12 1.35 3.31 0.65 3.93 0 3.08 0.83 2.88-0.94c-0.11-1.08-0.16-1.51-0.18-1.68v-0.11a0.63 0.63 0 0 1 -0.17 0.07 0.88 0.88 0 0 1 -1 -0.21 1.91 1.91 0 0 1 -0.32 -1.05 3.18 3.18 0 0 1 0.05 -0.82 3.78 3.78 0 0 1 1.89 -1.44 1.49 1.49 0 0 0 0.58 -0.43 1.73 1.73 0 0 1 0.45 0.9c0 0.62 1.29 1.79 1.29 1.79s-0.25-2.1 0.67-2.26 3.41 0.06 3 1.09 2.16 2.46 0.05 2.57l-2.11 0.11s-1.44 1.41 0.41 1.43 1.57-1.1 2.54-0.74 0.83 1.51 1.21-0.21a6.55 6.55 0 0 0 0.16 -2.65s0.1-0.88 0.89-0.17 1.58 0.44 1.18 1.7-2.88 0.23-0.41 1.26 2.75 0.79 3.13 0.81 1.52-2.94 1.52-2.94-1.71 0.05-1.53-0.66-1.71-1.51-0.8-1.63h0.05a5.55 5.55 0 0 1 0.75 0c2.44 0.26 1.88 0.52 2.57 1.43a5.1 5.1 0 0 1 0.9 1.7s1.61 0.7 2.34 1l0.35 0.05c3.92 0.62 4.42 2.07 4.42 2.07s2.26 0.28 2.73-0.94a1.34 1.34 0 0 0 -0.21 -1.14c-0.31-0.55-0.46-0.79 2-0.4 1.32 0.26 6.69 3.69 6.69 3.69z" opacity=".1"/>
<path d="m29.16 330.74c2.4 0.79 4.16 2.8 2.75 3s-1.07 1-0.76 2.31 3.25 2.58-0.15 1.95-3.72-0.55-4.17-0.67 0.17-1.37-0.66-0.72-1.92-1-1.59-1.68 1.26-0.44 1.2-1.09 2.1-2 2.1-2-0.14-1.57 1.28-1.1z" fill="#FC6B54"/>
<path d="m29.16 330.74c2.4 0.79 4.16 2.8 2.75 3s-1.07 1-0.76 2.31 3.25 2.58-0.15 1.95-3.72-0.55-4.17-0.67 0.17-1.37-0.66-0.72-1.92-1-1.59-1.68 1.26-0.44 1.2-1.09 2.1-2 2.1-2-0.14-1.57 1.28-1.1z" fill="#fff" opacity=".8"/>
<path d="m31.08 333.83c0-1-0.67-1.43-1-1.12s-0.37-0.11-0.61 0.56 0.18 0.54-0.24 0.66-1.15-0.42-1 0.24 1.29 0.45 0.81 0.89-0.92 0.73-0.36 0.94-0.32 0.83 0.55 0.22 0.77-0.52 1.09-0.28 0.76-2.11 0.76-2.11z" opacity=".1"/>
<path d="m128.92 336.6c-1.92 1.66-4.54 2.13-4 0.81s-0.3-1.42-1.59-1.83-3.87 1.46-1.58-1.16 2.38-2.9 2.71-3.24 1.09 0.85 1-0.19 1.86-1.13 2.26-0.5-0.27 1.3 0.32 1.59 0.63 2.83 0.63 2.83 1.38 0.71 0.25 1.69z" fill="#FC6B54"/>
<path d="m128.92 336.6c-1.92 1.66-4.54 2.13-4 0.81s-0.3-1.42-1.59-1.83-3.87 1.46-1.58-1.16 2.38-2.9 2.71-3.24 1.09 0.85 1-0.19 1.86-1.13 2.26-0.5-0.27 1.3 0.32 1.59 0.63 2.83 0.63 2.83 1.38 0.71 0.25 1.69z" fill="#fff" opacity=".8"/>
<path d="m125.28 336.66c0.9 0.49 1.57 0.16 1.48-0.3s0.28-0.26-0.16-0.8-0.57-0.12-0.45-0.55 0.95-0.76 0.29-0.95-1.05 0.87-1.18 0.24-0.15-1.17-0.62-0.8-0.55-0.7-0.47 0.36 0.05 0.93-0.32 1.08 1.43 1.72 1.43 1.72z" opacity=".1"/>
<path d="m17.39 331c2.17-1.29 3-0.88 2.91 0s1.18 0.82 1.64 1.27 1.26 0.79 1.45 1.14 0.93 0 0.33 0.89-1 1-1.32 1.58-0.32 0.59-0.92 0.86 0.3 1.78-0.81 1.32-1.3 0.59-2.16-0.2-0.79-1.22-1.64-1.7-1.26 0.24-1.26-0.81-0.59-1.18 0-1.65a2.05 2.05 0 0 0 0.73 -1.12 3.4 3.4 0 0 1 1.05 -1.58z" fill="#FC6B54"/>
<path d="m17.39 331c2.17-1.29 3-0.88 2.91 0s1.18 0.82 1.64 1.27 1.26 0.79 1.45 1.14 0.93 0 0.33 0.89-1 1-1.32 1.58-0.32 0.59-0.92 0.86 0.3 1.78-0.81 1.32-1.3 0.59-2.16-0.2-0.79-1.22-1.64-1.7-1.26 0.24-1.26-0.81-0.59-1.18 0-1.65a2.05 2.05 0 0 0 0.73 -1.12 3.4 3.4 0 0 1 1.05 -1.58z" fill="#fff" opacity=".8"/>
<path d="m17.46 334.18c-0.27-1.14-0.2-1.65 0.59-1.19s0.73 1.09 1.12 0.51a3.07 3.07 0 0 0 0.48 -1.22 1.6 1.6 0 0 1 0.78 0c0.26 0.12 0.85 0.54 0.39 0.92s-1-0.14-0.46 0.38 0.86 0 1 0.6 0.79 1.3 0 1.18-0.33 0.27-0.79-0.13-1.16-0.59-0.91-0.13 0.46 0.92-0.14 0.72-1 0-1-0.46 0.66-0.39 0.14-0.72-1.08 0.05-1.2-0.46z" opacity=".1"/>
<path d="m95 331c2.17-1.29 2.95-0.88 2.9 0s1.19 0.82 1.65 1.27 1.26 0.79 1.45 1.14 0.93 0 0.33 0.89-1 1-1.32 1.58-0.33 0.59-0.92 0.86 0.3 1.78-0.81 1.32-1.3 0.59-2.16-0.2-0.79-1.22-1.64-1.7-1.26 0.24-1.26-0.81-0.59-1.18 0-1.65a2.05 2.05 0 0 0 0.73 -1.12 3.4 3.4 0 0 1 1.05 -1.58z" fill="#FC6B54"/>
<path d="m95 331c2.17-1.29 2.95-0.88 2.9 0s1.19 0.82 1.65 1.27 1.26 0.79 1.45 1.14 0.93 0 0.33 0.89-1 1-1.32 1.58-0.33 0.59-0.92 0.86 0.3 1.78-0.81 1.32-1.3 0.59-2.16-0.2-0.79-1.22-1.64-1.7-1.26 0.24-1.26-0.81-0.59-1.18 0-1.65a2.05 2.05 0 0 0 0.73 -1.12 3.4 3.4 0 0 1 1.05 -1.58z" fill="#fff" opacity=".8"/>
<path d="m95 334.18c-0.27-1.14-0.2-1.65 0.59-1.19s0.73 1.09 1.12 0.51a3.07 3.07 0 0 0 0.48 -1.22 1.6 1.6 0 0 1 0.78 0c0.26 0.12 0.85 0.54 0.39 0.92s-1-0.14-0.46 0.38 0.86 0 1 0.6 0.79 1.3 0 1.18-0.33 0.27-0.79-0.13-1.16-0.59-0.91-0.13 0.46 0.92-0.14 0.72-1 0-1-0.46 0.66-0.39 0.14-0.72-1.05 0.05-1.2-0.46z" opacity=".1"/>
<path d="m134.91 158.52c-1.64 1.91-2.52 1.77-2.75 0.92s-1.38-0.4-2-0.68-1.44-0.35-1.74-0.63-0.88 0.27-0.59-0.73 0.62-1.25 0.75-1.92a1.33 1.33 0 0 1 0.6 -1.11c0.48-0.43-0.84-1.59 0.35-1.5s1.05-1 2.11-0.5 1.14 0.91 2.1 1.09 1.12-0.62 1.45 0.38 0.94 0.93 0.52 1.56a2 2 0 0 0 -0.33 1.29 3.39 3.39 0 0 1 -0.47 1.83z" fill="#FC6B54"/>
<path d="m134.91 158.52c-1.64 1.91-2.52 1.77-2.75 0.92s-1.38-0.4-2-0.68-1.44-0.35-1.74-0.63-0.88 0.27-0.59-0.73 0.62-1.25 0.75-1.92a1.33 1.33 0 0 1 0.6 -1.11c0.48-0.43-0.84-1.59 0.35-1.5s1.05-1 2.11-0.5 1.14 0.91 2.1 1.09 1.12-0.62 1.45 0.38 0.94 0.93 0.52 1.56a2 2 0 0 0 -0.33 1.29 3.39 3.39 0 0 1 -0.47 1.83z" fill="#fff" opacity=".8"/>
<path d="m133.85 155.54c0.62 1 0.71 1.5-0.19 1.32s-1-0.81-1.22-0.14a3.25 3.25 0 0 0 -0.07 1.32 1.57 1.57 0 0 1 -0.73 0.24c-0.29 0-1-0.24-0.67-0.75s1-0.17 0.32-0.51-0.82 0.26-1.13-0.25-1.16-1-0.37-1.12 0.23-0.36 0.79-0.13 1.28 0.2 0.9-0.16-0.73-0.73-0.1-0.73 1-0.31 1.1 0.12-0.5 0.58 0.1 0.73 0.99-0.39 1.27 0.06z" opacity=".1"/>
<path d="m70.86 155.5c-1.65 1.91-2.52 1.76-2.75 0.92s-1.39-0.4-2-0.68-1.44-0.36-1.74-0.63-0.88 0.26-0.59-0.74 0.63-1.25 0.75-1.92a1.35 1.35 0 0 1 0.61 -1.1c0.48-0.44-0.85-1.6 0.35-1.51s1-1 2.11-0.49 1.13 0.91 2.1 1.09 1.11-0.62 1.44 0.37 0.94 0.94 0.52 1.56a2.12 2.12 0 0 0 -0.33 1.29 3.47 3.47 0 0 1 -0.47 1.84z" fill="#FC6B54"/>
<path d="m70.86 155.5c-1.65 1.91-2.52 1.76-2.75 0.92s-1.39-0.4-2-0.68-1.44-0.36-1.74-0.63-0.88 0.26-0.59-0.74 0.63-1.25 0.75-1.92a1.35 1.35 0 0 1 0.61 -1.1c0.48-0.44-0.85-1.6 0.35-1.51s1-1 2.11-0.49 1.13 0.91 2.1 1.09 1.11-0.62 1.44 0.37 0.94 0.94 0.52 1.56a2.12 2.12 0 0 0 -0.33 1.29 3.47 3.47 0 0 1 -0.47 1.84z" fill="#fff" opacity=".8"/>
<path d="m69.79 152.51c0.62 1 0.71 1.51-0.18 1.32s-1-0.81-1.23-0.13a3.1 3.1 0 0 0 -0.06 1.31 1.59 1.59 0 0 1 -0.74 0.25c-0.29 0-1-0.25-0.67-0.76s1-0.17 0.32-0.5-0.82 0.26-1.13-0.26-1.16-1-0.37-1.11 0.23-0.36 0.79-0.13 1.29 0.19 0.91-0.17-0.74-0.72-0.1-0.73 1-0.3 1.09 0.13-0.5 0.58 0.1 0.72 1-0.39 1.27 0.06z" opacity=".1"/>
<path transform="rotate(180 557.99 549.22)" d="m809.83 818.79h110.3a4.21 4.21 0 0 1 4.21 4.21v65.39a18.48 18.48 0 0 1 -18.48 18.48h-81.75a18.48 18.48 0 0 1 -18.48 -18.48v-65.39a4.21 4.21 0 0 1 4.2 -4.21z" fill="#263238"/>
<path transform="rotate(180 557.99 549.22)" d="m809.83 818.79h110.3a4.21 4.21 0 0 1 4.21 4.21v65.39a18.48 18.48 0 0 1 -18.48 18.48h-81.75a18.48 18.48 0 0 1 -18.48 -18.48v-65.39a4.21 4.21 0 0 1 4.2 -4.21z" fill="#fff" opacity=".4"/>
<path transform="rotate(180 384.86 636.39)" d="m578.08 935.1h54.41v98.12a18.84 18.84 0 0 1 -18.84 18.84h-16.73a18.84 18.84 0 0 1 -18.84 -18.84v-98.12z" fill="#263238"/>
<path transform="rotate(180 384.86 636.39)" d="m578.08 935.1h54.41v98.12a18.84 18.84 0 0 1 -18.84 18.84h-16.73a18.84 18.84 0 0 1 -18.84 -18.84v-98.12z" fill="#fff" opacity=".4"/>
<path d="m137.22 337.68h31.3v-101.32a15.65 15.65 0 0 0 -15.65 -15.65 15.65 15.65 0 0 0 -15.65 15.65v101.32z" fill="#fff" opacity=".5"/>
<rect transform="rotate(180 522.24 714.21)" x="753.35" y="1090.7" width="116.02" height="39.14" fill="#263238"/>
<rect transform="rotate(180 522.24 714.21)" x="753.35" y="1090.7" width="116.02" height="39.14" fill="#fff" opacity=".4"/>
<rect transform="rotate(180 515.28 660.89)" x="730.48" y="1009.8" width="140.89" height="41.07" rx="19.15" fill="#263238"/>
<rect transform="rotate(180 515.28 660.89)" x="730.48" y="1009.8" width="140.89" height="41.07" rx="19.15" fill="#fff" opacity=".6"/>
<rect transform="rotate(180 602.62 660.89)" x="905.44" y="1009.8" width="52.98" height="41.07" rx="19.15" opacity=".2"/>
<path d="m205 187.53l1.58-5.35a11.72 11.72 0 0 1 0 -3.82c0.4-1.32 7-5.53 7.78-5.47s2.3 5.86 2.34 6.65-4.63 4.75-4.87 4.75-1.56-0.13-1.56-0.13l-1.18 5.14-4.09-1.77z" fill="#e4897b"/>
<path d="m223.85 193.21s-0.57 0.94-1.54 2.38c-0.53 0.77-1.17 1.68-1.89 2.68s-1.4 1.88-2.2 2.86c-4.42 5.51-10.54 11.43-14.87 8.82-5.16-3.12 0.92-26.08 0.92-26.08l6.86 1.16s-2.44 13-1.91 13.15c0.15 0 0.65-1.11 1.38-2.83s1.76-4.15 2.88-6.45c1.54-3.17 3.31-6.18 5-7.24l4.35 3.9 0.19 1.36 0.83 6.29z" fill="#FC6B54"/>
<path d="m222.31 195.59c-0.53 0.77-1.17 1.68-1.89 2.68s-1.4 1.88-2.2 2.86a79.56 79.56 0 0 0 -7.62 -5.78c0.76-1.77 1.76-4.15 2.88-6.45a39.61 39.61 0 0 1 8.83 6.69z" fill="#fff" opacity=".6"/>
<path d="m223.85 193.21s-1.35 2.21-3.43 5.06c-1.05-6 0.77-13.11 0.77-13.11l1.79 1.76 0.87 6.29z" opacity=".2"/>
<path d="m272.46 228.32h-40.89c-0.74-4.25-1.64-9-2.78-14-1-4.35-2.14-8.91-3.51-13.55a163.94 163.94 0 0 0 -6.84 -19.15 84.48 84.48 0 0 1 11.43 -3.88 156.12 156.12 0 0 1 17.29 -3.63 79.34 79.34 0 0 1 12.14 -0.33 60.47 60.47 0 0 1 3.11 7.51c1 2.65 2.06 6.05 3.22 10.24 0.29 1.05 0.58 2.15 0.87 3.29 0.1 0.39 0.19 0.78 0.29 1.17 1 4 2 8.55 2.93 13.72q0.58 3.24 1.14 6.79 0.87 5.5 1.6 11.82z" fill="#FC6B54"/>
<path d="m237.52 159.58c1.55 5.58 5.21 15.39 10.47 17 0 0-3.87 6.33-9.66 6.86-3.69 0.33-5.73-3.83-5.73-3.83 3.76-0.7 2.32-3.45-0.64-6.91l5.56-13.12z" fill="#e4897b"/>
<path d="m235.26 164.93l-3.26 7.78a19 19 0 0 1 1.89 2.56c3.69 0.28 6.34-5.58 5.44-8-0.33-0.94-3.42-1.54-4.07-2.34z" opacity=".2"/>
<path d="m225.85 149.94c3.25 2 2 5.69-4.93 11.66-3.05-3.64-3.84-10.91-1.61-12.84s3.69-0.56 6.54 1.18z" fill="#263238"/>
<path d="m239.65 155.24c0 7.71 0.36 12.23-3.28 16.4-5.49 6.28-15.18 3.33-17.47-4.24-2-6.8-1.69-18.28 5.66-21.78a10.51 10.51 0 0 1 15.09 9.62z" fill="#e4897b"/>
<path d="m228.3 158c0 0.62-0.27 1.15-0.68 1.17s-0.76-0.46-0.8-1.08 0.26-1.16 0.67-1.19 0.73 0.51 0.81 1.1z" fill="#263238"/>
<path d="m221.19 158.46c0 0.62-0.27 1.15-0.68 1.17s-0.77-0.46-0.81-1.09 0.27-1.15 0.68-1.17 0.77 0.46 0.81 1.09z" fill="#263238"/>
<path d="m223.53 158.61a22.62 22.62 0 0 1 -2.68 5.53 3.61 3.61 0 0 0 3 0.38l-0.32-5.91z" fill="#de5753"/>
<path d="m230.11 155.67a0.39 0.39 0 0 0 0.23 -0.07 0.37 0.37 0 0 0 0.05 -0.52 3.66 3.66 0 0 0 -3.08 -1.34 0.37 0.37 0 0 0 -0.33 0.39 0.38 0.38 0 0 0 0.41 0.32 2.9 2.9 0 0 1 2.42 1.08 0.4 0.4 0 0 0 0.3 0.14z" fill="#263238"/>
<path d="m217.81 156.25a0.39 0.39 0 0 0 0.32 -0.23 2.93 2.93 0 0 1 2 -1.78 0.38 0.38 0 0 0 0.29 -0.44 0.36 0.36 0 0 0 -0.42 -0.29 3.66 3.66 0 0 0 -2.52 2.23 0.36 0.36 0 0 0 0.2 0.48 0.41 0.41 0 0 0 0.13 0.03z" fill="#263238"/>
<path d="m236.19 148.61c-3.52 1.44-2.85 5.29 3 12.29 3.6-3.09 5.56-10.14 3.67-12.39s-3.59-1.16-6.67 0.1z" fill="#263238"/>
<path d="m243.68 161.17a7.3 7.3 0 0 1 -3.22 4.59c-2.19 1.35-4-0.43-4-2.86 0-2.19 1.15-5.55 3.63-5.91s4.1 1.85 3.59 4.18z" fill="#e4897b"/>
<path d="m225.1 166.46a19.28 19.28 0 0 1 1.58 2.28l0.45-0.18c2.06-0.83 2.74-1.89 2.87-2.81a2.83 2.83 0 0 0 -0.16 -1.34 2.67 2.67 0 0 0 -0.35 -0.69 10.58 10.58 0 0 1 -3.69 2.45c-0.42 0.19-0.7 0.29-0.7 0.29z" fill="#263238"/>
<path d="m225.8 166.17l0.48 0.66c1.93-0.79 3.19-1.59 3.56-2.42a2.67 2.67 0 0 0 -0.35 -0.69 10.58 10.58 0 0 1 -3.69 2.45z" fill="#fff"/>
<path d="m227.13 168.56c2.06-0.83 2.74-1.89 2.87-2.81a7.12 7.12 0 0 0 -2.1 1.36 2.72 2.72 0 0 0 -0.77 1.45z" fill="#a24e3f"/>
<path d="m235.67 150.11s-9.1-4.47-14.84 1.23a7.65 7.65 0 0 1 4.25 -3.63s-4.5-0.19-5.75 3v-1.93l-2.72 0.58s1.3-6.09 6.19-6.29a4.62 4.62 0 0 0 -3.45 0.67s2.56-5.73 10.6-4.89 12 7.77 11.51 10.06-5.79 1.2-5.79 1.2z" fill="#263238"/>
<path d="m228 241.41s-62.23-8.94-65.51 4.71c-3.49 14.44 46.51 24.18 76.34 25.19s38.42-6.09 33.63-43h-40.88l-3.58 13.1z" fill="#263238"/>
<path d="m228 241.41s-62.23-8.94-65.51 4.71c-3.49 14.44 46.51 24.18 76.34 25.19s38.42-6.09 33.63-43h-40.88l-3.58 13.1z" opacity=".2"/>
<polygon points="193.34 269.88 180.3 269.88 174.04 269.89 173.29 263.3 179.08 262.53 193.22 260.63" fill="#e4897b"/>
<path d="m174.7 262.47l1.59 7.52a0.77 0.77 0 0 1 -0.61 0.91l-3.75 0.67s-5 1.27-6.37 0.38c-4.09-2.61-8-19.16-6.36-20.39 0.61-0.45 1.66 0.23 2.19 0.77 1.68 1.72 5.25 6.49 6.67 7.9 1.65 1.66 4.58 1.71 5.87 1.64a0.75 0.75 0 0 1 0.77 0.6z" fill="#263238"/>
<polygon points="193.34 269.88 180.3 269.88 179.08 262.53 193.22 260.63" opacity=".2"/>
<path d="m174.7 262.47l1.59 7.52a0.77 0.77 0 0 1 -0.61 0.91l-3.75 0.67s-5 1.27-6.37 0.38c-4.09-2.61-8-19.16-6.36-20.39 0.61-0.45 1.66 0.23 2.19 0.77 1.68 1.72 5.25 6.49 6.67 7.9 1.65 1.66 4.58 1.71 5.87 1.64a0.75 0.75 0 0 1 0.77 0.6z" fill="#fff" opacity=".2"/>
<polygon points="212.39 258.24 224.76 262.35 230.71 264.33 229.33 270.82 223.59 269.72 209.58 267.04" fill="#e4897b"/>
<path d="m227.73 271.15l0.87-7.63a0.76 0.76 0 0 1 0.87 -0.67l3.77 0.55s5.12 0.37 6.16 1.66c3.05 3.77 1.56 20.71-0.41 21.35-0.72 0.23-1.51-0.75-1.84-1.43-1-2.15-2.93-7.81-3.82-9.6-1.05-2.09-3.81-3.07-5.06-3.41a0.76 0.76 0 0 1 -0.54 -0.82z" fill="#263238"/>
<polygon points="212.39 258.24 224.76 262.35 223.59 269.72 209.58 267.04" opacity=".2"/>
<polygon points="221.44 270.87 217.91 271.2 220.02 259 224.07 261.13" fill="#FC6B54"/>
<polygon points="221.44 270.87 217.91 271.2 220.02 259 224.07 261.13" fill="#fff" opacity=".6"/>
<path d="m227.73 271.15l0.87-7.63a0.76 0.76 0 0 1 0.87 -0.67l3.77 0.55s5.12 0.37 6.16 1.66c3.05 3.77 1.56 20.71-0.41 21.35-0.72 0.23-1.51-0.75-1.84-1.43-1-2.15-2.93-7.81-3.82-9.6-1.05-2.09-3.81-3.07-5.06-3.41a0.76 0.76 0 0 1 -0.54 -0.82z" fill="#fff" opacity=".2"/>
<path d="m233.25 275.29a2.66 2.66 0 0 1 -0.23 1.62 1 1 0 0 1 -0.92 0.46 0.59 0.59 0 0 1 -0.55 -0.28c-0.53-0.9 0.71-3.67 0.86-4a0.16 0.16 0 0 1 0.17 -0.1 0.19 0.19 0 0 1 0.17 0.14 10.56 10.56 0 0 1 0.5 2.16zm-1.47 1.33a0.79 0.79 0 0 0 0.08 0.26 0.22 0.22 0 0 0 0.22 0.11 0.64 0.64 0 0 0 0.63 -0.31 4.28 4.28 0 0 0 -0.15 -2.95 8.33 8.33 0 0 0 -0.78 2.89z" fill="#FC6B54"/>
<path d="m232.78 273.18v0.08c-0.35 0.89-1.87 2.65-2.75 2.53a0.65 0.65 0 0 1 -0.53 -0.6 1.11 1.11 0 0 1 0.15 -0.85c0.63-1 2.83-1.34 2.95-1.34a0.15 0.15 0 0 1 0.17 0.09 0.16 0.16 0 0 1 0.01 0.09zm-2.95 1.82v0.09c0.06 0.26 0.17 0.27 0.22 0.28 0.51 0.07 1.68-1.07 2.19-2a4 4 0 0 0 -2.31 1.12 0.69 0.69 0 0 0 -0.11 0.46l0.01 0.05z" fill="#FC6B54"/>
<path d="m181.48 261.57s57.89-22.48 75.62-18.73 17.81 13 8.82 21.68-22.41 5.32-22.41 5.32 10.55-6.32 9.81-10.22-7.44 5-7.44 5-35 8.55-63.87 6.3l-0.53-9.35z" fill="#263238"/>
<polygon points="180.78 261.39 184.03 259.9 185.9 272.08 181.38 271.35" fill="#FC6B54"/>
<polygon points="180.78 261.39 184.03 259.9 185.9 272.08 181.38 271.35" fill="#fff" opacity=".6"/>
<path d="m224.08 155.6h-8.35v4.25a0.69 0.69 0 0 0 0.69 0.69h6.23a0.67 0.67 0 0 0 0.62 -0.39l0.57-1.17 0.58 1.17a0.67 0.67 0 0 0 0.62 0.39h6.23a0.69 0.69 0 0 0 0.69 -0.69v-4.25h-7.88z" fill="#FC6B54"/>
<rect x="216.69" y="156.38" width="5.43" height="3.38" opacity=".6"/>
<rect transform="rotate(180 512.56 394.14)" x="794.12" y="628.52" width="5.43" height="3.38" fill="#fff" opacity=".7"/>
<polygon points="231.96 155.6 239.66 155.6 240.27 156.93 239.48 156.94 239.05 156.27 231.64 157.36" fill="#FC6B54"/>
<path d="m203.82 223.51c0-1.55-0.16-2.08 0.53-2.71s1.49-1.05 1.85-0.69a10.22 10.22 0 0 0 1.25 1.25c0.13 0 1.05-1.15 1.32-1.12s0.43 0 0.72-0.72-0.1-0.73 0.66-0.89 0.7-0.6 1.26-0.2 2 1.12 1.91 1.45 1.67 0.3 1.81 0 0.3-2.14 1-2 1.52-0.36 1.75-0.29a0.83 0.83 0 0 1 0.66 0.85 9.51 9.51 0 0 1 0.16 1.42c0 0.3 1.39-0.44 1.4-1.21a0.83 0.83 0 0 1 0.88 -0.93c0.36 0 1 0.1 1.15 0.41s0.37 0.51 0.3 0.81 0 0.56 0.56 0.69 1.35 0.59 1.35 0a1.75 1.75 0 0 1 0.46 -1.19 1.19 1.19 0 0 1 0.7 -0.13c0.13 0.06 1.41 0.33 1.68 0.39s0.79-0.49 0.79 0.27-0.24 1 0 1.25a2.49 2.49 0 0 0 0.92 0.73c0.2 0 1.78 0.52 2.31-0.2s1.56-1 1.78-0.5 1.14 1 0.9 1.56-1.27 1.21-0.18 1.36 1.62 0.58 2.11-0.08 0.7-1.29 1.42-0.73 1.65 0.46 1.49 1.16a3 3 0 0 1 -0.63 1.12c0 0.1-0.3 1 1 0.79s2-0.07 2.14 1a21.74 21.74 0 0 1 0.16 2.31c0 0.33-36.72 5-38.88 3.33s-2.23-1.85-2.89-3.3-0.49-1.28 0-3.2 1.22-2.3 1.65-2.07 1.09 1.12 1.62 0.85a3.19 3.19 0 0 0 0.93 -0.84z" fill="#FC6B54"/>
<path d="m203.82 223.51c0-1.55-0.16-2.08 0.53-2.71s1.49-1.05 1.85-0.69a10.22 10.22 0 0 0 1.25 1.25c0.13 0 1.05-1.15 1.32-1.12s0.43 0 0.72-0.72-0.1-0.73 0.66-0.89 0.7-0.6 1.26-0.2 2 1.12 1.91 1.45 1.67 0.3 1.81 0 0.3-2.14 1-2 1.52-0.36 1.75-0.29a0.83 0.83 0 0 1 0.66 0.85 9.51 9.51 0 0 1 0.16 1.42c0 0.3 1.39-0.44 1.4-1.21a0.83 0.83 0 0 1 0.88 -0.93c0.36 0 1 0.1 1.15 0.41s0.37 0.51 0.3 0.81 0 0.56 0.56 0.69 1.35 0.59 1.35 0a1.75 1.75 0 0 1 0.46 -1.19 1.19 1.19 0 0 1 0.7 -0.13c0.13 0.06 1.41 0.33 1.68 0.39s0.79-0.49 0.79 0.27-0.24 1 0 1.25a2.49 2.49 0 0 0 0.92 0.73c0.2 0 1.78 0.52 2.31-0.2s1.56-1 1.78-0.5 1.14 1 0.9 1.56-1.27 1.21-0.18 1.36 1.62 0.58 2.11-0.08 0.7-1.29 1.42-0.73 1.65 0.46 1.49 1.16a3 3 0 0 1 -0.63 1.12c0 0.1-0.3 1 1 0.79s2-0.07 2.14 1a21.74 21.74 0 0 1 0.16 2.31c0 0.33-36.72 5-38.88 3.33s-2.23-1.85-2.89-3.3-0.49-1.28 0-3.2 1.22-2.3 1.65-2.07 1.09 1.12 1.62 0.85a3.19 3.19 0 0 0 0.93 -0.84z" fill="#fff" opacity=".6"/>
<path d="m203.3 227.26c-0.59-2-1.29-2.47-0.35-3.56s1.09-1.08 1.73-0.89 1.09 0.33 1-0.6-1-0.68 0.35-1.45 1.23-0.91 2.17-0.86 2.13 0.2 1.58 0.86-1.73 0.42-0.54 0.67 1 1.53 1.63 0.2 0.69-1.21 0.64-1.74-0.74-0.83 0.6-0.83 2.32-1.09 2.42 0 0.59 0.89 0 1.38 0.54 1 1.24 0.89 2.12 0.2 2.07-0.57-0.19-0.62 0-1.46-0.5-1.33 0.59-1.08 1.88 0.34 2 0.89 0.15 0.74 0 1 0.65 2.58 1.64 1.34 0.84-0.45 1.33-1.53-0.44-2 0.89-1.19 2.18 0.3 1.83 1-1.19 0.79-0.49 1.23 1.68 1.54 2.27 0.45-0.2-1.43 0.84-1.39 1.49-0.74 1.58 0.35-0.54 0.59 0 1.29 1.68 1.79 2.18 0.69 0.05-2.67 0.64-1.66 1.24 1.6 1 1.95-1.2-0.54-0.48 0.45 0.19 1.34 1.08 1 0.35-1.22 1.63-0.2 1.43 1.09 1.28 2.42a5.46 5.46 0 0 1 -4.6 5.05c-3.74 0.9-28.62-0.29-29.75-4.1z" fill="#FC6B54"/>
<path d="m203.3 227.26c-0.59-2-1.29-2.47-0.35-3.56s1.09-1.08 1.73-0.89 1.09 0.33 1-0.6-1-0.68 0.35-1.45 1.23-0.91 2.17-0.86 2.13 0.2 1.58 0.86-1.73 0.42-0.54 0.67 1 1.53 1.63 0.2 0.69-1.21 0.64-1.74-0.74-0.83 0.6-0.83 2.32-1.09 2.42 0 0.59 0.89 0 1.38 0.54 1 1.24 0.89 2.12 0.2 2.07-0.57-0.19-0.62 0-1.46-0.5-1.33 0.59-1.08 1.88 0.34 2 0.89 0.15 0.74 0 1 0.65 2.58 1.64 1.34 0.84-0.45 1.33-1.53-0.44-2 0.89-1.19 2.18 0.3 1.83 1-1.19 0.79-0.49 1.23 1.68 1.54 2.27 0.45-0.2-1.43 0.84-1.39 1.49-0.74 1.58 0.35-0.54 0.59 0 1.29 1.68 1.79 2.18 0.69 0.05-2.67 0.64-1.66 1.24 1.6 1 1.95-1.2-0.54-0.48 0.45 0.19 1.34 1.08 1 0.35-1.22 1.63-0.2 1.43 1.09 1.28 2.42a5.46 5.46 0 0 1 -4.6 5.05c-3.74 0.9-28.62-0.29-29.75-4.1z" fill="#fff" opacity=".7"/>
<path d="m239 231.19h2.11v-1.79a6.28 6.28 0 0 0 -0.68 0.07c-1.25 0.2-1-0.69-0.95-0.79a2.85 2.85 0 0 0 0.62 -1.12c0.17-0.69-0.75-0.59-1.48-1.15s-0.92 0.06-1.42 0.72-1 0.23-2.11 0.09-0.06-0.78 0.18-1.37-0.69-1-0.9-1.55-1.25-0.23-1.78 0.49-2.11 0.23-2.31 0.2a2.39 2.39 0 0 1 -0.92 -0.73c-0.24-0.29 0-0.49 0-1.25s-0.53-0.2-0.79-0.26-1.55-0.33-1.69-0.4a1.35 1.35 0 0 0 -0.69 0.13 1.78 1.78 0 0 0 -0.46 1.19c0 0.63-0.82 0.16-1.35 0s-0.63-0.39-0.56-0.69-0.17-0.49-0.3-0.8-0.79-0.42-1.15-0.42a0.84 0.84 0 0 0 -0.88 0.94c0 0.77-1.43 1.5-1.4 1.21a11.1 11.1 0 0 0 -0.16 -1.42 0.86 0.86 0 0 0 -0.66 -0.86c-0.23-0.07-1 0.46-1.75 0.3s-0.89 1.68-1 2-1.91 0.32-1.81 0-1.36-1.06-1.92-1.46-0.49 0-1.25 0.2-0.36 0.13-0.66 0.89-0.46 0.76-0.72 0.73-1.19 1.12-1.32 1.12a10.22 10.22 0 0 1 -1.25 -1.25c-0.36-0.37-1.16 0.06-1.85 0.69s-0.56 1.15-0.53 2.7a3.16 3.16 0 0 1 -0.95 0.86c-0.53 0.26-1.19-0.63-1.62-0.86s-1.15 0.17-1.65 2.08-0.66 1.75 0 3.2 0.73 1.61 2.89 3.29c1.73 1.35 25.76-1.4 35.14-2.71l-0.02-2.22z" fill="#FC6B54"/>
<path d="m239 231.19h2.11v-1.79a6.28 6.28 0 0 0 -0.68 0.07c-1.25 0.2-1-0.69-0.95-0.79a2.85 2.85 0 0 0 0.62 -1.12c0.17-0.69-0.75-0.59-1.48-1.15s-0.92 0.06-1.42 0.72-1 0.23-2.11 0.09-0.06-0.78 0.18-1.37-0.69-1-0.9-1.55-1.25-0.23-1.78 0.49-2.11 0.23-2.31 0.2a2.39 2.39 0 0 1 -0.92 -0.73c-0.24-0.29 0-0.49 0-1.25s-0.53-0.2-0.79-0.26-1.55-0.33-1.69-0.4a1.35 1.35 0 0 0 -0.69 0.13 1.78 1.78 0 0 0 -0.46 1.19c0 0.63-0.82 0.16-1.35 0s-0.63-0.39-0.56-0.69-0.17-0.49-0.3-0.8-0.79-0.42-1.15-0.42a0.84 0.84 0 0 0 -0.88 0.94c0 0.77-1.43 1.5-1.4 1.21a11.1 11.1 0 0 0 -0.16 -1.42 0.86 0.86 0 0 0 -0.66 -0.86c-0.23-0.07-1 0.46-1.75 0.3s-0.89 1.68-1 2-1.91 0.32-1.81 0-1.36-1.06-1.92-1.46-0.49 0-1.25 0.2-0.36 0.13-0.66 0.89-0.46 0.76-0.72 0.73-1.19 1.12-1.32 1.12a10.22 10.22 0 0 1 -1.25 -1.25c-0.36-0.37-1.16 0.06-1.85 0.69s-0.56 1.15-0.53 2.7a3.16 3.16 0 0 1 -0.95 0.86c-0.53 0.26-1.19-0.63-1.62-0.86s-1.15 0.17-1.65 2.08-0.66 1.75 0 3.2 0.73 1.61 2.89 3.29c1.73 1.35 25.76-1.4 35.14-2.71l-0.02-2.22z" fill="#fff" opacity=".6"/>
<path d="m201.55 227.94s-1.55-1.94-0.55-2.44 2.5-0.59 2.57 0 3.1 1.72 2.77 0.46-0.86-3.43 0.26-3 2.51 1.58 2.37 2 0.53 0.93 1.19 0.4 0.66-2.51 1.32-1.92a14.94 14.94 0 0 1 1.58 1.92s1.65 0.53 2.11 0-0.39-1.85 0-2-0.2-0.79 1-0.53 2.18-0.13 2.11 1-2.11 1.19-1.25 1.49a2.79 2.79 0 0 0 2.3 0c0.47-0.37 0.27-1.16 0.86-1.23s1.45-0.39 2.11 0.07 0.66 0.73 0.66 1.16-0.72 1.28 0.53 0.75 1.51-0.07 1.51-1.29-2.17-2.1 0-1.91 2.37-1.56 2.7 0a5.44 5.44 0 0 1 0 2.23 1.19 1.19 0 0 0 1.39 0.83c0.66-0.14 1-0.06 1-0.83s-1.65-2.07 0-1.48a12.76 12.76 0 0 1 3.23 1.48c0.13 0.23-0.46 0.56-0.46 0.76s1.91 1.06 2.5 0.2-0.39-0.27 0.6-0.86 1.12-0.39 2-0.1 1.71 0 1.32 0.63a9.69 9.69 0 0 0 -0.86 3.3c0.13 0.19 3.44 1.18 1 2.17s-35.23 0.8-37.87-3.26z" fill="#FC6B54"/>
<path d="m201.55 227.94s-1.55-1.94-0.55-2.44 2.5-0.59 2.57 0 3.1 1.72 2.77 0.46-0.86-3.43 0.26-3 2.51 1.58 2.37 2 0.53 0.93 1.19 0.4 0.66-2.51 1.32-1.92a14.94 14.94 0 0 1 1.58 1.92s1.65 0.53 2.11 0-0.39-1.85 0-2-0.2-0.79 1-0.53 2.18-0.13 2.11 1-2.11 1.19-1.25 1.49a2.79 2.79 0 0 0 2.3 0c0.47-0.37 0.27-1.16 0.86-1.23s1.45-0.39 2.11 0.07 0.66 0.73 0.66 1.16-0.72 1.28 0.53 0.75 1.51-0.07 1.51-1.29-2.17-2.1 0-1.91 2.37-1.56 2.7 0a5.44 5.44 0 0 1 0 2.23 1.19 1.19 0 0 0 1.39 0.83c0.66-0.14 1-0.06 1-0.83s-1.65-2.07 0-1.48a12.76 12.76 0 0 1 3.23 1.48c0.13 0.23-0.46 0.56-0.46 0.76s1.91 1.06 2.5 0.2-0.39-0.27 0.6-0.86 1.12-0.39 2-0.1 1.71 0 1.32 0.63a9.69 9.69 0 0 0 -0.86 3.3c0.13 0.19 3.44 1.18 1 2.17s-35.23 0.8-37.87-3.26z" fill="#fff" opacity=".7"/>
<path d="m243.18 226.82a22.9 22.9 0 0 1 -14.18 19.78h-17.72a22 22 0 0 1 -4.72 -2.62 22.69 22.69 0 0 1 -9.46 -17.16h46.08z" fill="#263238"/>
<path d="m243.18 226.82a22.9 22.9 0 0 1 -14.18 19.78h-17.72a22 22 0 0 1 -4.72 -2.62 22.69 22.69 0 0 1 -9.46 -17.16h46.08z" fill="#fff" opacity=".7"/>
<rect x="206.56" y="243.83" width="27.16" height="2.77" fill="#263238"/>
<rect x="206.56" y="243.83" width="27.16" height="2.77" fill="#fff" opacity=".6"/>
<path d="m269.72 209.75l-40.93 4.61c-1-4.35-2.14-8.91-3.51-13.55l41.22-5.95c0.1 0.39 0.19 0.78 0.29 1.17 0.99 3.97 1.98 8.55 2.93 13.72z" fill="#fff" opacity=".6"/>
<path d="m270.86 216.54c-7.14 7.66-18.77 11.17-21 11.78l-0.37 0.1-0.24-0.1-2.91-4.52s13.83-19.12 13.83-20.43-2.65-15.83-2.65-15.83a111.39 111.39 0 0 0 9.25 8.49c1.42 5.66 2.84 12.47 4.09 20.51z" opacity=".2"/>
<path d="m252.33 219.73l-6.7 6.2-1.9-0.59c-0.48-0.14-7.3 1.78-7.26 2.63a33.6 33.6 0 0 0 3.58 7.27c0.69 0.68 6.34-2.6 7.32-2.95s1.57-2.45 1.57-2.45l7.3-6.1-3.91-4.01z" fill="#e4897b"/>
<path d="m273.71 205.56c-1 7.38-20.11 22.76-20.11 22.76l-5.61-6s12.9-13.75 14.83-18.39a4.8 4.8 0 0 0 -0.26 -2.58 60.5 60.5 0 0 0 -2.49 -6.78c-0.6-1.45-1.27-3-2-4.65 0 0-1.59-6.07-1.19-9.63a15.84 15.84 0 0 1 2.41 -6.46c4.74 0.45 9.26 8.88 11.95 17.23a60 60 0 0 1 1.95 7.57 24.1 24.1 0 0 1 0.52 6.93z" fill="#FC6B54"/>
<path d="m273.2 198.62a73.43 73.43 0 0 0 -10.64 2.72 60.5 60.5 0 0 0 -2.49 -6.78 40.08 40.08 0 0 1 11.18 -3.51 60 60 0 0 1 1.95 7.57z" fill="#fff" opacity=".6"/>
<path d="m168.46 260.36a2.65 2.65 0 0 1 -0.54 -1.56 1 1 0 0 1 0.6 -0.83 0.62 0.62 0 0 1 0.62 0c0.88 0.56 1.06 3.59 1.07 3.93a0.16 0.16 0 0 1 -0.1 0.17 0.2 0.2 0 0 1 -0.22 -0.05 11.29 11.29 0 0 1 -1.43 -1.66zm0.69-1.86a0.61 0.61 0 0 0 -0.19 -0.2 0.2 0.2 0 0 0 -0.24 0 0.65 0.65 0 0 0 -0.42 0.56 4.32 4.32 0 0 0 1.49 2.55 8.1 8.1 0 0 0 -0.64 -2.91z" fill="#FC6B54"/>
<path d="m169.85 262v-0.09c-0.1-0.95 0.44-3.21 1.27-3.51a0.64 0.64 0 0 1 0.75 0.29 1.1 1.1 0 0 1 0.26 0.82c-0.09 1.19-1.89 2.49-2 2.55a0.18 0.18 0 0 1 -0.2 0 0.16 0.16 0 0 1 -0.08 -0.06zm1.76-3l-0.05-0.08c-0.17-0.2-0.27-0.16-0.32-0.14-0.49 0.16-1 1.72-1.05 2.74 0.51-0.42 1.47-1.3 1.54-2.06a0.74 0.74 0 0 0 -0.12 -0.46z" fill="#FC6B54"/>
<path d="m214.73 173.27c0.44-0.39 1.45 0.42 1.63 0.09s0.85 0.54 1 0.53 0 1.3 0 1.42a1.24 1.24 0 0 1 -0.4 0.66c-0.3 0.24-0.83 1-0.94 0.7s-1-0.82-1.07-1 0.2-0.61 0.05-0.83-1.65-0.35-0.27-1.57z" fill="#FC6B54"/>
<path d="m214.73 173.27c0.44-0.39 1.45 0.42 1.63 0.09s0.85 0.54 1 0.53 0 1.3 0 1.42a1.24 1.24 0 0 1 -0.4 0.66c-0.3 0.24-0.83 1-0.94 0.7s-1-0.82-1.07-1 0.2-0.61 0.05-0.83-1.65-0.35-0.27-1.57z" fill="#fff" opacity=".6"/>
<path d="m216.41 176.51c-0.05 0-1.33-0.75-0.85-0.86s0.25-0.57 0.24-0.8 0-0.63 0.52-0.53 0.59 0.12 0.43 0.49-0.41 0.66-0.27 0.75-0.07 0.95-0.07 0.95z" opacity=".2"/>
<path transform="rotate(180 652.57 636.39)" d="m979.65 935.1h54.41v98.13a18.84 18.84 0 0 1 -18.84 18.84h-16.73a18.84 18.84 0 0 1 -18.84 -18.84v-98.13z" fill="#263238"/>
<path transform="rotate(180 652.57 636.39)" d="m979.65 935.1h54.41v98.13a18.84 18.84 0 0 1 -18.84 18.84h-16.73a18.84 18.84 0 0 1 -18.84 -18.84v-98.13z" fill="#fff" opacity=".6"/>
<path d="m271.08 337.68h31.3v-101.32a15.65 15.65 0 0 0 -15.65 -15.65 15.65 15.65 0 0 0 -15.65 15.65v101.32z" fill="#fff" opacity=".4"/>
<path d="m178.52 330.72c2.49 0.45 4.51 2.19 3.15 2.6s-0.93 1.12-0.43 2.38 3.57 2.1 0.09 2-3.76 0-4.23-0.07 0-1.39-0.75-0.62-2-0.75-1.8-1.45 1.18-0.61 1-1.25 1.8-2.27 1.8-2.27-0.3-1.59 1.17-1.32z" fill="#FC6B54"/>
<path d="m178.52 330.72c2.49 0.45 4.51 2.19 3.15 2.6s-0.93 1.12-0.43 2.38 3.57 2.1 0.09 2-3.76 0-4.23-0.07 0-1.39-0.75-0.62-2-0.75-1.8-1.45 1.18-0.61 1-1.25 1.8-2.27 1.8-2.27-0.3-1.59 1.17-1.32z" fill="#fff" opacity=".8"/>
<path d="m180.86 333.51c-0.19-1-0.87-1.32-1.17-1s-0.38-0.05-0.52 0.64 0.26 0.51-0.15 0.69-1.19-0.26-0.92 0.37 1.34 0.27 0.93 0.77-0.81 0.85-0.23 1-0.2 0.86 0.58 0.13 0.69-0.62 1-0.42 0.48-2.18 0.48-2.18z" opacity=".1"/>
<path d="m135.77 331c2.5 0.45 4.52 2.19 3.15 2.6s-0.92 1.12-0.43 2.39 3.57 2.1 0.09 2-3.75 0-4.22-0.08 0-1.38-0.75-0.62-2.05-0.74-1.81-1.45 1.19-0.6 1-1.24 1.81-2.27 1.81-2.27-0.31-1.63 1.16-1.33z" fill="#FC6B54"/>
<path d="m135.77 331c2.5 0.45 4.52 2.19 3.15 2.6s-0.92 1.12-0.43 2.39 3.57 2.1 0.09 2-3.75 0-4.22-0.08 0-1.38-0.75-0.62-2.05-0.74-1.81-1.45 1.19-0.6 1-1.24 1.81-2.27 1.81-2.27-0.31-1.63 1.16-1.33z" fill="#fff" opacity=".8"/>
<path d="m138.11 333.75c-0.18-1-0.87-1.32-1.16-1s-0.38-0.06-0.53 0.63 0.26 0.52-0.14 0.7-1.19-0.27-0.93 0.36 1.34 0.27 0.93 0.77-0.81 0.85-0.23 1-0.19 0.87 0.58 0.14 0.69-0.63 1-0.43 0.48-2.17 0.48-2.17z" opacity=".1"/>
<path d="m270.46 270.86c-1.92 1.65-4.54 2.13-4 0.81s-0.3-1.42-1.59-1.83-3.88 1.46-1.58-1.16 2.38-2.91 2.71-3.24 1.09 0.85 1-0.2 1.86-1.12 2.26-0.49-0.28 1.3 0.32 1.58 0.63 2.84 0.63 2.84 1.38 0.71 0.25 1.69z" fill="#FC6B54"/>
<path d="m270.46 270.86c-1.92 1.65-4.54 2.13-4 0.81s-0.3-1.42-1.59-1.83-3.88 1.46-1.58-1.16 2.38-2.91 2.71-3.24 1.09 0.85 1-0.2 1.86-1.12 2.26-0.49-0.28 1.3 0.32 1.58 0.63 2.84 0.63 2.84 1.38 0.71 0.25 1.69z" fill="#fff" opacity=".8"/>
<path d="m266.82 270.92c0.9 0.49 1.57 0.15 1.48-0.3s0.28-0.26-0.17-0.81-0.56-0.12-0.44-0.54 0.95-0.77 0.29-0.95-1.05 0.87-1.18 0.24-0.15-1.17-0.62-0.8-0.56-0.7-0.47 0.36 0.05 0.93-0.32 1.08 1.43 1.72 1.43 1.72z" opacity=".1"/>
<path d="m163.58 219.67c-1.33 2.15-3.69 3.4-3.58 2s-0.7-1.26-2.06-1.27-3.26 2.56-1.86-0.63 1.4-3.48 1.62-3.9 1.3 0.48 0.85-0.48 1.44-1.63 2-1.15 0.13 1.33 0.78 1.42 1.46 2.51 1.46 2.51 1.57 0.22 0.79 1.5z" fill="#FC6B54"/>
<path d="m163.58 219.67c-1.33 2.15-3.69 3.4-3.58 2s-0.7-1.26-2.06-1.27-3.26 2.56-1.86-0.63 1.4-3.48 1.62-3.9 1.3 0.48 0.85-0.48 1.44-1.63 2-1.15 0.13 1.33 0.78 1.42 1.46 2.51 1.46 2.51 1.57 0.22 0.79 1.5z" fill="#fff" opacity=".8"/>
<path d="m160.13 220.82c1 0.2 1.54-0.33 1.32-0.73s0.19-0.33-0.4-0.72-0.57 0.05-0.59-0.39 0.68-1 0-1-0.74 1.14-1 0.58-0.5-1.06-0.84-0.57-0.73-0.5-0.34 0.48 0.33 0.88 0 1.13 1.85 1.22 1.85 1.22z" opacity=".1"/>
<path d="m147.4 330.52c2.17-1.3 2.95-0.88 2.9 0s1.19 0.81 1.65 1.26 1.25 0.79 1.45 1.15 0.93 0 0.33 0.88-1 1-1.32 1.59-0.33 0.59-0.92 0.85 0.29 1.78-0.81 1.32-1.3 0.59-2.16-0.2-0.79-1.22-1.65-1.7-1.25 0.24-1.25-0.81-0.59-1.18 0-1.64a2.05 2.05 0 0 0 0.73 -1.12 3.4 3.4 0 0 1 1.05 -1.58z" fill="#FC6B54"/>
<path d="m147.4 330.52c2.17-1.3 2.95-0.88 2.9 0s1.19 0.81 1.65 1.26 1.25 0.79 1.45 1.15 0.93 0 0.33 0.88-1 1-1.32 1.59-0.33 0.59-0.92 0.85 0.29 1.78-0.81 1.32-1.3 0.59-2.16-0.2-0.79-1.22-1.65-1.7-1.25 0.24-1.25-0.81-0.59-1.18 0-1.64a2.05 2.05 0 0 0 0.73 -1.12 3.4 3.4 0 0 1 1.05 -1.58z" fill="#fff" opacity=".8"/>
<path d="m147.47 333.69c-0.27-1.15-0.2-1.66 0.59-1.2s0.73 1.1 1.12 0.52a3.09 3.09 0 0 0 0.48 -1.23 1.57 1.57 0 0 1 0.77 0c0.27 0.12 0.86 0.55 0.4 0.93s-1-0.15-0.46 0.38 0.86 0 1 0.6 0.79 1.3 0 1.17-0.33 0.27-0.79-0.12-1.16-0.6-0.91-0.14 0.46 0.93-0.14 0.73-1 0-1-0.47 0.66-0.39 0.13-0.72-1.07 0.06-1.19-0.45z" opacity=".1"/>
<path d="m300.12 331c2.17-1.29 2.95-0.88 2.9 0s1.19 0.82 1.65 1.27 1.25 0.79 1.45 1.14 0.92 0 0.33 0.89-1 1-1.32 1.58-0.33 0.59-0.92 0.86 0.29 1.78-0.81 1.32-1.3 0.59-2.16-0.2-0.79-1.22-1.65-1.7-1.25 0.24-1.25-0.81-0.59-1.18 0-1.65a2.13 2.13 0 0 0 0.73 -1.12 3.4 3.4 0 0 1 1.05 -1.58z" fill="#FC6B54"/>
<path d="m300.12 331c2.17-1.29 2.95-0.88 2.9 0s1.19 0.82 1.65 1.27 1.25 0.79 1.45 1.14 0.92 0 0.33 0.89-1 1-1.32 1.58-0.33 0.59-0.92 0.86 0.29 1.78-0.81 1.32-1.3 0.59-2.16-0.2-0.79-1.22-1.65-1.7-1.25 0.24-1.25-0.81-0.59-1.18 0-1.65a2.13 2.13 0 0 0 0.73 -1.12 3.4 3.4 0 0 1 1.05 -1.58z" fill="#fff" opacity=".8"/>
<path d="m300.19 334.18c-0.27-1.14-0.2-1.65 0.59-1.19s0.73 1.09 1.12 0.51a3.07 3.07 0 0 0 0.48 -1.22 1.57 1.57 0 0 1 0.77 0c0.27 0.12 0.86 0.54 0.4 0.92s-1-0.14-0.46 0.38 0.85 0 1 0.6 0.79 1.3 0 1.18-0.33 0.27-0.79-0.13-1.16-0.59-0.91-0.13 0.46 0.92-0.14 0.72-1 0-1-0.46 0.66-0.39 0.13-0.72-1.07 0.05-1.19-0.46z" opacity=".1"/>
<path d="m169.43 238.87c-0.09-2.52 0.65-3 1.4-2.54s1.29-0.64 1.9-0.83 1.3-0.72 1.71-0.72 0.47-0.79 0.93 0.14 0.39 1.35 0.75 1.92a1.34 1.34 0 0 1 0.3 1.23c0 0.64 1.7 0.6 0.77 1.34s-0.11 1.43-1.22 1.79-1.45 0.11-2.28 0.63-0.4 1.21-1.32 0.7-1.32 0-1.44-0.79a2.08 2.08 0 0 0 -0.63 -1.18 3.4 3.4 0 0 1 -0.87 -1.69z" fill="#FC6B54"/>
<path d="m169.43 238.87c-0.09-2.52 0.65-3 1.4-2.54s1.29-0.64 1.9-0.83 1.3-0.72 1.71-0.72 0.47-0.79 0.93 0.14 0.39 1.35 0.75 1.92a1.34 1.34 0 0 1 0.3 1.23c0 0.64 1.7 0.6 0.77 1.34s-0.11 1.43-1.22 1.79-1.45 0.11-2.28 0.63-0.4 1.21-1.32 0.7-1.32 0-1.44-0.79a2.08 2.08 0 0 0 -0.63 -1.18 3.4 3.4 0 0 1 -0.87 -1.69z" fill="#fff" opacity=".8"/>
<path d="m172.23 240.35c-1.13-0.32-1.54-0.63-0.75-1.1s1.3-0.11 1-0.73a3.1 3.1 0 0 0 -0.85 -1 1.63 1.63 0 0 1 0.38 -0.68c0.23-0.18 0.89-0.49 1 0.1s-0.61 0.79 0.11 0.59 0.43-0.75 1-0.58 1.53-0.06 1 0.57 0.08 0.42-0.49 0.63-1.08 0.72-0.55 0.73 1 0 0.56 0.47-0.49 0.87-0.89 0.65 0-0.77-0.56-0.46-0.45 0.95-0.96 0.81z" opacity=".1"/>
<path d="m204.31 266.23c2.16-1.29 2.95-0.88 2.9 0s1.18 0.81 1.64 1.26 1.26 0.79 1.46 1.15 0.92 0 0.32 0.89-1 1-1.31 1.58-0.33 0.59-0.93 0.86 0.3 1.78-0.81 1.31-1.3 0.6-2.15-0.19-0.8-1.23-1.65-1.7-1.26 0.24-1.26-0.81-0.59-1.19 0-1.65a2.05 2.05 0 0 0 0.73 -1.12 3.36 3.36 0 0 1 1.06 -1.58z" fill="#FC6B54"/>
<path d="m204.31 266.23c2.16-1.29 2.95-0.88 2.9 0s1.18 0.81 1.64 1.26 1.26 0.79 1.46 1.15 0.92 0 0.32 0.89-1 1-1.31 1.58-0.33 0.59-0.93 0.86 0.3 1.78-0.81 1.31-1.3 0.6-2.15-0.19-0.8-1.23-1.65-1.7-1.26 0.24-1.26-0.81-0.59-1.19 0-1.65a2.05 2.05 0 0 0 0.73 -1.12 3.36 3.36 0 0 1 1.06 -1.58z" fill="#fff" opacity=".8"/>
<path d="m204.37 269.4c-0.27-1.14-0.2-1.65 0.59-1.19s0.73 1.09 1.13 0.51a3.16 3.16 0 0 0 0.47 -1.23 1.6 1.6 0 0 1 0.78 0c0.26 0.12 0.86 0.55 0.39 0.93s-1-0.15-0.46 0.38 0.86 0 1 0.6 0.79 1.3 0 1.18-0.33 0.26-0.79-0.13-1.16-0.59-0.91-0.13 0.46 0.92-0.14 0.72-1 0-1-0.46 0.66-0.4 0.13-0.72-1.07 0.05-1.19-0.46z" opacity=".1"/>
<path d="m325.82 291.85s-7.76-9.23-12.72-4.93-2.45 13.44 3.27 13.73a14.41 14.41 0 0 0 9.45 -2.88v-5.92z" fill="#FC6B54"/>
<path d="m325.82 291.85s-7.76-9.23-12.72-4.93-2.45 13.44 3.27 13.73a14.41 14.41 0 0 0 9.45 -2.88v-5.92z" fill="#fff" opacity=".2"/>
<path d="m357.45 268.44s6.51-6.82 10.54-5.66 3.62 17.45-8.89 10.86l-1.65-5.2z" fill="#FC6B54"/>
<path d="m357.45 268.44s6.51-6.82 10.54-5.66 3.62 17.45-8.89 10.86l-1.65-5.2z" fill="#fff" opacity=".3"/>
<path d="m334.19 319.34s-21.4-29.28-4-35.21 20.47 23.56 15.51 31.76-11.51 3.45-11.51 3.45z" fill="#FC6B54"/>
<path d="m344.11 259.4s13.28-30.82-6.38-31.75-21.81 30.56 0.82 35.13l5.56-3.38z" fill="#FC6B54"/>
<path d="m334.19 319.34s-21.4-29.28-4-35.21 20.47 23.56 15.51 31.76-11.51 3.45-11.51 3.45z" fill="#fff" opacity=".3"/>
<path d="m344.11 259.4s13.28-30.82-6.38-31.75-21.81 30.56 0.82 35.13l5.56-3.38z" fill="#fff" opacity=".3"/>
<path d="m339.4 284.64s-6.45-27.22 6-29.39 24.65 22.42-1 34.78c-0.06-0.03-4.46-2.73-5-5.39z" fill="#FC6B54"/>
<path d="m339.4 284.64s-6.45-27.22 6-29.39 24.65 22.42-1 34.78c-0.06-0.03-4.46-2.73-5-5.39z" fill="#fff" opacity=".2"/>
<polygon points="318.79 315.19 354.71 315.19 351.71 338.17 321.79 338.17" fill="#263238"/>
<path d="m337.47 257.2a25.52 25.52 0 0 1 -5 -4.88 24.73 24.73 0 0 1 -3.52 -6.08 18.25 18.25 0 0 1 -1.28 -6.93 16.43 16.43 0 0 1 1.61 -6.78c-0.13 0.57-0.25 1.13-0.39 1.69l-0.21 0.83c0 0.29 0 0.57-0.08 0.86-0.06 0.56-0.15 1.13-0.2 1.69v1.7a21.26 21.26 0 0 0 1.44 6.58 32 32 0 0 0 3.21 6 30.16 30.16 0 0 0 2.06 2.74 33.11 33.11 0 0 0 2.36 2.58z" fill="#FC6B54"/>
<path d="m332.76 230.75a12.52 12.52 0 0 1 3.22 1.1 15.67 15.67 0 0 1 2.84 1.94 15 15 0 0 1 4 5.59 20 20 0 0 1 1.38 6.72c0 1.14-0.07 2.28-0.12 3.41s-0.35 2.24-0.58 3.34c0-1.13 0.07-2.25 0.1-3.37s-0.06-2.23-0.17-3.33a27.4 27.4 0 0 0 -0.56 -3.26c-0.14-0.52-0.23-1.07-0.4-1.59l-0.57-1.53a16.19 16.19 0 0 0 -9.14 -9.02z" fill="#FC6B54"/>
<path d="m347.8 257.2a11.7 11.7 0 0 1 6.52 6.26 14.66 14.66 0 0 1 1.22 4.5 6.57 6.57 0 0 1 0.06 1.18 9.46 9.46 0 0 1 0 1.19 12.79 12.79 0 0 1 -0.47 2.31 19.65 19.65 0 0 1 -1.88 4.27 29.37 29.37 0 0 1 -2.7 3.74 37.61 37.61 0 0 1 -6.65 6.27c1.1-1.06 2.17-2.13 3.16-3.27a41.65 41.65 0 0 0 2.89 -3.48 24.83 24.83 0 0 0 4.22 -7.81 12.08 12.08 0 0 0 0.46 -2.13 9.75 9.75 0 0 0 0 -1.08 6.63 6.63 0 0 0 0 -1.09 15 15 0 0 0 -1 -4.3 12.29 12.29 0 0 0 -2.3 -3.77 11.49 11.49 0 0 0 -3.53 -2.79z" fill="#FC6B54"/>
<path d="m344.11 259.4a24.52 24.52 0 0 1 1.38 6.24 15.27 15.27 0 0 1 0 3.24 7.76 7.76 0 0 1 -1 3.19 12.07 12.07 0 0 0 -1.81 5.77 27.11 27.11 0 0 0 -0.15 3.13c0 1 0 2.1 0.07 3.16a24 24 0 0 1 -0.69 -6.34 15.43 15.43 0 0 1 0.4 -3.23 10 10 0 0 1 0.54 -1.57 11 11 0 0 1 0.79 -1.45 6.88 6.88 0 0 0 0.93 -2.79 18.47 18.47 0 0 0 0.2 -3.08 30.06 30.06 0 0 0 -0.2 -3.13c-0.13-1.05-0.29-2.09-0.46-3.14z" fill="#FC6B54"/>
<path d="m335.39 286.92a3 3 0 0 1 1.33 1 10.6 10.6 0 0 1 1 1.41 23.45 23.45 0 0 1 1.34 3.09 48.4 48.4 0 0 1 1.78 6.47c0.45 2.18 0.81 4.38 1.05 6.6a43.86 43.86 0 0 1 0.35 6.68c-0.15-1.1-0.32-2.2-0.53-3.29s-0.37-2.19-0.58-3.28c-0.41-2.17-0.81-4.35-1.27-6.51s-0.95-4.31-1.53-6.44a25.83 25.83 0 0 0 -1.05 -3.11 11.17 11.17 0 0 0 -0.73 -1.47 3.3 3.3 0 0 0 -1.16 -1.15z" fill="#FC6B54"/>
<path d="m329.31 287.87a28.21 28.21 0 0 0 -1 6.07 23 23 0 0 0 0.44 6 20.09 20.09 0 0 0 2 5.7 29.39 29.39 0 0 0 3.43 5.1c-0.39-0.34-0.77-0.69-1.15-1.06a10.48 10.48 0 0 1 -1.1 -1.11 16.17 16.17 0 0 1 -1.86 -2.55 18.25 18.25 0 0 1 -1.44 -2.82c-0.2-0.49-0.32-1-0.49-1.52a10.22 10.22 0 0 1 -0.39 -1.54 19.4 19.4 0 0 1 -0.24 -6.31 18.6 18.6 0 0 1 1.8 -5.96z" fill="#FC6B54"/>
<path d="m362.5 271.77a27.69 27.69 0 0 0 3.18 -1 8.85 8.85 0 0 0 1.39 -0.75 12.09 12.09 0 0 0 1.31 -1.07 3.2 3.2 0 0 1 -0.78 1.65 4.43 4.43 0 0 1 -1.52 1.09 5.38 5.38 0 0 1 -1.8 0.39 4.2 4.2 0 0 1 -1.78 -0.31z" fill="#FC6B54"/>
<path d="m361.17 267.27a4.43 4.43 0 0 1 1.18 -1.4 5 5 0 0 1 1.65 -0.87 3.55 3.55 0 0 1 1.94 0 2.7 2.7 0 0 1 1.5 1.13 6.3 6.3 0 0 0 -1.63 -0.37 5.29 5.29 0 0 0 -1.53 0.22 9.86 9.86 0 0 0 -1.53 0.57l-1.58 0.72z" fill="#FC6B54"/>
<path d="m322.28 293.23a36.52 36.52 0 0 0 -3.95 -2.85 5.51 5.51 0 0 0 -2.11 -0.78 4 4 0 0 0 -2.22 0.4 3 3 0 0 1 2.29 -1.21 4.64 4.64 0 0 1 2.57 0.69 8.62 8.62 0 0 1 2 1.62 8.42 8.42 0 0 1 1.42 2.13z" fill="#FC6B54"/>
<path d="m322.28 297.77a11.21 11.21 0 0 1 -2.92 0.64 12.68 12.68 0 0 1 -3 -0.09 6.48 6.48 0 0 1 -2.87 -1.17 3.33 3.33 0 0 1 -1.4 -2.67 4.13 4.13 0 0 0 1.83 2 7.9 7.9 0 0 0 2.61 0.83 50.58 50.58 0 0 0 5.75 0.46z" fill="#FC6B54"/>
</g>
</svg>
