<svg width="890" height="60" xmlns="http://www.w3.org/2000/svg" version="1.1">

 <g>
  <title>Layer 1</title>
  <path id="svg_1" stroke-linecap="round" fill="#fafafa" d="m0,15l13.7,-0.5c13.6,-0.5 41,-1.5 68.3,3.8c27.3,5.4 54.7,17 81.8,15.4c27.2,-1.7 54.2,-16.7 81.4,-12.5c27.1,4.1 54.5,27.5 81.8,28.6c27.3,1.2 54.7,-19.8 82,-32.5c27.3,-12.6 54.7,-17 82,-6.6c27.3,10.3 54.7,35.3 82,41.8c27.3,6.5 54.7,-5.5 81.8,-15c27.2,-9.5 54.2,-16.5 81.4,-12.7c27.1,3.9 54.5,18.5 81.8,22.5c27.3,4 54.7,-2.6 68.3,-6l13.7,-3.3l0,64l-13.7,0c-13.6,0 -41,0 -68.3,0c-27.3,0 -54.7,0 -81.8,0c-27.2,0 -54.2,0 -81.4,0c-27.1,0 -54.5,0 -81.8,0c-27.3,0 -54.7,0 -82,0c-27.3,0 -54.7,0 -82,0c-27.3,0 -54.7,0 -82,0c-27.3,0 -54.7,0 -81.8,0c-27.2,0 -54.2,0 -81.4,0c-27.1,0 -54.5,0 -81.8,0c-27.3,0 -54.7,0 -68.3,0l-13.7,0l0,-87z"/>
 </g>
</svg>