<svg width="934" height="599" xmlns="http://www.w3.org/2000/svg" version="1.1">

 <g>
  <title>Layer 1</title>
  <g id="svg_1" fill-rule="evenodd" fill="#FFFFFF00">
   <rect x="-45" y="-85" id="svg_2" height="768" width="1024"/>
   <path id="svg_3" fill="#ef4b4c" d="m476.92,239.83c37.365,-2.972 73.013,10.952 102.88,32.654c38.49,27.971 71.113,67.973 93.195,110.12c2.349,1.809 4.663,3.664 6.961,5.536c12.29,10.012 24.297,20.587 34.94,32.357c5.942,6.57 21.527,22.546 14.761,32.623c-1.436,2.14 -3.794,3.368 -6.156,4.215c-6.622,2.371 -13.525,3.572 -20.056,6.346c-8.062,3.423 -16.422,8.217 -21.587,15.526c-1.469,2.079 -1.852,4.532 -3.827,5.448c-2.094,0.972 -6.042,0.593 -8.331,0.817c-4.601,0.452 -9.203,0.903 -13.805,1.353c-10.811,1.06 -22.112,1.177 -32.688,3.788l-48.653,12.013c-9.951,2.457 -21.388,3.811 -30.825,7.849c-14.082,6.027 -27.517,14.851 -40.992,22.123c-6.515,3.516 -13.031,7.033 -19.547,10.549c-3.182,1.718 -5.36,1.741 -9.089,2.028l-26.91,2.07c-4.341,0.334 -6.425,2.082 -6.994,-2.262l-6.255,-47.758l-3.306,-25.254c-0.197,-1.502 -0.139,-8.942 -1.37,-9.84c-0.772,-0.563 -5.302,0.649 -6.14,0.752l-12.214,1.496c-8.797,1.077 -17.593,2.154 -26.39,3.231c-0.714,0.087 -4.669,0.042 -5.113,0.626c-0.52,0.685 0.469,4.611 0.558,5.456c0.933,8.868 1.867,17.736 2.8,26.604c0.109,1.028 1.358,5.797 0.7,6.641c-0.458,0.586 -3.772,0.657 -4.445,0.767c-8.486,1.385 -16.971,2.77 -25.457,4.156c-6.077,0.992 -14.019,0.942 -19.764,3.227c-3.299,1.312 -6.563,4.667 -9.413,6.764l-41.386,30.454c-6.277,4.618 -14.737,3.442 -22.381,4.024l-88.177,6.718c0.073,-2.746 0.147,-5.492 0.22,-8.239c0.388,-14.545 0.775,-29.09 1.163,-43.635l0.508,-19.024c0.032,-1.204 -0.449,-4.727 0.338,-5.617c1.046,-1.181 5.721,-1.693 7.172,-2.123c4.867,-1.441 9.733,-2.881 14.599,-4.321c14.277,-4.226 28.552,-8.452 42.828,-12.677c14.11,-4.176 28.218,-8.353 42.327,-12.529c4.828,-1.429 9.655,-2.858 14.482,-4.287c1.115,-0.33 5.01,-0.769 5.785,-1.712c0.977,-1.188 0.54,-6.257 0.696,-7.763c0.766,-7.349 1.858,-14.665 3.188,-21.932c9.592,-52.418 32.011,-105.66 73.58,-140.63c27.478,-23.116 61.946,-35.896 97.593,-38.731l-0.003,0.003zm6.59,105.12c-3.699,-4.343 -9.913,-11.428 -16.448,-10.252c-5.311,0.956 -8.205,7.54 -10.056,11.917c-7.441,17.592 -9.749,37.757 -12.063,56.558c-1.452,11.797 -2.62,23.646 -3.367,35.509l79.518,-6.117c-1.251,-8.446 -2.254,-16.97 -3.76,-25.375c-0.755,-4.213 -2.843,-8.006 -4.628,-11.898c-7.984,-17.408 -16.699,-35.669 -29.196,-50.342z"/>
   <path id="svg_4" fill="#000" d="m851.45,2.001l0.64805,0.01123c17.59,0.468 33.102,11.787 45.133,23.766c5.949,5.923 11.374,12.89 13.927,20.997c2.948,9.365 1.978,19.666 -0.265,29.065c-4.955,20.771 -11.011,41.649 -17.821,61.892c-3.351,9.958 -8.21,19.722 -10.739,29.914c-2.085,8.397 6.695,14.513 7.031,23.142c0.339,8.705 -5.518,16.883 -13.566,19.994c-3.428,1.325 -7.575,0.218 -10.735,1.576c-2.89,1.241 -3.902,4.904 -4.457,7.716c-0.756,3.835 -0.62,7.667 -0.405,11.536c0.132,2.367 -0.458,6.23 0.697,8.341c0.793,1.45 2.238,1.924 3.483,2.916c1.699,1.354 2.831,3.039 4.321,4.595c2.456,2.568 4.819,3.959 5.486,7.705c0.355,-0.851 0.71,-1.702 1.064,-2.552c1.831,3.349 3.188,4.955 1.447,8.134c5.401,-0.53 8.601,9.268 10.017,12.984c2.593,6.8 4.374,13.866 6.973,20.67c3.562,9.329 8.242,18.535 10.515,28.296c1.909,8.204 3.42,16.63 5.117,24.891c0.956,4.651 1.789,9.376 3.538,13.811c0.68,1.722 1.942,2.881 2.724,4.416c1.069,2.101 0.651,3.211 0.702,5.512c0.09,4.102 2.678,6.765 3.492,10.75c0.869,4.257 1.579,8.562 2.456,12.828c1.767,8.593 5.04,17.174 5.828,25.878c0.915,10.107 2.878,20.09 3.865,30.2c0.864,8.834 -0.604,18.318 1.241,26.864c1.636,7.585 -0.392,14.521 -1.114,22.052c-0.183,1.912 2.762,13.296 -1.971,11.11c0.889,2.684 2.135,3.963 2.202,6.907c0.062,2.754 -0.648,5.585 -1.228,8.255c-1.12,5.16 -1.866,10.784 -4.06,15.618c-2.481,5.468 -6.262,6.123 -11.402,7.999c-3.48,1.27 -9.746,5.802 -12.488,0.954c-1.635,4.977 -4.827,1.537 -8.405,1.259c0.024,0.001 -2.048,0.767 -2.436,0.82c-1.258,0.169 -2.745,-0.424 -3.997,-0.528c-3.121,-0.259 -6.183,0.158 -9.236,0.79c-7.035,1.458 -13.841,3.474 -20.98,4.49c-13.945,1.984 -27.611,1.046 -41.576,1.915c-27.33,1.699 -55.112,0.273 -82.463,-0.463c-2.936,-0.079 -6.1,0.332 -8.997,-0.119c-3.123,-0.487 -3.804,-1.965 -6.237,-3.445c-4.045,-2.458 -8.533,-0.067 -12.729,0.831c-12.32,2.637 -25.186,2.832 -37.604,5.383c-25.23,5.181 -48.476,15.406 -72.643,24.031c-10.477,3.739 -22.774,9.794 -34.072,10.057c-13.692,0.29593 -10.458,-13.19 -7.942,-21.859c-7.911,2.1 -20.334,11.696 -28.375,6.127c-9.583,-6.636 2.61,-17.668 3.184,-25.468c-17.127,3.555 -36.555,11.352 -53.939,5.014c-3.345,-1.219 -6.256,-3.797 -9.847,-4.216c-3.733,-0.436 -7.679,0.883 -11.453,0.86c-8.598,-0.055 -16.947,-1.199 -25.542,-0.14c-19.163,2.36 -38.054,3.652 -57.372,4.161c-19.448,0.512 -38.897,1.664 -58.354,1.616c-9.876,-0.025 -19.935,-1.196 -29.791,-0.671c-3.87,0.206 -12.199,3.017 -14.918,-0.916c-2.73,3.273 -5.049,1.086 -8.551,1.449c0.649,-0.067 -1.824,1.363 -2.196,1.501c-1.841,0.684 -3.562,0.476 -5.484,0.456c-5.12,-0.052 -9.903,2.344 -14.997,2.112c-1.288,-0.058 -2.262,-0.433 -3.355,-0.875c-0.259,-0.105 -0.197,-1.219 -0.612,-1.312c-2.492,-0.558 -1.848,0.968 -3.43,1.738c-1.754,0.852 -4.349,-0.527 -3.351,2.095c-4.759,-0.209 -9.268,1.395 -13.598,-1.427c2.047,4.524 -5.104,0.766 -6.973,0.692c-3.106,-0.125 -5.826,1.428 -8.924,1.786c-3.715,0.428 -7.448,-1.295 -11.083,-0.243c-2.848,0.823 -3.823,2.804 -6.787,1.791c-2.518,-0.86 -4.091,-2.729 -5.313,-4.772c-1.686,-2.819 -1.902,-4.077 -5.968,-4.127c-3.015,-0.037 -6.046,0.612 -9.09,0.606c-3.488,-0.007 -7.321,-0.377 -10.505,1.281c-3.43,1.786 -5.445,4.505 -9.249,5.904c-17.106,6.29 -35.884,4.625 -53.732,4.518c-7.53,-0.045 -13.056,0.647 -15.17,-7.942c-1.786,-7.257 -2.502,-14.846 -4.206,-22.163c-2.088,-8.965 -4.383,-17.283 -9.016,-25.298c-4.494,-7.773 -8.275,-15.803 -12.188,-23.877c-8.138,-16.792 -19.466,-31.079 -32.096,-44.725c-4.798,-5.185 -10.297,-10.961 -10.52,-18.427c-0.16365,-6.447 2.6763,-13.126 6.4013,-18.262c3.326,-4.584 8.806,-9.755 15.005,-8.686c3.733,0.644 6.18,3.655 8.966,5.914c3.045,2.468 6.362,4.15 10.032,5.496c8.558,3.139 15.735,6.574 23.146,11.992c7.499,5.483 14.509,11.623 20.994,18.272c12.449,12.765 25.205,26.026 32.358,42.555c2.819,6.512 4.62,12.792 6.542,19.544c1.888,6.63 7.028,4.803 12.808,3.85c7.044,-1.162 14.123,-1.785 21.214,-2.521c2.669,-0.277 6.432,-0.359 8.039,-2.881c1.772,-2.781 -0.258,-6.384 -0.419,-9.269c-0.086,-1.541 0.425,-2.677 0.553,-4.18c0.147,-1.709 -0.358,-3.27 -0.36,-4.972c-0.002,-3.66 1.711,-6.92 4.558,-9.137c5.327,-4.15 13.097,-6.624 19.404,-8.907c8.611,-3.118 17.838,-4.65 26.706,-6.875c9.985,-2.506 20.03,-4.764 30.069,-7.04c9.864,-2.236 19.713,-4.536 29.683,-6.258c5.848,-1.01 12.192,-0.641 17.861,-2.487c6.025,-1.962 5.026,-8.024 5.008,-13.395c-0.029,-8.87 1.069,-18.002 2.368,-26.771c2.764,-18.642 9.348,-36.886 15.333,-54.701c5.766,-17.158 12.909,-33.626 24.701,-47.55c11.479,-13.555 25.568,-25.822 40.183,-35.895c15.228,-10.496 32.173,-18.079 48.069,-27.449c-3.474,-2.657 -7.618,-4.924 -9.614,-9.016c-2.254,-4.619 -1.299,-10.142 -1.203,-15.079c0.108,-5.572 0.278,-10.463 2.268,-15.771c1.089,-2.907 5.299,-8.421 4.654,-11.582c-1.081,-5.308 -12.693,-9.185 -16.969,-11.369c-6.706,-3.426 -13.425,-6.906 -19.605,-11.231c-5.931,-4.149 -11.511,-9.143 -15.104,-15.512c-1.019,-1.807 -1.858,-3.705 -2.509,-5.675c-0.725,-2.198 -0.218,-2.947 -2.415,-3.108c-3.507,-0.258 -8.765,3.262 -11.72,4.817c-15.235,8.017 -31.967,18.806 -49.943,18.09c-6.522,-0.259 -13.854,-2.308 -16.16,-9.11c-3.036,-8.955 3.303,-18.206 8.865,-24.674c-10.849,1.705 -30.855,7.034 -39.416,-2.646c-5.705,-6.45 -1.402,-16.688 3.382,-22.281c6.321,-7.388 15.332,-11.886 23.656,-16.587c-10.214,-3.894 -21.521,-6.384 -30.503,-12.9c-8.591,-6.231 -7.529,-15.804 -0.744,-23.154c7.254,-7.857 19.938,-11.881 29.914,-14.798c12.236,-3.578 24.392,-3.291 37.001,-3.051c22.63,0.43 42.069,8.772 60.63,21.384c9.814,6.669 19.487,13.866 28.191,21.943c8.164,7.575 16.873,14.619 24.917,22.276c7.794,7.419 13.925,16.611 22.151,23.542c6.995,5.893 14.664,14.246 23.55,16.862c9.423,2.774 17.905,7.362 27.408,10.093c10.78,3.097 20.04,8.276 30.03,13.217c41.925,20.736 86.932,34.231 131.13,49.118c22.608,7.614 45.366,12.981 68.447,18.796c11.591,2.92 22.354,4.478 34.315,3.95c2.758,-0.121 5.392,-0.193 8.112,0.19c1.994,0.28 3.51,1.034 5.293,-0.158c2.562,-1.712 3.525,-6.168 5.052,-8.705c-8.512,-2.639 -16.845,-5.494 -20.729,-14.217c-2.447,-5.497 -3.717,-11.908 -4.79,-17.806c-0.576,-3.174 -0.589,-6.377 -1.081,-9.553c-0.27,-1.754 -1.104,-3.587 -1.04,-5.379c-0.191,0.997 -6.534,-2.282 -7.454,-2.891c-3.549,-2.351 -4.195,-7.09 -4.166,-11.09c0.034,-4.518 1.398,-9.484 4.466,-12.91c1.452,-1.622 3.18,-2.838 5.291,-3.449c1.498,-0.434 3.474,0.134 4.795,-0.303c5.86,-1.937 6.516,-16.438 7.347,-21.717c1.832,-11.632 3.657,-22.737 7.611,-33.887c7.209,-20.328 16.487,-40.084 27.538,-58.592c9.4688,-15.859 18.929,-35.251 39.748,-35.477l0.64088,0l0.00177,-0.00023zm-179.98,488.32c-8.427,1.459 -16.5,4.439 -24.64,6.966c-7.602,2.36 -15.307,3.863 -23.106,5.397c-15.521,3.054 -31.383,5.849 -46.679,9.83c-4.307,1.121 -6.573,3.651 -10.331,5.41c-2.786,1.304 -5.401,-0.017 -8.299,-0.128c-6.309,-0.241 -13.309,1.817 -19.377,3.351c-14.325,3.619 -27.035,9.905 -39.998,16.854c-1.16,0.621 -9.003,4.21 -8.631,5.696c0.302,1.213 10.272,-2.044 11.858,-2.285c8.028,-1.223 15.87,-3.754 23.839,-5.326c6.541,-1.291 13.156,-2.165 19.669,-3.598c7.248,-1.594 22.688,-7.138 23.302,4.833c0.663,12.938 -13.624,16.917 -22.212,22.952c0.957,1.651 14.735,-3.793 16.443,-4.343c5.859,-1.889 11.294,-5.294 17.259,-6.744c10.378,-2.523 9.121,8.939 3.392,14.038c-6.366,5.664 -16.894,7.376 -20.419,16.093c4.629,1.67 10.681,-1.466 14.933,-3.025c5.584,-2.047 11.189,-4.063 16.807,-6.015c12.611,-4.382 24.589,-10.419 37.267,-14.594c26.012,-8.564 53.507,-11.02 80.699,-12.542c-2.423,-9.399 -5.073,-18.743 -7.25,-28.204c-0.932,-4.049 -1.785,-8.117 -2.491,-12.212c-0.491,-2.848 -0.073,-9.663 -2.035,-11.909c-2.389,-2.736 -8.611,1.107 -11.997,1.034c-3.317,-0.072 -5.737,-1.784 -8.802,-2.324c-2.91,-0.512 -6.354,0.302 -9.201,0.795zm-488.76,54.406c0,4.493 -0.779,9.943 5.131,10.468c4.78,0.425 14.131,0.971 17.944,-2.428c-3.654,-1.781 -7.807,-2.092 -11.688,-3.119c-4.044,-1.071 -7.778,-2.829 -11.387,-4.921zm97.546,-81.866c-1.798,0.013 -4.831,2.012 -6.471,2.57c-3.001,1.02 -6.051,1.881 -9.115,2.692c-9.206,2.438 -21.059,2.818 -25.286,12.7c-2.11,4.932 -3.573,17.615 -10.905,17.569c-6.517,-0.042 -10.42,-9.448 -15.069,-12.795c-4.805,-3.458 -12.423,-1.104 -17.605,0.398c-5.266,1.525 -13.438,3.482 -12.847,10.156c0.425,4.798 1.291,9.165 1.25,14.066c-0.051,6.239 -0.578,12.465 -0.578,18.704c3.697,-5.065 6.922,-15.248 13.472,-17.285c6.617,-2.058 10.36,9.503 12.081,13.934c2.133,5.49 4.814,11.716 4.977,17.666c0.051,1.868 -1.083,7 0.216,8.536c1.153,1.364 5.588,0.375 7.021,0.226c8.869,-0.923 17.691,-2.072 26.588,-2.842c4.569,-0.395 5.813,-1.398 5.366,-6.313c-0.351,-3.86 -0.46,-7.539 0.024,-11.414c2.16,-17.301 12.814,-33.127 30.828,-36.131c10.855,-1.811 23.532,-0.487 34.369,1.252c4.177,0.67 8.712,2.693 12.956,2.517c3.135,-0.13 2.125,-0.308 2.767,-3.259c0.449,-2.063 1.41,-3.823 2.979,-5.253c1.24,-1.13 2.814,-0.492 3.983,-1.969c0.846,-1.069 0.719,-2.525 1.118,-3.757c0.779,-2.397 2.187,-5.632 4.99,-6.237c4.511,-0.975 9.306,5.065 11.583,8.18c2.352,3.221 3.063,12.837 6.846,14.096c4.365,1.451 9.558,-4.27 10.468,-7.874c1.224,-4.848 -0.318,-10.093 -1.055,-14.894c-0.052,-0.344 -0.267,-3.534 -0.504,-3.742c-0.637,-0.561 -5.436,-0.404 -6.286,-0.446c-4.181,-0.199 -8.369,-0.209 -12.554,-0.22c-16.407,-0.041 -32.479,-1.654 -48.777,-3.374c2.367,3.859 6.42,10.195 2.26,14.269c-3.083,3.018 -8.647,1.504 -12.519,2.126c-5.47,0.878 -14.691,6.069 -19.904,2.274c-7.346,-5.35 0.964,-14.542 3.692,-19.598c0.584,-1.084 2.75,-4.898 1.832,-6.169c-0.795,-1.101 -1.027,-0.368 -2.191,-0.359zm-122.35,59.459c-3.751,1.144 -7.53,2.244 -11.362,3.092c-4.495,0.995 -11.465,0.029 -13.652,4.974c-1.664,3.76 -0.838,9.826 0.514,13.571c1.548,4.289 5.181,5.392 9.469,5.719c5.004,0.382 10.074,-0.425 15.019,-1.109c1.949,-0.27 4.027,-0.757 6.007,-0.76c1.175,-0.003 3.547,1.072 4.592,0.193c1.353,-1.139 0.462,-7.609 0.356,-9.16c-0.263,-3.841 -0.992,-7.631 -1.191,-11.478c-0.142,-2.763 0.9,-6.518 -2.339,-7.107c-2.017,-0.367 -5.66,1.531 -7.413,2.065zm302.9,-76.037c-2.803,0.485 -5.59,0.832 -8.437,0.789c-1.754,-0.027 -3.854,-0.623 -5.475,0.339c-2.994,1.777 -2.548,6.458 -2.446,9.379c0.125,3.544 0.435,7.141 0.813,10.667c0.361,3.372 2.211,8.925 -0.402,11.814c-1.843,-2.017 -2.752,-8.612 -6.309,-8.371c-3.911,0.264 -2.103,6.514 -1.756,8.752c1.917,12.371 4.102,24.749 5.815,37.156c0.814,5.898 1.866,11.753 2.411,17.68c0.365,3.978 0.488,7.56 4.934,8.384c4.12,0.764 8.75,-0.54 12.915,-0.64c4.288,-0.103 6.744,-0.394 9.211,-4.27c-5.907,-1.293 -15.264,-0.502 -18.592,-6.75c-3.88,-7.289 4.304,-13.847 8.331,-18.829c3.091,-3.826 9.411,-16.546 15.149,-8.991c2.066,2.72 2.439,6.871 3.482,10.035c1.697,5.141 3.77,10.208 5.804,15.222c18.609,-9.606 37.704,-18.266 57.999,-23.659c-5.174,-8.745 -11.579,-16.62 -15.452,-26.099c-4.34,-10.623 -7.935,-21.536 -12.372,-32.125c-7.035,4.106 -14.556,-5.848 -21.561,-6.249c-11.066,-0.633 -23.213,3.886 -34.062,5.766zm-110.23,71.617c-3.858,2.298 -9.533,6.767 -10.459,11.387c-1.6,7.987 7.515,2.647 10.329,0.899c5.891,-3.659 11.663,-4.828 18.428,-2.573c8.676,2.891 16.671,7.772 25.983,4.064c4.633,-1.846 14.91,-5.79 12.137,-12.867c-1.912,-4.878 -7.507,-0.694 -10.464,1.055c-7.742,4.579 -14.153,1.678 -21.889,-1.627c-7.737,-3.306 -16.449,-4.874 -24.065,-0.338zm-274.76,-40.988c-3.097,4.39 3.199,3.442 5.963,3.87c5.78,0.893 11.733,5.502 10.14,12.024c-1.553,6.359 -7.638,10.334 -8.797,17.009c-0.996,5.732 -0.036,12.987 5.499,16.134c3.109,1.767 9.904,2.495 13.033,0.465c4.778,-3.1 -1.156,-7.716 -4.317,-9.251c-4.189,-2.035 -7.572,-3.137 -5.499,-8.483c2.527,-6.517 7.435,-11.518 6.999,-18.975c-0.36,-6.178 -3.621,-13.199 -9.562,-15.766c-4.254,-1.837 -10.558,-1.14 -13.459,2.973zm422.87,-18.939c5.354,-0.229 5.567,6.241 5.297,9.423c-0.369,4.351 0.421,8.988 0.512,13.353c0.121,5.781 1.331,24.713 -8.892,21.901c-6.574,-1.808 -11.983,-8.108 -17.268,-12.156c-4.862,-3.726 -17.222,-8.195 -18.023,-15.259c-0.904,-7.979 8.842,-9.472 14.426,-10.74c7.972,-1.81 15.712,-6.168 23.948,-6.522zm-26.082,-210.29c-8.49,0.819 -16.933,2.08 -25.013,4.9c-5.467,1.908 -13.864,3.276 -17.739,7.958c-3.35,4.049 -1.898,9.821 -2.987,14.605c-1.473,6.472 -5.941,5.587 -10.274,1.546c-5.186,-4.838 -6.686,-8.341 -13.905,-3.801c-14.945,9.398 -26.794,23.273 -38.649,36.127c9.167,2.776 27.15,3.448 30.195,14.901c1.664,6.262 -3.353,10.817 -7.861,14.234c-5.821,4.413 -11.897,8.494 -17.591,13.084c-5.313,4.283 -17.227,21.336 -20.597,6.343c-2.087,-9.281 1.823,-18.872 0.164,-28.04c-7.208,11.622 -14.527,23.216 -21.136,35.194c-5.625,10.197 -8.896,21.104 -11.594,32.378c4.206,0.275 8.584,-1.86 12.742,-0.599c4.004,1.214 5.878,5.002 6.159,8.926c0.478,6.653 -2.594,13.425 -4.14,19.814c-1.061,4.388 -2.279,14.347 -7.624,15.775c-6.092,1.627 -9.915,-7.744 -12.631,-11.552c-2.586,3.975 -2.543,9.79 -2.921,14.347c-0.259,3.133 -2.007,8.99 1.517,10.722c3.298,1.622 10.252,-0.41 13.779,-0.559c6.544,-0.278 13.215,-0.808 19.761,-0.615c6.185,0.183 15.285,3.489 17.701,-4.112c1.645,-5.175 3.094,-23.773 11.868,-13.683c3.898,4.481 6.946,9.589 10.711,14.155c3.798,4.605 7.251,4.907 12.923,4.674c11.228,-0.46 22.192,1.696 33.178,3.437c9.64,1.527 8.375,-6.655 8.232,-13.939c-0.219,-11.291 2.02,-23.098 3.241,-34.327c2.904,-26.701 8.864,-53.081 18.033,-78.334c-7.67,-2.612 -21.42,7.926 -27.091,-0.077c-4.662,-6.579 1.327,-15.642 3.765,-21.792c3.041,-7.673 4.579,-15.689 9.539,-22.489c1.565,-2.147 3.792,-5.024 6.822,-4.301c2.6,0.621 3.636,3.937 5.099,5.808c4.644,5.938 10.576,10.391 14.704,16.868c2.525,3.962 4.489,8.196 5.309,12.848c0.226,1.279 -0.06,3.898 0.84,4.971c2.791,3.325 11.584,3.276 15.492,5.315c13.342,6.963 18.031,27.231 23.212,40.011c1.46,3.599 2.907,7.207 3.683,11.022c0.518,2.55 0.493,5.792 1.876,8.079c3.019,4.993 12.399,0.534 17.002,-0.239c7.715,-1.296 15.392,-2.532 23.138,-3.62c4.726,-0.663 11.605,-2.376 15.206,1.811c3.733,4.341 1.586,11.178 -0.288,15.835c-3.059,7.601 -6.967,14.863 -10.195,22.395c-2.575,6.008 -3.857,13.748 -8.805,18.377c-4.286,4.012 -11.379,5.162 -16.425,1.897c-2.88,-1.863 -10.274,-19.885 -12.225,-19.08c3.522,13.92 8.686,28.114 14.142,41.399c1.675,4.081 4.552,12.402 8.785,14.615c3.509,1.835 11.471,-1.632 15.061,-2.304c3.404,-0.638 10.124,-3.402 13.379,-1.377c3.945,2.456 4.426,9.006 4.869,13.072c0.329,3.015 -0.268,5.265 3.4,5.115c2.584,-0.105 5.192,-1.365 7.672,-1.999c5.757,-1.469 11.732,-2.441 17.593,-3.387c13.555,-2.189 27.105,-4.372 40.654,-6.616c11.648,-1.929 23.144,-1.918 33.669,-7.443c5.335,-2.8 11.451,-3.655 17.132,-5.528c5.634,-1.857 11.25,-3.062 17.147,-3.76c12.889,-1.524 25.431,-3.017 38.169,-5.628c6.971,-1.429 13.929,-2.926 20.863,-4.527c6.172,-1.425 12.139,-3.689 18.281,-5.086c5.11,-1.162 9.307,-0.289 11.496,-6.089c1.57,-4.159 1.205,-8.82 1.608,-13.173c1.843,-19.889 -5.122,-39.891 -6.547,-59.671c-0.462,-6.406 -0.604,-12.832 -1.085,-19.233c-0.22,-2.933 -0.087,-11.473 -3.509,-13.054c-0.311,2.346 -0.069,6.292 -2.734,7.455c1.302,-0.568 -0.407,6.361 -0.499,7.057c-0.364,2.766 0.544,5.726 0.065,8.44c0.38,0.955 0.214,1.674 -0.496,2.158c-0.484,0.392 -0.837,0.888 -1.057,1.487c-0.034,1.935 0.533,0.795 0.56,1.463c0.268,6.656 -0.857,13.556 -0.376,20.374c0.509,7.207 2.118,14.277 3.34,21.385c1.097,6.38 2.279,12.773 3.194,19.182c0.642,4.498 1.118,9.661 -1.302,13.755c-4.595,7.773 -17.898,6.928 -25.646,8.199c-12.878,2.114 -25.774,4.021 -38.699,5.817c-4.962,0.689 -9.984,2.263 -15.004,2.342c-5.363,0.084 -8.233,-2.082 -11.614,-6.04c-6.812,-7.973 -11.205,-17.029 -16.879,-25.702c-3.187,-4.872 -5.838,-6.156 -11.203,-7.643c-4.983,-1.381 -8.982,-5.017 -13.036,-8.041c-8.516,-6.352 -19.513,-13.259 -25.101,-22.614c-5.881,-9.844 2.406,-13.112 10.341,-15.798c-1.931,-5.132 -5.718,-9.254 -8.838,-13.669c-3.547,-5.02 -6.763,-10.234 -10.582,-15.065c-7.784,-9.847 -15.559,-19.643 -23.113,-29.674c-6.457,-8.573 -12.983,-16.694 -21.224,-23.639c-8.277,-6.976 -17.492,-12.693 -26.581,-18.533c-4.748,-3.051 -13.083,-10.846 -19.084,-10.049c-5.821,0.774 -8.123,11.616 -9.577,16.173c-1.669,5.229 -2.258,12.52 -6.146,16.637c-5.714,6.05 -11.647,-3.48 -14.374,-7.872c-4.993,-8.045 -10.103,-16.018 -15.089,-24.07c-2.272,-3.671 -5.554,-7.164 -6.903,-11.326c-0.01606,-0.05006 -0.64757,-3.6288 -0.01006,-3.1282l0.04371,0.03999l-0.0434,-0.04802c-1.4258,-1.4129 -6.6938,-1.7063 -8.6632,-1.8766l-0.18005,-0.01614c-4.144,-0.391 -8.337,-0.083 -12.469,0.316l0,-0.00003zm-55.655,225.58c-4.773,-0.029 -9.532,0.526 -14.283,0.915c-4.173,0.341 -7.998,-0.297 -12.164,-0.548c-5.154,-0.31 -7.703,0.23 -6.516,5.553c0.863,3.873 1.9,9.032 5.877,10.669c5.372,2.212 12.608,1.914 18.332,2.752c4.202,0.615 8.393,1.17 12.577,1.871c2.779,0.466 4.206,0.953 5.507,-2.196c1.088,-2.639 0.387,-6.165 0.016,-8.891c-0.286,-2.092 -0.115,-5.771 -1.103,-7.632c-1.475,-2.778 -5.339,-2.475 -8.243,-2.493zm222.52,-53.079c7.012,6.41 11.731,14.605 17.026,22.377c3.233,4.745 9.558,12.31 4.965,18.063c-3.913,4.904 -13.012,3.782 -18.486,4.018c-8.602,0.371 -15.628,4.258 -23.814,6.263c-20.617,5.05 -3.494,-29.605 -0.638,-36.837c2.004,-5.074 4.071,-10.125 6.495,-15.016c1.093,-2.205 3.274,-8.635 5.992,-9.477c3.94,-1.221 5.966,8.329 8.46,10.609zm-177.14,-72.863c-3.277,6.264 -3.809,14.934 -5.363,21.775c-4.749,20.918 -7.526,42.222 -9.709,63.542c10.859,-4.307 22.321,-4.605 33.787,-5.659c8.307,-0.764 15.935,-1.639 24.244,-1.284c1.416,0.06 5.489,0.779 6.656,-0.425c1.567,-1.616 -0.331,-6.125 -0.794,-7.825c-2.518,-9.233 -3.625,-18.774 -6.487,-27.95c-2.918,-9.358 -6.465,-18.703 -10.239,-27.75c-2.76,-6.617 -6.551,-13.07 -13.24,-16.315c-5.856,-2.84 -15.22,-5.057 -18.855,1.891zm-44.721,40.712c4.474,6.745 10.141,12.645 14.511,19.453c3.098,4.829 6.726,13.761 -0.716,16.831c-2.612,1.077 -5.696,0.611 -8.433,0.659c-4.233,0.073 -8.425,0.437 -12.665,0.336c-4.01,-0.096 -7.982,-0.582 -11.982,-0.791c-2.521,-0.131 -5.688,0.063 -7.909,-1.385c-5.953,-3.883 -1.648,-11.812 0.269,-16.885c2.036,-5.389 4.785,-10.485 7.438,-15.592c1.839,-3.542 4.589,-10.759 8.772,-12.203c4.954,-1.71 8.651,6.466 10.715,9.577zm216.95,-76.423c9.833,11.434 18.371,23.906 26.411,36.644c3.924,6.216 7.734,12.505 11.538,18.795c2.489,4.116 4.358,9.381 7.39,13.109c6.917,8.503 8.841,-10.05 9.86,-14.083c3.761,-14.871 8.418,-29.622 12.561,-44.4l-4.2464,0.00017c-16.925,-0.00906 -33.152,-0.25971 -49.631,-5.2462c-4.665,-1.411 -8.918,-4.474 -13.883,-4.819l0.0004,0.00003zm-35.749,2.8829c5.354,3.954 39.625,27.169 25.209,36.127c-2.983,1.854 -7.858,1.013 -11.229,1.279c-4.32,0.341 -8.708,0.759 -12.976,1.524c-5.525,0.992 -10.893,2.721 -16.444,3.597c-4.413,0.697 -10.261,1.51 -14.204,-1.238c-6.504,-4.534 -2.556,-13.438 -0.409,-19.202c3.053,-8.19 5.944,-19.154 13.517,-24.032c1.762,-1.135 3.921,-5.188 5.817,-5.559c2.969,-0.582 8.547,5.901 10.719,7.504zm189.08,-192.57c-2.584,1.977 -2.702,6.083 -3.372,8.981c-2.254,9.748 -5.4,19.237 -7.267,29.089c-1.82,9.609 -2.392,19.069 -1.499,28.807c0.596,6.495 0.665,14.487 4.613,20.018c4.725,6.618 14.081,6.279 21.157,8.239c6.808,1.886 13.558,7.727 6.132,13.799c-2.639,2.157 -6.104,2.508 -8.713,4.586c-3.218,2.565 -5.066,7.161 -6.433,10.919c-1.126,3.094 -1.093,3.685 2.27,4.778c1.536,0.499 3.088,0.816 4.704,0.682c3.68,-0.306 6.963,-2.736 10.044,-4.562c7.858,-4.657 16.934,-10.874 26.316,-11.577c2.999,-0.224 6.408,1.003 9.324,0.029c2.717,-0.909 1.883,-1.465 2.355,-3.992c1.869,-10.016 2.628,-19.847 7.735,-28.908c2.521,-4.471 9.185,-13.617 13.652,-6.656c1.865,2.907 2.54,4.327 6.678,3.435c3.367,-0.725 7.066,-3.388 6.398,-7.277c-0.629,-3.669 -5.454,-6.167 -8.378,-7.775c-3.895,-2.14 -6.626,-1.893 -10.867,-2.4c-11.653,-1.393 -3.483,-18.436 -1.803,-24.831c1.056,-4.019 2.291,-9.214 -0.481,-12.843c-4.219,-5.52 -13.41,-3.705 -19.2,-2.922c-8.007,1.083 -16.748,1.66 -24.242,-1.974c-7.928,-3.844 -11.307,-12.514 -18.741,-16.729c-2.747,-1.558 -7.56,-3.078 -10.382,-0.916zm34.793,70.407c5.509,-0.074 2.831,7.781 1.323,10.422c-3.178,5.57 -9.985,7.724 -15.962,5.67c-4.728,-1.625 -9.842,-8.803 -2.437,-9.993c3.551,-0.57 7.066,-0.338 10.431,-2.027c1.917,-0.962 4.395,-4.042 6.645,-4.072zm-13.821,-41.77c3.423,2.078 -2.419,15.35 -3.403,18.036c-1.602,4.384 -3.028,7.214 1.048,10.593c2.834,2.35 8.424,4.378 5.755,9.061c-2.47,4.333 -10.945,2.516 -14.391,0.396c-5.009,-3.083 -3.533,-8.988 -2.428,-13.834c0.722,-3.175 7.324,-27.952 13.419,-24.252zm-539,-87.142c10.556,4.509 21.35,8.582 32.519,11.299c9.761,2.375 19.359,4.936 29.419,4.378c9.307,-0.515 10.417,8.628 5.101,14.96c-2.888,3.44 -6.239,3.354 -10.448,3.487c-4.927,0.156 -9.402,1.523 -14.154,2.747c-7.237,1.864 -14.564,3.447 -21.577,6.078c-3.619,1.358 -7.19,2.955 -10.418,5.101c-2.029,1.35 -6.557,3.782 -4.162,5.668c3.462,2.725 13.738,-1.008 17.858,-1.254c9.593,-0.572 19.167,-1.438 28.706,-2.639c4.672,-0.589 9.688,-1.171 14.113,-2.868c2.895,-1.11 6.1,-3.866 9.378,-3.166c6.916,1.477 3.489,11.845 0.349,15.218c-4.663,5.009 -11.742,7.221 -17.765,10.067c-4.21,1.99 -8.394,4.097 -12.482,6.324c-1.931,1.052 -10.931,4.993 -10.646,7.985c0.299,3.145 7.403,1.559 9.16,1.273c11.726,-1.907 22.307,-6.441 33.141,-11.081c4.742,-2.031 9.551,-3.98 14.194,-6.232c3.243,-1.574 6.431,-3.972 10.014,-4.687c8.448,-1.687 8.078,7.748 11.404,12.845c9.886,15.148 28.987,21.61 43.849,30.364c5.622,3.311 10.985,7.124 16.144,11.113c3.685,2.848 5.158,6.768 9.273,3.012c3.429,-3.131 5.083,-7.723 7.281,-11.705c2.559,-4.636 5.977,-8.729 8.6,-13.327c3.876,-6.793 5.037,-13.272 -3.475,-15.772c-8.936,-2.624 -16.008,-6.537 -23.603,-12.12c-18.639,-13.702 -34.105,-31.199 -52.69,-45.006c-17.218,-12.792 -35.476,-24.796 -57.061,-28.231c-20.458,-3.257 -42.903,-2.455 -62.022,6.169zm558.41,98.393c-0.437,3.772 -1.366,11.817 -6.606,12.118c-6.364,0.365 -2.09,-18.968 1.515,-21.144c5.772,-3.484 5.461,5.83 5.091,9.026zm-59.217,-1.5399c-7.944,0.658 -10.208,9.359 -2.268,12.44l2.268,-12.44zm29.455,-7.6365c-1.02,3.949 -0.657,10.286 -3.826,13.317c-4.467,4.271 -6.412,-1.997 -6.379,-5.571c0.032,-3.535 1.784,-12.377 6.515,-12.843c4.042,-0.398 0.678,4.288 3.69,5.097zm85.732,-87.858c-2.904,6.043 0.218,12.007 1.956,17.947c-3.565,1.149 -8.369,0.28 -10.546,4.048c-1.372,2.375 -1.133,5.951 -0.722,8.523c0.337,2.11 2.067,4.951 0.627,6.909c-1.885,2.563 -6.564,1.378 -8.643,4.229c-3.16,4.336 -1.387,14.24 3.047,17.504c6.232,4.585 2.513,-6.667 2.132,-8.716c-0.956,-5.133 4.362,-4.435 7.994,-6.508c1.949,-1.112 2.297,-1.327 2.744,-3.701c0.413,-2.187 0.194,-3.922 -0.327,-6.279c-1.768,-7.997 1.323,-6.691 7.676,-8.453c5.48,-1.521 5.041,-5.9 3.649,-10.503c-1.092,-3.608 -4.347,-9.527 -0.821,-12.603c1.399,-1.221 3.524,-0.449 3.826,-2.997c0.204,-1.72 -2.104,-4.54 -3.316,-5.529c-4.177,-3.41 -7.578,2.595 -9.276,6.129z"/>
  </g>
 </g>
</svg>